{"glyphs":{"0":{"ha":865,"x_min":90,"x_max":774,"o":"m 432 -18 q 178 107 265 -18 q 90 481 90 232 q 178 856 90 731 q 432 981 265 981 q 687 856 600 981 q 774 481 774 731 q 687 106 774 231 q 432 -18 600 -18 m 432 33 q 596 142 540 33 q 651 481 651 251 q 597 820 651 711 q 432 929 542 929 q 269 819 324 929 q 214 481 214 710 q 269 142 214 251 q 432 33 324 33 z "},"1":{"ha":593,"x_min":49,"x_max":435,"o":"m 418 158 q 435 10 418 58 q 371 -15 410 -15 q 326 1 343 -15 q 310 46 310 18 l 308 797 q 304 869 308 836 q 186 762 251 814 q 97 710 121 710 q 61 724 72 710 q 49 747 50 738 q 49 781 49 757 q 161 855 57 783 q 308 958 265 926 q 353 971 328 971 q 399 955 382 971 q 415 910 415 939 l 418 158 z "},"2":{"ha":760,"x_min":63,"x_max":721,"o":"m 83 0 q 63 46 63 13 q 65 68 63 61 l 131 124 q 345 315 261 233 q 490 499 429 397 q 551 708 551 601 q 503 867 551 803 q 361 931 454 931 q 220 864 264 931 q 174 721 176 797 q 106 742 126 721 q 85 796 85 764 q 119 881 85 838 q 219 952 154 924 q 368 981 283 981 q 583 912 497 981 q 669 707 669 843 q 586 451 669 571 q 399 245 503 331 q 150 63 294 160 q 426 79 267 64 q 700 113 586 94 q 715 90 710 107 q 721 54 721 74 q 714 17 721 33 q 694 0 707 1 l 83 0 z "},"3":{"ha":768,"x_min":49,"x_max":699,"o":"m 356 -17 q 172 14 240 -17 q 76 84 103 44 q 49 154 49 124 q 67 200 49 181 q 129 219 86 219 q 185 88 142 144 q 349 32 229 32 q 515 90 456 32 q 575 247 575 149 q 481 426 575 369 q 240 485 386 482 l 240 536 q 405 569 338 539 q 506 649 472 600 q 540 758 540 699 q 495 883 540 836 q 363 931 450 931 q 218 873 263 931 q 169 746 174 815 q 106 762 125 744 q 88 803 88 779 q 119 883 88 842 q 216 953 151 925 q 372 981 281 981 q 578 928 492 981 q 664 754 664 875 q 601 601 664 663 q 431 513 539 539 q 628 428 557 489 q 699 257 699 368 q 605 56 699 128 q 356 -17 511 -17 z "},"4":{"ha":831,"x_min":49,"x_max":788,"o":"m 778 339 q 788 301 788 324 q 772 256 788 274 l 643 256 l 643 158 q 661 10 643 57 q 597 -15 632 -15 q 552 1 569 -15 q 535 46 535 18 l 533 256 l 81 256 q 57 274 65 261 q 49 300 49 286 q 57 326 49 314 l 517 944 q 542 965 524 956 q 579 974 560 974 q 624 956 607 974 q 642 911 642 939 l 643 324 q 778 339 719 326 m 533 322 l 532 860 l 136 322 l 533 322 z "},"5":{"ha":779,"x_min":89,"x_max":707,"o":"m 371 -17 q 220 13 285 -17 q 122 89 156 43 q 89 181 89 135 q 111 229 89 211 q 169 244 133 247 q 190 154 171 201 q 253 73 210 107 q 365 39 296 39 q 530 107 476 39 q 583 297 583 175 q 524 471 583 407 q 363 535 465 535 q 222 514 281 535 q 160 492 164 493 q 129 524 129 492 l 147 914 q 162 948 147 935 q 199 961 176 961 q 463 963 369 961 q 643 971 556 964 q 649 943 649 960 q 640 900 649 921 q 615 869 631 879 q 232 876 358 869 l 217 560 q 310 585 268 576 q 400 593 351 593 q 624 516 542 593 q 707 306 707 439 q 611 60 707 138 q 371 -17 515 -17 z "},"6":{"ha":806,"x_min":90,"x_max":735,"o":"m 456 594 q 598 562 535 594 q 698 464 661 529 q 735 306 735 399 q 652 71 735 158 q 419 -17 569 -17 q 90 428 90 -17 q 181 845 90 711 q 464 979 272 979 q 606 951 540 979 q 672 879 672 922 q 657 841 672 860 q 629 821 642 822 q 546 901 588 878 q 461 924 504 924 q 267 798 318 924 q 211 467 215 672 q 313 559 251 524 q 456 594 375 594 m 424 33 q 567 113 521 33 q 614 308 614 192 q 568 476 614 417 q 436 536 522 536 q 303 492 363 536 q 213 375 243 449 q 269 126 218 218 q 424 33 319 33 z "},"7":{"ha":701,"x_min":49,"x_max":646,"o":"m 346 0 q 293 -7 315 -7 q 236 1 265 -7 q 285 295 242 119 q 396 633 328 471 q 539 878 464 794 q 163 868 393 868 l 67 868 q 53 892 58 875 q 49 926 49 908 q 58 967 49 956 q 328 963 196 963 l 633 963 q 646 922 646 950 q 632 876 646 894 q 486 608 551 772 q 383 277 421 444 q 346 0 346 110 z "},"8":{"ha":832,"x_min":82,"x_max":753,"o":"m 485 517 q 680 388 607 457 q 753 225 753 318 q 719 109 753 164 q 610 18 686 54 q 415 -18 535 -18 q 220 18 294 -18 q 114 109 146 54 q 82 224 82 164 q 153 397 82 319 q 333 497 224 474 q 178 608 235 547 q 121 758 121 668 q 150 862 121 811 q 244 947 179 913 q 411 981 310 981 q 577 951 510 981 q 677 871 644 921 q 710 763 710 821 q 649 612 710 679 q 485 517 589 544 m 236 764 q 260 666 236 706 q 325 600 285 626 q 433 542 365 574 l 440 539 q 594 764 594 621 q 544 885 593 839 q 415 931 494 931 q 288 887 339 931 q 236 764 236 843 m 418 29 q 570 80 508 29 q 632 213 632 131 q 567 358 632 300 q 381 475 501 417 q 256 381 308 440 q 203 232 203 322 q 265 81 203 132 q 418 29 328 29 z "},"9":{"ha":814,"x_min":92,"x_max":722,"o":"m 400 981 q 635 879 549 981 q 722 535 722 778 q 683 217 722 339 q 564 39 644 96 q 357 -18 483 -18 q 200 10 267 -18 q 119 85 133 39 q 118 99 118 89 q 133 139 118 121 q 161 158 147 157 q 260 65 211 92 q 360 38 308 38 q 548 160 499 38 q 601 492 597 282 q 503 402 563 436 q 365 368 444 368 q 168 445 244 368 q 92 667 92 522 q 173 895 92 810 q 400 981 254 981 m 383 428 q 512 470 454 428 q 601 586 569 513 q 549 840 596 749 q 396 931 503 931 q 254 853 300 931 q 208 664 208 776 q 253 490 208 553 q 383 428 299 428 z "}," ":{"ha":304,"x_min":0,"x_max":0,"o":""},"ா":{"ha":900,"x_min":149,"x_max":897,"o":"m 893 746 q 897 724 897 732 q 883 701 897 706 q 836 696 868 696 l 674 696 l 674 138 q 677 60 674 86 q 688 11 681 33 q 624 -10 658 -10 q 574 8 590 -10 q 558 69 558 26 l 558 696 l 206 697 l 206 0 l 149 0 l 149 746 l 893 746 z "},"A":{"ha":822,"x_min":31,"x_max":810,"o":"m 776 76 q 810 11 792 31 q 744 -15 786 -15 q 699 -3 718 -15 q 674 31 679 8 l 589 306 l 225 306 l 156 74 q 147 28 147 43 q 156 -4 147 6 q 94 -15 126 -15 q 31 36 31 -15 q 44 99 31 54 l 339 963 q 431 981 385 981 q 497 939 485 981 l 776 76 m 569 372 l 406 906 l 246 372 l 569 372 z "},"Á":{"ha":822,"x_min":31,"x_max":810,"o":"m 776 76 q 810 11 792 31 q 744 -15 786 -15 q 699 -3 718 -15 q 674 31 679 8 l 589 306 l 225 306 l 156 74 q 147 28 147 43 q 156 -4 147 6 q 94 -15 126 -15 q 31 36 31 -15 q 44 99 31 54 l 339 963 q 431 981 385 981 q 497 939 485 981 l 776 76 m 569 372 l 406 906 l 246 372 l 569 372 m 378 1022 q 363 1037 371 1025 q 356 1056 356 1049 l 544 1214 q 587 1181 565 1204 q 618 1136 608 1158 l 378 1022 z "},"Ă":{"ha":822,"x_min":31,"x_max":810,"o":"m 776 76 q 810 11 792 31 q 744 -15 786 -15 q 699 -3 718 -15 q 674 31 679 8 l 589 306 l 225 306 l 156 74 q 147 28 147 43 q 156 -4 147 6 q 94 -15 126 -15 q 31 36 31 -15 q 44 99 31 54 l 339 963 q 431 981 385 981 q 497 939 485 981 l 776 76 m 569 372 l 406 906 l 246 372 l 569 372 m 597 1171 q 530 1064 576 1104 q 413 1024 483 1024 q 297 1064 340 1024 q 233 1167 253 1104 l 281 1185 q 333 1117 297 1140 q 419 1093 369 1093 q 503 1117 469 1093 q 554 1183 538 1142 l 597 1171 z "},"Ắ":{"ha":822,"x_min":31,"x_max":810,"o":"m 776 76 q 810 11 792 31 q 744 -15 786 -15 q 699 -3 718 -15 q 674 31 679 8 l 589 306 l 225 306 l 156 74 q 147 28 147 43 q 156 -4 147 6 q 94 -15 126 -15 q 31 36 31 -15 q 44 99 31 54 l 339 963 q 431 981 385 981 q 497 939 485 981 l 776 76 m 569 372 l 406 906 l 246 372 l 569 372 m 597 1171 q 530 1064 576 1104 q 413 1024 483 1024 q 297 1064 340 1024 q 233 1167 253 1104 l 281 1185 q 333 1117 297 1140 q 419 1093 369 1093 q 503 1117 469 1093 q 554 1183 538 1142 l 597 1171 m 383 1164 q 369 1178 376 1167 q 361 1197 361 1190 l 550 1356 q 592 1323 571 1346 q 624 1278 614 1300 l 383 1164 z "},"Ặ":{"ha":822,"x_min":31,"x_max":810,"o":"m 776 76 q 810 11 792 31 q 744 -15 786 -15 q 699 -3 718 -15 q 674 31 679 8 l 589 306 l 225 306 l 156 74 q 147 28 147 43 q 156 -4 147 6 q 94 -15 126 -15 q 31 36 31 -15 q 44 99 31 54 l 339 963 q 431 981 385 981 q 497 939 485 981 l 776 76 m 569 372 l 406 906 l 246 372 l 569 372 m 419 -208 q 372 -188 392 -208 q 351 -140 351 -168 q 372 -92 351 -112 q 419 -72 392 -72 q 467 -92 447 -72 q 488 -140 488 -112 q 467 -188 488 -168 q 419 -208 447 -208 m 597 1171 q 530 1064 576 1104 q 413 1024 483 1024 q 297 1064 340 1024 q 233 1167 253 1104 l 281 1185 q 333 1117 297 1140 q 419 1093 369 1093 q 503 1117 469 1093 q 554 1183 538 1142 l 597 1171 z "},"Ằ":{"ha":822,"x_min":31,"x_max":810,"o":"m 776 76 q 810 11 792 31 q 744 -15 786 -15 q 699 -3 718 -15 q 674 31 679 8 l 589 306 l 225 306 l 156 74 q 147 28 147 43 q 156 -4 147 6 q 94 -15 126 -15 q 31 36 31 -15 q 44 99 31 54 l 339 963 q 431 981 385 981 q 497 939 485 981 l 776 76 m 569 372 l 406 906 l 246 372 l 569 372 m 597 1171 q 530 1064 576 1104 q 413 1024 483 1024 q 297 1064 340 1024 q 233 1167 253 1104 l 281 1185 q 333 1117 297 1140 q 419 1093 369 1093 q 503 1117 469 1093 q 554 1183 538 1142 l 597 1171 m 213 1278 q 244 1323 222 1300 q 286 1356 265 1346 l 475 1197 q 467 1178 475 1190 q 453 1164 460 1167 l 213 1278 z "},"Ẳ":{"ha":822,"x_min":31,"x_max":810,"o":"m 776 76 q 810 11 792 31 q 744 -15 786 -15 q 699 -3 718 -15 q 674 31 679 8 l 589 306 l 225 306 l 156 74 q 147 28 147 43 q 156 -4 147 6 q 94 -15 126 -15 q 31 36 31 -15 q 44 99 31 54 l 339 963 q 431 981 385 981 q 497 939 485 981 l 776 76 m 569 372 l 406 906 l 246 372 l 569 372 m 597 1171 q 530 1064 576 1104 q 413 1024 483 1024 q 297 1064 340 1024 q 233 1167 253 1104 l 281 1185 q 333 1117 297 1140 q 419 1093 369 1093 q 503 1117 469 1093 q 554 1183 538 1142 l 597 1171 m 375 1201 q 429 1226 414 1214 q 444 1257 444 1238 q 415 1290 444 1281 q 350 1299 386 1299 l 347 1350 q 473 1333 419 1353 q 526 1263 526 1314 q 494 1199 526 1224 q 386 1163 461 1174 l 375 1201 z "},"Ẵ":{"ha":822,"x_min":31,"x_max":810,"o":"m 776 76 q 810 11 792 31 q 744 -15 786 -15 q 699 -3 718 -15 q 674 31 679 8 l 589 306 l 225 306 l 156 74 q 147 28 147 43 q 156 -4 147 6 q 94 -15 126 -15 q 31 36 31 -15 q 44 99 31 54 l 339 963 q 431 981 385 981 q 497 939 485 981 l 776 76 m 569 372 l 406 906 l 246 372 l 569 372 m 597 1171 q 530 1064 576 1104 q 413 1024 483 1024 q 297 1064 340 1024 q 233 1167 253 1104 l 281 1185 q 333 1117 297 1140 q 419 1093 369 1093 q 503 1117 469 1093 q 554 1183 538 1142 l 597 1171 m 619 1300 q 579 1218 608 1249 q 506 1188 550 1188 q 460 1195 482 1188 q 411 1218 439 1203 q 367 1239 385 1232 q 329 1246 349 1246 q 249 1189 269 1246 l 246 1189 q 215 1203 229 1189 q 256 1290 224 1263 q 335 1318 289 1318 q 378 1311 358 1318 q 429 1289 397 1304 q 476 1268 458 1275 q 517 1261 494 1261 q 558 1273 544 1261 q 586 1311 572 1285 q 619 1300 608 1311 z "},"Ǎ":{"ha":822,"x_min":31,"x_max":810,"o":"m 776 76 q 810 11 792 31 q 744 -15 786 -15 q 699 -3 718 -15 q 674 31 679 8 l 589 306 l 225 306 l 156 74 q 147 28 147 43 q 156 -4 147 6 q 94 -15 126 -15 q 31 36 31 -15 q 44 99 31 54 l 339 963 q 431 981 385 981 q 497 939 485 981 l 776 76 m 569 372 l 406 906 l 246 372 l 569 372 m 450 1029 q 414 1025 438 1025 q 379 1029 392 1025 l 204 1188 q 216 1205 207 1194 q 232 1218 225 1215 l 415 1110 l 597 1218 q 613 1205 604 1215 q 625 1188 622 1194 l 450 1029 z "},"Â":{"ha":822,"x_min":31,"x_max":810,"o":"m 776 76 q 810 11 792 31 q 744 -15 786 -15 q 699 -3 718 -15 q 674 31 679 8 l 589 306 l 225 306 l 156 74 q 147 28 147 43 q 156 -4 147 6 q 94 -15 126 -15 q 31 36 31 -15 q 44 99 31 54 l 339 963 q 431 981 385 981 q 497 939 485 981 l 776 76 m 569 372 l 406 906 l 246 372 l 569 372 m 622 1047 q 611 1030 619 1040 q 594 1017 603 1019 l 413 1125 l 229 1017 q 213 1030 222 1019 q 201 1047 204 1040 l 376 1206 q 411 1210 389 1210 q 447 1206 435 1210 l 622 1047 z "},"Ấ":{"ha":822,"x_min":31,"x_max":836,"o":"m 776 76 q 810 11 792 31 q 744 -15 786 -15 q 699 -3 718 -15 q 674 31 679 8 l 589 306 l 225 306 l 156 74 q 147 28 147 43 q 156 -4 147 6 q 94 -15 126 -15 q 31 36 31 -15 q 44 99 31 54 l 339 963 q 431 981 385 981 q 497 939 485 981 l 776 76 m 569 372 l 406 906 l 246 372 l 569 372 m 622 1047 q 611 1030 619 1040 q 594 1017 603 1019 l 413 1125 l 229 1017 q 213 1030 222 1019 q 201 1047 204 1040 l 376 1206 q 411 1210 389 1210 q 447 1206 435 1210 l 622 1047 m 596 1111 q 581 1126 589 1114 q 574 1144 574 1138 l 763 1303 q 805 1270 783 1293 q 836 1225 826 1247 l 596 1111 z "},"Ậ":{"ha":822,"x_min":31,"x_max":810,"o":"m 776 76 q 810 11 792 31 q 744 -15 786 -15 q 699 -3 718 -15 q 674 31 679 8 l 589 306 l 225 306 l 156 74 q 147 28 147 43 q 156 -4 147 6 q 94 -15 126 -15 q 31 36 31 -15 q 44 99 31 54 l 339 963 q 431 981 385 981 q 497 939 485 981 l 776 76 m 569 372 l 406 906 l 246 372 l 569 372 m 419 -208 q 372 -188 392 -208 q 351 -140 351 -168 q 372 -92 351 -112 q 419 -72 392 -72 q 467 -92 447 -72 q 488 -140 488 -112 q 467 -188 488 -168 q 419 -208 447 -208 m 622 1047 q 611 1030 619 1040 q 594 1017 603 1019 l 413 1125 l 229 1017 q 213 1030 222 1019 q 201 1047 204 1040 l 376 1206 q 411 1210 389 1210 q 447 1206 435 1210 l 622 1047 z "},"Ầ":{"ha":822,"x_min":31,"x_max":810,"o":"m 776 76 q 810 11 792 31 q 744 -15 786 -15 q 699 -3 718 -15 q 674 31 679 8 l 589 306 l 225 306 l 156 74 q 147 28 147 43 q 156 -4 147 6 q 94 -15 126 -15 q 31 36 31 -15 q 44 99 31 54 l 339 963 q 431 981 385 981 q 497 939 485 981 l 776 76 m 569 372 l 406 906 l 246 372 l 569 372 m 622 1047 q 611 1030 619 1040 q 594 1017 603 1019 l 413 1125 l 229 1017 q 213 1030 222 1019 q 201 1047 204 1040 l 376 1206 q 411 1210 389 1210 q 447 1206 435 1210 l 622 1047 m 490 1225 q 522 1270 500 1247 q 564 1303 543 1293 l 753 1144 q 745 1126 753 1138 q 731 1111 738 1114 l 490 1225 z "},"Ẩ":{"ha":822,"x_min":31,"x_max":810,"o":"m 776 76 q 810 11 792 31 q 744 -15 786 -15 q 699 -3 718 -15 q 674 31 679 8 l 589 306 l 225 306 l 156 74 q 147 28 147 43 q 156 -4 147 6 q 94 -15 126 -15 q 31 36 31 -15 q 44 99 31 54 l 339 963 q 431 981 385 981 q 497 939 485 981 l 776 76 m 569 372 l 406 906 l 246 372 l 569 372 m 622 1047 q 611 1030 619 1040 q 594 1017 603 1019 l 413 1125 l 229 1017 q 213 1030 222 1019 q 201 1047 204 1040 l 376 1206 q 411 1210 389 1210 q 447 1206 435 1210 l 622 1047 m 583 1153 q 638 1177 622 1165 q 653 1208 653 1189 q 624 1241 653 1232 q 558 1250 594 1250 l 556 1301 q 681 1285 628 1304 q 735 1214 735 1265 q 702 1150 735 1175 q 594 1114 669 1125 l 583 1153 z "},"Ẫ":{"ha":822,"x_min":31,"x_max":810,"o":"m 776 76 q 810 11 792 31 q 744 -15 786 -15 q 699 -3 718 -15 q 674 31 679 8 l 589 306 l 225 306 l 156 74 q 147 28 147 43 q 156 -4 147 6 q 94 -15 126 -15 q 31 36 31 -15 q 44 99 31 54 l 339 963 q 431 981 385 981 q 497 939 485 981 l 776 76 m 569 372 l 406 906 l 246 372 l 569 372 m 622 1047 q 611 1030 619 1040 q 594 1017 603 1019 l 413 1125 l 229 1017 q 213 1030 222 1019 q 201 1047 204 1040 l 376 1206 q 411 1210 389 1210 q 447 1206 435 1210 l 622 1047 m 610 1344 q 569 1263 599 1293 q 496 1232 540 1232 q 451 1240 472 1232 q 401 1263 429 1247 q 357 1283 375 1276 q 319 1290 339 1290 q 239 1233 260 1290 l 236 1233 q 206 1247 219 1233 q 247 1335 214 1307 q 325 1363 279 1363 q 368 1356 349 1363 q 419 1333 388 1349 q 467 1313 449 1319 q 507 1306 485 1306 q 549 1317 535 1306 q 576 1356 563 1329 q 610 1344 599 1356 z "},"Ä":{"ha":822,"x_min":31,"x_max":810,"o":"m 776 76 q 810 11 792 31 q 744 -15 786 -15 q 699 -3 718 -15 q 674 31 679 8 l 589 306 l 225 306 l 156 74 q 147 28 147 43 q 156 -4 147 6 q 94 -15 126 -15 q 31 36 31 -15 q 44 99 31 54 l 339 963 q 431 981 385 981 q 497 939 485 981 l 776 76 m 569 372 l 406 906 l 246 372 l 569 372 m 289 1053 q 238 1074 258 1053 q 218 1124 218 1094 q 238 1174 218 1153 q 289 1194 258 1194 q 338 1174 317 1194 q 360 1124 360 1153 q 338 1074 360 1094 q 289 1053 317 1053 m 546 1053 q 496 1074 517 1053 q 475 1124 475 1094 q 496 1174 475 1153 q 546 1194 517 1194 q 596 1174 575 1194 q 617 1124 617 1153 q 596 1074 617 1094 q 546 1053 575 1053 z "},"Ạ":{"ha":822,"x_min":31,"x_max":810,"o":"m 776 76 q 810 11 792 31 q 744 -15 786 -15 q 699 -3 718 -15 q 674 31 679 8 l 589 306 l 225 306 l 156 74 q 147 28 147 43 q 156 -4 147 6 q 94 -15 126 -15 q 31 36 31 -15 q 44 99 31 54 l 339 963 q 431 981 385 981 q 497 939 485 981 l 776 76 m 569 372 l 406 906 l 246 372 l 569 372 m 419 -208 q 372 -188 392 -208 q 351 -140 351 -168 q 372 -92 351 -112 q 419 -72 392 -72 q 467 -92 447 -72 q 488 -140 488 -112 q 467 -188 488 -168 q 419 -208 447 -208 z "},"À":{"ha":822,"x_min":31,"x_max":810,"o":"m 776 76 q 810 11 792 31 q 744 -15 786 -15 q 699 -3 718 -15 q 674 31 679 8 l 589 306 l 225 306 l 156 74 q 147 28 147 43 q 156 -4 147 6 q 94 -15 126 -15 q 31 36 31 -15 q 44 99 31 54 l 339 963 q 431 981 385 981 q 497 939 485 981 l 776 76 m 569 372 l 406 906 l 246 372 l 569 372 m 207 1136 q 238 1181 217 1158 q 281 1214 260 1204 l 469 1056 q 462 1037 469 1049 q 447 1022 454 1025 l 207 1136 z "},"Ả":{"ha":822,"x_min":31,"x_max":810,"o":"m 776 76 q 810 11 792 31 q 744 -15 786 -15 q 699 -3 718 -15 q 674 31 679 8 l 589 306 l 225 306 l 156 74 q 147 28 147 43 q 156 -4 147 6 q 94 -15 126 -15 q 31 36 31 -15 q 44 99 31 54 l 339 963 q 431 981 385 981 q 497 939 485 981 l 776 76 m 569 372 l 406 906 l 246 372 l 569 372 m 369 1060 q 424 1084 408 1072 q 439 1115 439 1096 q 410 1148 439 1139 q 344 1157 381 1157 l 342 1208 q 467 1192 414 1211 q 521 1121 521 1172 q 488 1057 521 1082 q 381 1021 456 1032 l 369 1060 z "},"Ā":{"ha":822,"x_min":31,"x_max":810,"o":"m 776 76 q 810 11 792 31 q 744 -15 786 -15 q 699 -3 718 -15 q 674 31 679 8 l 589 306 l 225 306 l 156 74 q 147 28 147 43 q 156 -4 147 6 q 94 -15 126 -15 q 31 36 31 -15 q 44 99 31 54 l 339 963 q 431 981 385 981 q 497 939 485 981 l 776 76 m 569 372 l 406 906 l 246 372 l 569 372 m 593 1133 q 599 1103 599 1114 q 593 1072 599 1094 l 236 1072 q 231 1103 231 1088 q 236 1133 231 1121 l 593 1133 z "},"Ą":{"ha":822,"x_min":31,"x_max":882,"o":"m 867 -119 q 882 -144 882 -131 q 881 -156 882 -151 q 822 -222 863 -196 q 726 -247 781 -247 q 638 -221 676 -247 q 600 -140 600 -194 q 703 -6 600 -57 q 674 31 679 6 l 589 306 l 225 306 l 156 74 q 147 28 147 43 q 156 -4 147 6 q 94 -15 126 -15 q 31 36 31 -15 q 44 99 31 54 l 339 963 q 431 981 385 981 q 497 939 485 981 l 776 76 q 810 11 792 31 q 776 -11 794 -4 q 704 -62 728 -35 q 681 -128 681 -90 q 698 -176 681 -157 q 750 -194 715 -194 q 820 -172 790 -194 q 867 -119 850 -150 m 569 372 l 406 906 l 246 372 l 569 372 z "},"Å":{"ha":822,"x_min":31,"x_max":810,"o":"m 776 76 q 810 11 792 31 q 744 -15 786 -15 q 699 -3 718 -15 q 674 31 679 8 l 589 306 l 225 306 l 156 74 q 147 28 147 43 q 156 -4 147 6 q 94 -15 126 -15 q 31 36 31 -15 q 44 99 31 54 l 339 963 q 431 981 385 981 q 497 939 485 981 l 776 76 m 569 372 l 406 906 l 246 372 l 569 372 m 419 1258 q 509 1228 475 1258 q 543 1146 543 1197 q 507 1060 542 1092 q 414 1029 472 1029 q 324 1059 358 1029 q 290 1140 290 1089 q 326 1226 290 1194 q 419 1258 361 1258 m 417 1218 q 369 1198 386 1218 q 351 1143 351 1178 q 369 1088 351 1108 q 417 1068 386 1068 q 465 1088 447 1068 q 482 1143 482 1108 q 465 1198 482 1178 q 417 1218 447 1218 z "},"Ã":{"ha":822,"x_min":31,"x_max":810,"o":"m 776 76 q 810 11 792 31 q 744 -15 786 -15 q 699 -3 718 -15 q 674 31 679 8 l 589 306 l 225 306 l 156 74 q 147 28 147 43 q 156 -4 147 6 q 94 -15 126 -15 q 31 36 31 -15 q 44 99 31 54 l 339 963 q 431 981 385 981 q 497 939 485 981 l 776 76 m 569 372 l 406 906 l 246 372 l 569 372 m 614 1158 q 574 1076 603 1107 q 500 1046 544 1046 q 455 1053 476 1046 q 406 1076 433 1061 q 361 1097 379 1090 q 324 1104 343 1104 q 243 1047 264 1104 l 240 1047 q 210 1061 224 1047 q 251 1149 218 1121 q 329 1176 283 1176 q 372 1169 353 1176 q 424 1147 392 1163 q 471 1126 453 1133 q 511 1119 489 1119 q 553 1131 539 1119 q 581 1169 567 1143 q 614 1158 603 1169 z "},"Æ":{"ha":1161,"x_min":31,"x_max":1083,"o":"m 1060 100 q 1077 78 1071 94 q 1083 44 1083 63 q 1076 13 1083 25 q 1054 0 1068 0 l 614 0 q 567 17 585 0 q 550 63 550 33 l 550 306 l 271 306 l 157 74 q 149 28 149 56 q 157 -4 149 8 q 97 -15 131 -15 q 49 0 67 -15 q 31 42 31 15 q 47 99 31 68 l 500 947 q 577 958 531 953 q 657 963 624 963 l 1046 963 q 1061 953 1056 963 q 1067 931 1067 944 q 1058 890 1067 911 q 1035 864 1049 869 q 660 900 842 899 l 660 539 l 1001 539 q 1006 507 1006 525 q 1001 472 1006 489 l 661 472 l 661 61 q 1060 100 835 63 m 550 372 l 549 790 q 544 861 549 836 l 304 372 l 550 372 z "},"B":{"ha":804,"x_min":115,"x_max":722,"o":"m 503 510 q 666 430 610 493 q 722 261 722 367 q 625 60 722 119 q 333 0 528 0 l 200 0 q 153 17 171 0 q 133 63 135 33 l 133 801 q 129 878 133 835 q 115 950 125 922 q 314 981 174 981 q 583 924 493 981 q 674 744 674 868 q 629 597 674 658 q 503 510 585 535 m 308 931 q 246 928 260 931 l 246 531 l 363 531 q 502 583 449 529 q 556 738 556 638 q 498 884 556 838 q 308 931 440 931 m 338 51 q 535 101 469 51 q 601 260 601 150 q 534 431 601 382 q 338 479 467 479 l 246 479 l 246 51 l 338 51 z "},"C":{"ha":828,"x_min":82,"x_max":760,"o":"m 450 -18 q 178 111 275 -18 q 82 481 82 240 q 181 851 82 722 q 457 981 279 981 q 594 962 531 981 q 695 910 657 943 q 733 840 733 878 q 708 794 733 814 q 643 779 683 775 q 584 890 632 851 q 458 929 536 929 q 269 816 333 929 q 206 481 206 703 q 269 147 206 260 q 456 33 333 33 q 592 81 533 33 q 667 213 650 128 l 683 214 q 738 199 715 214 q 760 157 760 185 q 716 71 760 111 q 601 6 672 31 q 450 -18 529 -18 z "},"Ć":{"ha":828,"x_min":82,"x_max":760,"o":"m 450 -18 q 178 111 275 -18 q 82 481 82 240 q 181 851 82 722 q 457 981 279 981 q 594 962 531 981 q 695 910 657 943 q 733 840 733 878 q 708 794 733 814 q 643 779 683 775 q 584 890 632 851 q 458 929 536 929 q 269 816 333 929 q 206 481 206 703 q 269 147 206 260 q 456 33 333 33 q 592 81 533 33 q 667 213 650 128 l 683 214 q 738 199 715 214 q 760 157 760 185 q 716 71 760 111 q 601 6 672 31 q 450 -18 529 -18 m 418 1022 q 403 1037 411 1025 q 396 1056 396 1049 l 585 1214 q 627 1181 606 1204 q 658 1136 649 1158 l 418 1022 z "},"Č":{"ha":828,"x_min":82,"x_max":760,"o":"m 450 -18 q 178 111 275 -18 q 82 481 82 240 q 181 851 82 722 q 457 981 279 981 q 594 962 531 981 q 695 910 657 943 q 733 840 733 878 q 708 794 733 814 q 643 779 683 775 q 584 890 632 851 q 458 929 536 929 q 269 816 333 929 q 206 481 206 703 q 269 147 206 260 q 456 33 333 33 q 592 81 533 33 q 667 213 650 128 l 683 214 q 738 199 715 214 q 760 157 760 185 q 716 71 760 111 q 601 6 672 31 q 450 -18 529 -18 m 489 1029 q 453 1025 476 1025 q 418 1029 431 1025 l 243 1188 q 255 1205 246 1194 q 271 1218 264 1215 l 454 1110 l 636 1218 q 652 1205 643 1215 q 664 1188 661 1194 l 489 1029 z "},"Ç":{"ha":828,"x_min":82,"x_max":760,"o":"m 760 157 q 718 72 760 111 q 607 8 676 32 q 460 -18 538 -17 l 450 -67 q 547 -94 513 -67 q 582 -168 582 -121 q 542 -254 582 -221 q 438 -287 503 -287 q 315 -243 354 -287 l 315 -237 q 320 -216 315 -228 q 332 -200 325 -204 q 345 -210 335 -201 q 374 -226 356 -219 q 415 -232 393 -232 q 466 -215 447 -232 q 485 -169 485 -199 q 465 -124 485 -142 q 404 -106 446 -106 l 385 -107 l 401 -15 q 165 131 249 3 q 82 481 82 258 q 181 851 82 722 q 457 981 279 981 q 594 962 531 981 q 695 910 657 943 q 733 840 733 878 q 708 794 733 814 q 643 779 683 775 q 584 890 632 851 q 458 929 536 929 q 269 816 333 929 q 206 481 206 703 q 269 147 206 260 q 456 33 333 33 q 592 81 533 33 q 667 213 650 128 l 683 214 q 738 199 715 214 q 760 157 760 185 z "},"Ĉ":{"ha":828,"x_min":82,"x_max":760,"o":"m 450 -18 q 178 111 275 -18 q 82 481 82 240 q 181 851 82 722 q 457 981 279 981 q 594 962 531 981 q 695 910 657 943 q 733 840 733 878 q 708 794 733 814 q 643 779 683 775 q 584 890 632 851 q 458 929 536 929 q 269 816 333 929 q 206 481 206 703 q 269 147 206 260 q 456 33 333 33 q 592 81 533 33 q 667 213 650 128 l 683 214 q 738 199 715 214 q 760 157 760 185 q 716 71 760 111 q 601 6 672 31 q 450 -18 529 -18 m 661 1047 q 650 1030 658 1040 q 633 1017 642 1019 l 451 1125 l 268 1017 q 252 1030 261 1019 q 240 1047 243 1040 l 415 1206 q 450 1210 428 1210 q 486 1206 474 1210 l 661 1047 z "},"Ċ":{"ha":828,"x_min":82,"x_max":760,"o":"m 450 -18 q 178 111 275 -18 q 82 481 82 240 q 181 851 82 722 q 457 981 279 981 q 594 962 531 981 q 695 910 657 943 q 733 840 733 878 q 708 794 733 814 q 643 779 683 775 q 584 890 632 851 q 458 929 536 929 q 269 816 333 929 q 206 481 206 703 q 269 147 206 260 q 456 33 333 33 q 592 81 533 33 q 667 213 650 128 l 683 214 q 738 199 715 214 q 760 157 760 185 q 716 71 760 111 q 601 6 672 31 q 450 -18 529 -18 m 454 1046 q 405 1067 426 1046 q 383 1117 383 1088 q 405 1167 383 1146 q 454 1188 426 1188 q 505 1167 483 1188 q 526 1117 526 1146 q 505 1067 526 1088 q 454 1046 483 1046 z "},"D":{"ha":890,"x_min":115,"x_max":807,"o":"m 196 0 q 149 17 165 0 q 132 61 132 33 l 129 801 q 127 900 129 860 q 115 968 125 940 q 404 978 221 978 q 703 855 600 978 q 807 488 807 732 q 410 0 807 0 l 196 0 m 404 51 q 615 153 544 51 q 685 481 685 254 q 614 817 685 708 q 404 925 543 925 l 240 925 l 242 51 l 404 51 z "},"Ð":{"ha":885,"x_min":28,"x_max":807,"o":"m 404 978 q 703 855 600 978 q 807 488 807 732 q 410 0 807 0 l 196 0 q 149 17 165 0 q 132 61 132 33 l 131 458 l 33 458 q 28 485 28 478 q 33 510 28 493 l 131 510 l 129 801 q 127 900 129 860 q 115 968 125 940 q 404 978 221 978 m 404 51 q 615 153 544 51 q 685 481 685 254 q 614 817 685 708 q 404 925 543 925 l 240 925 l 240 510 l 450 510 q 456 485 456 499 q 450 458 456 471 l 242 458 l 242 51 l 404 51 z "},"Ď":{"ha":890,"x_min":115,"x_max":807,"o":"m 196 0 q 149 17 165 0 q 132 61 132 33 l 129 801 q 127 900 129 860 q 115 968 125 940 q 404 978 221 978 q 703 855 600 978 q 807 488 807 732 q 410 0 807 0 l 196 0 m 404 51 q 615 153 544 51 q 685 481 685 254 q 614 817 685 708 q 404 925 543 925 l 240 925 l 242 51 l 404 51 m 464 1029 q 428 1025 451 1025 q 393 1029 406 1025 l 218 1188 q 230 1205 221 1194 q 246 1218 239 1215 l 429 1110 l 611 1218 q 627 1205 618 1215 q 639 1188 636 1194 l 464 1029 z "},"Đ":{"ha":885,"x_min":28,"x_max":807,"o":"m 404 978 q 703 855 600 978 q 807 488 807 732 q 410 0 807 0 l 196 0 q 149 17 165 0 q 132 61 132 33 l 131 458 l 33 458 q 28 485 28 478 q 33 510 28 493 l 131 510 l 129 801 q 127 900 129 860 q 115 968 125 940 q 404 978 221 978 m 404 51 q 615 153 544 51 q 685 481 685 254 q 614 817 685 708 q 404 925 543 925 l 240 925 l 240 510 l 450 510 q 456 485 456 499 q 450 458 456 471 l 242 458 l 242 51 l 404 51 z "},"Ḍ":{"ha":890,"x_min":115,"x_max":807,"o":"m 196 0 q 149 17 165 0 q 132 61 132 33 l 129 801 q 127 900 129 860 q 115 968 125 940 q 404 978 221 978 q 703 855 600 978 q 807 488 807 732 q 410 0 807 0 l 196 0 m 404 51 q 615 153 544 51 q 685 481 685 254 q 614 817 685 708 q 404 925 543 925 l 240 925 l 242 51 l 404 51 m 404 -208 q 356 -188 376 -208 q 336 -140 336 -168 q 356 -92 336 -112 q 404 -72 376 -72 q 452 -92 432 -72 q 472 -140 472 -112 q 452 -188 472 -168 q 404 -208 432 -208 z "},"Ḏ":{"ha":890,"x_min":115,"x_max":807,"o":"m 196 0 q 149 17 165 0 q 132 61 132 33 l 129 801 q 127 900 129 860 q 115 968 125 940 q 404 978 221 978 q 703 855 600 978 q 807 488 807 732 q 410 0 807 0 l 196 0 m 404 51 q 615 153 544 51 q 685 481 685 254 q 614 817 685 708 q 404 925 543 925 l 240 925 l 242 51 l 404 51 m 589 -100 q 593 -128 593 -115 q 589 -156 593 -143 l 231 -156 q 225 -128 225 -144 q 231 -100 225 -112 l 589 -100 z "},"E":{"ha":746,"x_min":115,"x_max":668,"o":"m 644 100 q 662 78 656 94 q 668 44 668 63 q 661 13 668 25 q 640 0 654 0 l 199 0 q 152 17 169 0 q 135 63 135 33 l 133 790 q 115 933 133 881 q 155 956 135 950 q 211 963 175 963 l 631 963 q 646 953 640 963 q 651 931 651 944 q 642 890 651 911 q 619 864 633 869 q 244 900 421 899 l 244 539 l 586 539 q 590 506 590 522 q 586 472 590 489 l 246 472 l 246 61 q 644 100 419 63 z "},"É":{"ha":746,"x_min":115,"x_max":668,"o":"m 644 100 q 662 78 656 94 q 668 44 668 63 q 661 13 668 25 q 640 0 654 0 l 199 0 q 152 17 169 0 q 135 63 135 33 l 133 790 q 115 933 133 881 q 155 956 135 950 q 211 963 175 963 l 631 963 q 646 953 640 963 q 651 931 651 944 q 642 890 651 911 q 619 864 633 869 q 244 900 421 899 l 244 539 l 586 539 q 590 506 590 522 q 586 472 590 489 l 246 472 l 246 61 q 644 100 419 63 m 349 1022 q 334 1037 342 1025 q 326 1056 326 1049 l 515 1214 q 558 1181 536 1204 q 589 1136 579 1158 l 349 1022 z "},"Ĕ":{"ha":746,"x_min":115,"x_max":668,"o":"m 644 100 q 662 78 656 94 q 668 44 668 63 q 661 13 668 25 q 640 0 654 0 l 199 0 q 152 17 169 0 q 135 63 135 33 l 133 790 q 115 933 133 881 q 155 956 135 950 q 211 963 175 963 l 631 963 q 646 953 640 963 q 651 931 651 944 q 642 890 651 911 q 619 864 633 869 q 244 900 421 899 l 244 539 l 586 539 q 590 506 590 522 q 586 472 590 489 l 246 472 l 246 61 q 644 100 419 63 m 568 1171 q 501 1064 547 1104 q 383 1024 454 1024 q 267 1064 311 1024 q 204 1167 224 1104 l 251 1185 q 304 1117 268 1140 q 390 1093 340 1093 q 474 1117 440 1093 q 525 1183 508 1142 l 568 1171 z "},"Ě":{"ha":746,"x_min":115,"x_max":668,"o":"m 644 100 q 662 78 656 94 q 668 44 668 63 q 661 13 668 25 q 640 0 654 0 l 199 0 q 152 17 169 0 q 135 63 135 33 l 133 790 q 115 933 133 881 q 155 956 135 950 q 211 963 175 963 l 631 963 q 646 953 640 963 q 651 931 651 944 q 642 890 651 911 q 619 864 633 869 q 244 900 421 899 l 244 539 l 586 539 q 590 506 590 522 q 586 472 590 489 l 246 472 l 246 61 q 644 100 419 63 m 421 1029 q 385 1025 408 1025 q 350 1029 363 1025 l 175 1188 q 187 1205 178 1194 q 203 1218 196 1215 l 386 1110 l 568 1218 q 584 1205 575 1215 q 596 1188 593 1194 l 421 1029 z "},"Ê":{"ha":746,"x_min":115,"x_max":668,"o":"m 644 100 q 662 78 656 94 q 668 44 668 63 q 661 13 668 25 q 640 0 654 0 l 199 0 q 152 17 169 0 q 135 63 135 33 l 133 790 q 115 933 133 881 q 155 956 135 950 q 211 963 175 963 l 631 963 q 646 953 640 963 q 651 931 651 944 q 642 890 651 911 q 619 864 633 869 q 244 900 421 899 l 244 539 l 586 539 q 590 506 590 522 q 586 472 590 489 l 246 472 l 246 61 q 644 100 419 63 m 593 1047 q 582 1030 590 1040 q 565 1017 574 1019 l 383 1125 l 200 1017 q 184 1030 193 1019 q 172 1047 175 1040 l 347 1206 q 382 1210 360 1210 q 418 1206 406 1210 l 593 1047 z "},"Ế":{"ha":746,"x_min":115,"x_max":814,"o":"m 644 100 q 662 78 656 94 q 668 44 668 63 q 661 13 668 25 q 640 0 654 0 l 199 0 q 152 17 169 0 q 135 63 135 33 l 133 790 q 115 933 133 881 q 155 956 135 950 q 211 963 175 963 l 631 963 q 646 953 640 963 q 651 931 651 944 q 642 890 651 911 q 619 864 633 869 q 244 900 421 899 l 244 539 l 586 539 q 590 506 590 522 q 586 472 590 489 l 246 472 l 246 61 q 644 100 419 63 m 593 1047 q 582 1030 590 1040 q 565 1017 574 1019 l 383 1125 l 200 1017 q 184 1030 193 1019 q 172 1047 175 1040 l 347 1206 q 382 1210 360 1210 q 418 1206 406 1210 l 593 1047 m 574 1113 q 559 1127 567 1115 q 551 1146 551 1139 l 740 1304 q 783 1272 761 1294 q 814 1226 804 1249 l 574 1113 z "},"Ệ":{"ha":746,"x_min":115,"x_max":668,"o":"m 644 100 q 662 78 656 94 q 668 44 668 63 q 661 13 668 25 q 640 0 654 0 l 199 0 q 152 17 169 0 q 135 63 135 33 l 133 790 q 115 933 133 881 q 155 956 135 950 q 211 963 175 963 l 631 963 q 646 953 640 963 q 651 931 651 944 q 642 890 651 911 q 619 864 633 869 q 244 900 421 899 l 244 539 l 586 539 q 590 506 590 522 q 586 472 590 489 l 246 472 l 246 61 q 644 100 419 63 m 376 -208 q 328 -188 349 -208 q 308 -140 308 -168 q 328 -92 308 -112 q 376 -72 349 -72 q 424 -92 404 -72 q 444 -140 444 -112 q 424 -188 444 -168 q 376 -208 404 -208 m 593 1047 q 582 1030 590 1040 q 565 1017 574 1019 l 383 1125 l 200 1017 q 184 1030 193 1019 q 172 1047 175 1040 l 347 1206 q 382 1210 360 1210 q 418 1206 406 1210 l 593 1047 z "},"Ề":{"ha":746,"x_min":115,"x_max":725,"o":"m 644 100 q 662 78 656 94 q 668 44 668 63 q 661 13 668 25 q 640 0 654 0 l 199 0 q 152 17 169 0 q 135 63 135 33 l 133 790 q 115 933 133 881 q 155 956 135 950 q 211 963 175 963 l 631 963 q 646 953 640 963 q 651 931 651 944 q 642 890 651 911 q 619 864 633 869 q 244 900 421 899 l 244 539 l 586 539 q 590 506 590 522 q 586 472 590 489 l 246 472 l 246 61 q 644 100 419 63 m 593 1047 q 582 1030 590 1040 q 565 1017 574 1019 l 383 1125 l 200 1017 q 184 1030 193 1019 q 172 1047 175 1040 l 347 1206 q 382 1210 360 1210 q 418 1206 406 1210 l 593 1047 m 463 1222 q 494 1267 472 1244 q 536 1300 515 1290 l 725 1142 q 717 1123 725 1135 q 703 1108 710 1111 l 463 1222 z "},"Ể":{"ha":746,"x_min":115,"x_max":717,"o":"m 644 100 q 662 78 656 94 q 668 44 668 63 q 661 13 668 25 q 640 0 654 0 l 199 0 q 152 17 169 0 q 135 63 135 33 l 133 790 q 115 933 133 881 q 155 956 135 950 q 211 963 175 963 l 631 963 q 646 953 640 963 q 651 931 651 944 q 642 890 651 911 q 619 864 633 869 q 244 900 421 899 l 244 539 l 586 539 q 590 506 590 522 q 586 472 590 489 l 246 472 l 246 61 q 644 100 419 63 m 593 1047 q 582 1030 590 1040 q 565 1017 574 1019 l 383 1125 l 200 1017 q 184 1030 193 1019 q 172 1047 175 1040 l 347 1206 q 382 1210 360 1210 q 418 1206 406 1210 l 593 1047 m 565 1151 q 619 1176 604 1164 q 635 1207 635 1188 q 606 1240 635 1231 q 540 1249 576 1249 l 538 1300 q 663 1283 610 1303 q 717 1213 717 1264 q 684 1149 717 1174 q 576 1113 651 1124 l 565 1151 z "},"Ễ":{"ha":746,"x_min":115,"x_max":668,"o":"m 644 100 q 662 78 656 94 q 668 44 668 63 q 661 13 668 25 q 640 0 654 0 l 199 0 q 152 17 169 0 q 135 63 135 33 l 133 790 q 115 933 133 881 q 155 956 135 950 q 211 963 175 963 l 631 963 q 646 953 640 963 q 651 931 651 944 q 642 890 651 911 q 619 864 633 869 q 244 900 421 899 l 244 539 l 586 539 q 590 506 590 522 q 586 472 590 489 l 246 472 l 246 61 q 644 100 419 63 m 593 1047 q 582 1030 590 1040 q 565 1017 574 1019 l 383 1125 l 200 1017 q 184 1030 193 1019 q 172 1047 175 1040 l 347 1206 q 382 1210 360 1210 q 418 1206 406 1210 l 593 1047 m 581 1344 q 540 1263 569 1293 q 467 1232 511 1232 q 422 1240 443 1232 q 372 1263 400 1247 q 328 1283 346 1276 q 290 1290 310 1290 q 210 1233 231 1290 l 207 1233 q 176 1247 190 1233 q 217 1335 185 1307 q 296 1363 250 1363 q 339 1356 319 1363 q 390 1333 358 1349 q 438 1313 419 1319 q 478 1306 456 1306 q 519 1317 506 1306 q 547 1356 533 1329 q 581 1344 569 1356 z "},"Ë":{"ha":746,"x_min":115,"x_max":668,"o":"m 644 100 q 662 78 656 94 q 668 44 668 63 q 661 13 668 25 q 640 0 654 0 l 199 0 q 152 17 169 0 q 135 63 135 33 l 133 790 q 115 933 133 881 q 155 956 135 950 q 211 963 175 963 l 631 963 q 646 953 640 963 q 651 931 651 944 q 642 890 651 911 q 619 864 633 869 q 244 900 421 899 l 244 539 l 586 539 q 590 506 590 522 q 586 472 590 489 l 246 472 l 246 61 q 644 100 419 63 m 260 1053 q 209 1074 229 1053 q 189 1124 189 1094 q 209 1174 189 1153 q 260 1194 229 1194 q 309 1174 288 1194 q 331 1124 331 1153 q 309 1074 331 1094 q 260 1053 288 1053 m 517 1053 q 467 1074 488 1053 q 446 1124 446 1094 q 467 1174 446 1153 q 517 1194 488 1194 q 567 1174 546 1194 q 588 1124 588 1153 q 567 1074 588 1094 q 517 1053 546 1053 z "},"Ė":{"ha":746,"x_min":115,"x_max":668,"o":"m 644 100 q 662 78 656 94 q 668 44 668 63 q 661 13 668 25 q 640 0 654 0 l 199 0 q 152 17 169 0 q 135 63 135 33 l 133 790 q 115 933 133 881 q 155 956 135 950 q 211 963 175 963 l 631 963 q 646 953 640 963 q 651 931 651 944 q 642 890 651 911 q 619 864 633 869 q 244 900 421 899 l 244 539 l 586 539 q 590 506 590 522 q 586 472 590 489 l 246 472 l 246 61 q 644 100 419 63 m 385 1046 q 335 1067 357 1046 q 314 1117 314 1088 q 335 1167 314 1146 q 385 1188 357 1188 q 435 1167 414 1188 q 457 1117 457 1146 q 435 1067 457 1088 q 385 1046 414 1046 z "},"Ẹ":{"ha":746,"x_min":115,"x_max":668,"o":"m 644 100 q 662 78 656 94 q 668 44 668 63 q 661 13 668 25 q 640 0 654 0 l 199 0 q 152 17 169 0 q 135 63 135 33 l 133 790 q 115 933 133 881 q 155 956 135 950 q 211 963 175 963 l 631 963 q 646 953 640 963 q 651 931 651 944 q 642 890 651 911 q 619 864 633 869 q 244 900 421 899 l 244 539 l 586 539 q 590 506 590 522 q 586 472 590 489 l 246 472 l 246 61 q 644 100 419 63 m 376 -208 q 328 -188 349 -208 q 308 -140 308 -168 q 328 -92 308 -112 q 376 -72 349 -72 q 424 -92 404 -72 q 444 -140 444 -112 q 424 -188 444 -168 q 376 -208 404 -208 z "},"È":{"ha":746,"x_min":115,"x_max":668,"o":"m 644 100 q 662 78 656 94 q 668 44 668 63 q 661 13 668 25 q 640 0 654 0 l 199 0 q 152 17 169 0 q 135 63 135 33 l 133 790 q 115 933 133 881 q 155 956 135 950 q 211 963 175 963 l 631 963 q 646 953 640 963 q 651 931 651 944 q 642 890 651 911 q 619 864 633 869 q 244 900 421 899 l 244 539 l 586 539 q 590 506 590 522 q 586 472 590 489 l 246 472 l 246 61 q 644 100 419 63 m 179 1136 q 210 1181 189 1158 q 253 1214 232 1204 l 442 1056 q 434 1037 442 1049 q 419 1022 426 1025 l 179 1136 z "},"Ẻ":{"ha":746,"x_min":115,"x_max":668,"o":"m 644 100 q 662 78 656 94 q 668 44 668 63 q 661 13 668 25 q 640 0 654 0 l 199 0 q 152 17 169 0 q 135 63 135 33 l 133 790 q 115 933 133 881 q 155 956 135 950 q 211 963 175 963 l 631 963 q 646 953 640 963 q 651 931 651 944 q 642 890 651 911 q 619 864 633 869 q 244 900 421 899 l 244 539 l 586 539 q 590 506 590 522 q 586 472 590 489 l 246 472 l 246 61 q 644 100 419 63 m 340 1060 q 394 1084 379 1072 q 410 1115 410 1096 q 381 1148 410 1139 q 315 1157 351 1157 l 313 1208 q 438 1192 385 1211 q 492 1121 492 1172 q 459 1057 492 1082 q 351 1021 426 1032 l 340 1060 z "},"Ē":{"ha":746,"x_min":115,"x_max":668,"o":"m 644 100 q 662 78 656 94 q 668 44 668 63 q 661 13 668 25 q 640 0 654 0 l 199 0 q 152 17 169 0 q 135 63 135 33 l 133 790 q 115 933 133 881 q 155 956 135 950 q 211 963 175 963 l 631 963 q 646 953 640 963 q 651 931 651 944 q 642 890 651 911 q 619 864 633 869 q 244 900 421 899 l 244 539 l 586 539 q 590 506 590 522 q 586 472 590 489 l 246 472 l 246 61 q 644 100 419 63 m 564 1133 q 569 1103 569 1114 q 564 1072 569 1094 l 207 1072 q 201 1103 201 1088 q 207 1133 201 1121 l 564 1133 z "},"Ę":{"ha":746,"x_min":115,"x_max":693,"o":"m 678 -114 q 693 -139 693 -125 q 692 -150 693 -146 q 633 -216 674 -190 q 538 -242 592 -242 q 449 -215 488 -242 q 411 -135 411 -189 q 514 0 411 -53 l 199 0 q 152 17 169 0 q 135 63 135 33 l 133 790 q 115 933 133 881 q 155 956 135 950 q 211 963 175 963 l 631 963 q 646 953 640 963 q 651 931 651 944 q 642 890 651 911 q 619 864 633 869 q 244 900 421 899 l 244 539 l 586 539 q 590 506 590 522 q 586 472 590 489 l 246 472 l 246 61 q 644 100 419 63 q 662 78 656 94 q 668 44 668 63 q 661 13 668 25 q 640 0 654 0 l 597 0 q 518 -55 544 -26 q 492 -122 492 -83 q 509 -170 492 -151 q 561 -189 526 -189 q 631 -167 601 -189 q 678 -114 661 -144 z "},"Ẽ":{"ha":746,"x_min":115,"x_max":668,"o":"m 644 100 q 662 78 656 94 q 668 44 668 63 q 661 13 668 25 q 640 0 654 0 l 199 0 q 152 17 169 0 q 135 63 135 33 l 133 790 q 115 933 133 881 q 155 956 135 950 q 211 963 175 963 l 631 963 q 646 953 640 963 q 651 931 651 944 q 642 890 651 911 q 619 864 633 869 q 244 900 421 899 l 244 539 l 586 539 q 590 506 590 522 q 586 472 590 489 l 246 472 l 246 61 q 644 100 419 63 m 585 1158 q 544 1076 574 1107 q 471 1046 515 1046 q 426 1053 447 1046 q 376 1076 404 1061 q 332 1097 350 1090 q 294 1104 314 1104 q 214 1047 235 1104 l 211 1047 q 181 1061 194 1047 q 222 1149 189 1121 q 300 1176 254 1176 q 343 1169 324 1176 q 394 1147 363 1163 q 442 1126 424 1133 q 482 1119 460 1119 q 524 1131 510 1119 q 551 1169 538 1143 q 585 1158 574 1169 z "},"F":{"ha":719,"x_min":115,"x_max":651,"o":"m 631 963 q 646 953 640 963 q 651 931 651 944 q 642 890 651 911 q 619 864 633 869 q 244 900 421 899 l 244 533 l 585 533 q 589 500 589 517 q 585 465 589 481 l 246 465 l 246 158 q 264 10 246 57 q 199 -15 235 -15 q 153 1 171 -15 q 135 46 135 18 l 133 790 q 115 933 133 881 q 155 956 135 950 q 211 963 175 963 l 631 963 z "},"G":{"ha":868,"x_min":82,"x_max":790,"o":"m 467 -18 q 181 110 281 -18 q 82 481 82 239 q 183 851 82 722 q 469 981 285 981 q 601 962 539 981 q 702 911 664 943 q 740 843 740 879 q 715 794 740 814 q 650 779 690 775 q 592 890 639 851 q 472 929 544 929 q 206 481 206 929 q 471 33 206 33 q 633 116 590 33 q 676 307 676 199 q 574 497 676 475 q 599 528 579 518 q 647 539 618 539 q 750 488 710 539 q 790 328 790 438 q 756 157 790 236 q 649 30 721 78 q 467 -18 576 -18 z "},"Ğ":{"ha":868,"x_min":82,"x_max":790,"o":"m 467 -18 q 181 110 281 -18 q 82 481 82 239 q 183 851 82 722 q 469 981 285 981 q 601 962 539 981 q 702 911 664 943 q 740 843 740 879 q 715 794 740 814 q 650 779 690 775 q 592 890 639 851 q 472 929 544 929 q 206 481 206 929 q 471 33 206 33 q 633 116 590 33 q 676 307 676 199 q 574 497 676 475 q 599 528 579 518 q 647 539 618 539 q 750 488 710 539 q 790 328 790 438 q 756 157 790 236 q 649 30 721 78 q 467 -18 576 -18 m 643 1171 q 576 1064 622 1104 q 458 1024 529 1024 q 342 1064 386 1024 q 279 1167 299 1104 l 326 1185 q 379 1117 343 1140 q 465 1093 415 1093 q 549 1117 515 1093 q 600 1183 583 1142 l 643 1171 z "},"Ǧ":{"ha":868,"x_min":82,"x_max":790,"o":"m 467 -18 q 181 110 281 -18 q 82 481 82 239 q 183 851 82 722 q 469 981 285 981 q 601 962 539 981 q 702 911 664 943 q 740 843 740 879 q 715 794 740 814 q 650 779 690 775 q 592 890 639 851 q 472 929 544 929 q 206 481 206 929 q 471 33 206 33 q 633 116 590 33 q 676 307 676 199 q 574 497 676 475 q 599 528 579 518 q 647 539 618 539 q 750 488 710 539 q 790 328 790 438 q 756 157 790 236 q 649 30 721 78 q 467 -18 576 -18 m 496 1029 q 460 1025 483 1025 q 425 1029 438 1025 l 250 1188 q 262 1205 253 1194 q 278 1218 271 1215 l 461 1110 l 643 1218 q 659 1205 650 1215 q 671 1188 668 1194 l 496 1029 z "},"Ĝ":{"ha":868,"x_min":82,"x_max":790,"o":"m 467 -18 q 181 110 281 -18 q 82 481 82 239 q 183 851 82 722 q 469 981 285 981 q 601 962 539 981 q 702 911 664 943 q 740 843 740 879 q 715 794 740 814 q 650 779 690 775 q 592 890 639 851 q 472 929 544 929 q 206 481 206 929 q 471 33 206 33 q 633 116 590 33 q 676 307 676 199 q 574 497 676 475 q 599 528 579 518 q 647 539 618 539 q 750 488 710 539 q 790 328 790 438 q 756 157 790 236 q 649 30 721 78 q 467 -18 576 -18 m 668 1047 q 657 1030 665 1040 q 640 1017 649 1019 l 458 1125 l 275 1017 q 259 1030 268 1019 q 247 1047 250 1040 l 422 1206 q 457 1210 435 1210 q 493 1206 481 1210 l 668 1047 z "},"Ģ":{"ha":868,"x_min":82,"x_max":790,"o":"m 467 -18 q 181 110 281 -18 q 82 481 82 239 q 183 851 82 722 q 469 981 285 981 q 601 962 539 981 q 702 911 664 943 q 740 843 740 879 q 715 794 740 814 q 650 779 690 775 q 592 890 639 851 q 472 929 544 929 q 206 481 206 929 q 471 33 206 33 q 633 116 590 33 q 676 307 676 199 q 574 497 676 475 q 599 528 579 518 q 647 539 618 539 q 750 488 710 539 q 790 328 790 438 q 756 157 790 236 q 649 30 721 78 q 467 -18 576 -18 m 456 -317 q 414 -292 432 -311 q 457 -199 457 -242 q 439 -147 457 -162 q 393 -122 421 -131 q 415 -71 393 -94 q 471 -47 436 -47 q 527 -70 504 -47 q 550 -143 550 -93 q 456 -317 550 -235 z "},"Ġ":{"ha":868,"x_min":82,"x_max":790,"o":"m 467 -18 q 181 110 281 -18 q 82 481 82 239 q 183 851 82 722 q 469 981 285 981 q 601 962 539 981 q 702 911 664 943 q 740 843 740 879 q 715 794 740 814 q 650 779 690 775 q 592 890 639 851 q 472 929 544 929 q 206 481 206 929 q 471 33 206 33 q 633 116 590 33 q 676 307 676 199 q 574 497 676 475 q 599 528 579 518 q 647 539 618 539 q 750 488 710 539 q 790 328 790 438 q 756 157 790 236 q 649 30 721 78 q 467 -18 576 -18 m 461 1046 q 412 1067 433 1046 q 390 1117 390 1088 q 412 1167 390 1146 q 461 1188 433 1188 q 512 1167 490 1188 q 533 1117 533 1146 q 512 1067 533 1088 q 461 1046 490 1046 z "},"Ḡ":{"ha":868,"x_min":82,"x_max":790,"o":"m 467 -18 q 181 110 281 -18 q 82 481 82 239 q 183 851 82 722 q 469 981 285 981 q 601 962 539 981 q 702 911 664 943 q 740 843 740 879 q 715 794 740 814 q 650 779 690 775 q 592 890 639 851 q 472 929 544 929 q 206 481 206 929 q 471 33 206 33 q 633 116 590 33 q 676 307 676 199 q 574 497 676 475 q 599 528 579 518 q 647 539 618 539 q 750 488 710 539 q 790 328 790 438 q 756 157 790 236 q 649 30 721 78 q 467 -18 576 -18 m 640 1133 q 646 1103 646 1114 q 640 1072 646 1094 l 283 1072 q 278 1103 278 1088 q 283 1133 278 1121 l 640 1133 z "},"H":{"ha":944,"x_min":115,"x_max":829,"o":"m 811 158 q 829 10 811 57 q 764 -15 800 -15 q 718 1 736 -15 q 700 46 700 18 l 699 475 l 246 475 l 246 158 q 264 10 246 57 q 199 -15 235 -15 q 153 1 171 -15 q 135 46 135 18 l 133 801 q 115 950 133 897 q 181 975 144 975 q 228 959 210 975 q 246 914 246 943 l 246 542 l 699 542 l 699 801 q 681 950 699 897 q 746 975 710 975 q 793 959 775 975 q 811 914 811 943 l 811 158 z "},"Ħ":{"ha":944,"x_min":57,"x_max":882,"o":"m 811 743 l 811 158 q 829 10 811 57 q 764 -15 800 -15 q 718 1 736 -15 q 700 46 700 18 l 699 475 l 246 475 l 246 158 q 264 10 246 57 q 199 -15 235 -15 q 153 1 171 -15 q 135 46 135 18 l 133 743 l 63 743 q 57 769 57 763 q 63 794 57 778 l 133 794 l 133 801 q 115 950 133 897 q 181 975 144 975 q 228 959 210 975 q 246 914 246 943 l 246 794 l 699 794 l 699 801 q 681 950 699 897 q 746 975 710 975 q 793 959 775 975 q 811 914 811 943 l 811 794 l 876 794 q 882 769 882 783 q 876 743 882 756 l 811 743 m 699 743 l 246 743 l 246 542 l 699 542 l 699 743 z "},"Ḫ":{"ha":944,"x_min":115,"x_max":829,"o":"m 811 158 q 829 10 811 57 q 764 -15 800 -15 q 718 1 736 -15 q 700 46 700 18 l 699 475 l 246 475 l 246 158 q 264 10 246 57 q 199 -15 235 -15 q 153 1 171 -15 q 135 46 135 18 l 133 801 q 115 950 133 897 q 181 975 144 975 q 228 959 210 975 q 246 914 246 943 l 246 542 l 699 542 l 699 801 q 681 950 699 897 q 746 975 710 975 q 793 959 775 975 q 811 914 811 943 l 811 158 m 486 -183 q 581 -152 544 -183 q 633 -76 617 -121 l 676 -83 q 610 -204 661 -156 q 479 -253 558 -253 q 346 -202 394 -253 q 286 -87 297 -151 l 332 -74 q 386 -151 346 -119 q 486 -183 426 -183 z "},"Ĥ":{"ha":944,"x_min":115,"x_max":829,"o":"m 811 158 q 829 10 811 57 q 764 -15 800 -15 q 718 1 736 -15 q 700 46 700 18 l 699 475 l 246 475 l 246 158 q 264 10 246 57 q 199 -15 235 -15 q 153 1 171 -15 q 135 46 135 18 l 133 801 q 115 950 133 897 q 181 975 144 975 q 228 959 210 975 q 246 914 246 943 l 246 542 l 699 542 l 699 801 q 681 950 699 897 q 746 975 710 975 q 793 959 775 975 q 811 914 811 943 l 811 158 m 679 1047 q 668 1030 676 1040 q 651 1017 660 1019 l 469 1125 l 286 1017 q 270 1030 279 1019 q 258 1047 261 1040 l 433 1206 q 468 1210 446 1210 q 504 1206 492 1210 l 679 1047 z "},"Ḥ":{"ha":944,"x_min":115,"x_max":829,"o":"m 811 158 q 829 10 811 57 q 764 -15 800 -15 q 718 1 736 -15 q 700 46 700 18 l 699 475 l 246 475 l 246 158 q 264 10 246 57 q 199 -15 235 -15 q 153 1 171 -15 q 135 46 135 18 l 133 801 q 115 950 133 897 q 181 975 144 975 q 228 959 210 975 q 246 914 246 943 l 246 542 l 699 542 l 699 801 q 681 950 699 897 q 746 975 710 975 q 793 959 775 975 q 811 914 811 943 l 811 158 m 475 -208 q 427 -188 447 -208 q 407 -140 407 -168 q 427 -92 407 -112 q 475 -72 447 -72 q 523 -92 503 -72 q 543 -140 543 -112 q 523 -188 543 -168 q 475 -208 503 -208 z "},"I":{"ha":379,"x_min":115,"x_max":264,"o":"m 199 -15 q 153 1 171 -15 q 135 46 135 18 l 133 801 q 115 950 133 897 q 181 975 144 975 q 228 959 210 975 q 246 914 246 943 l 246 158 q 264 10 246 57 q 199 -15 235 -15 z "},"Í":{"ha":379,"x_min":115,"x_max":382,"o":"m 199 -15 q 153 1 171 -15 q 135 46 135 18 l 133 801 q 115 950 133 897 q 181 975 144 975 q 228 959 210 975 q 246 914 246 943 l 246 158 q 264 10 246 57 q 199 -15 235 -15 m 142 1022 q 127 1037 135 1025 q 119 1056 119 1049 l 308 1214 q 351 1181 329 1204 q 382 1136 372 1158 l 142 1022 z "},"Ǐ":{"ha":379,"x_min":-33,"x_max":388,"o":"m 199 -15 q 153 1 171 -15 q 135 46 135 18 l 133 801 q 115 950 133 897 q 181 975 144 975 q 228 959 210 975 q 246 914 246 943 l 246 158 q 264 10 246 57 q 199 -15 235 -15 m 213 1029 q 176 1025 200 1025 q 142 1029 154 1025 l -33 1188 q -22 1205 -31 1194 q -6 1218 -12 1215 l 178 1110 l 360 1218 q 376 1205 367 1215 q 388 1188 385 1194 l 213 1029 z "},"Î":{"ha":379,"x_min":-36,"x_max":385,"o":"m 199 -15 q 153 1 171 -15 q 135 46 135 18 l 133 801 q 115 950 133 897 q 181 975 144 975 q 228 959 210 975 q 246 914 246 943 l 246 158 q 264 10 246 57 q 199 -15 235 -15 m 385 1047 q 374 1030 382 1040 q 357 1017 365 1019 l 175 1125 l -8 1017 q -24 1030 -15 1019 q -36 1047 -33 1040 l 139 1206 q 174 1210 151 1210 q 210 1206 197 1210 l 385 1047 z "},"Ï":{"ha":379,"x_min":-18,"x_max":381,"o":"m 199 -15 q 153 1 171 -15 q 135 46 135 18 l 133 801 q 115 950 133 897 q 181 975 144 975 q 228 959 210 975 q 246 914 246 943 l 246 158 q 264 10 246 57 q 199 -15 235 -15 m 53 1053 q 2 1074 22 1053 q -18 1124 -18 1094 q 2 1174 -18 1153 q 53 1194 22 1194 q 102 1174 81 1194 q 124 1124 124 1153 q 102 1074 124 1094 q 53 1053 81 1053 m 310 1053 q 260 1074 281 1053 q 239 1124 239 1094 q 260 1174 239 1153 q 310 1194 281 1194 q 360 1174 339 1194 q 381 1124 381 1153 q 360 1074 381 1094 q 310 1053 339 1053 z "},"İ":{"ha":379,"x_min":107,"x_max":264,"o":"m 199 -15 q 153 1 171 -15 q 135 46 135 18 l 133 801 q 115 950 133 897 q 181 975 144 975 q 228 959 210 975 q 246 914 246 943 l 246 158 q 264 10 246 57 q 199 -15 235 -15 m 178 1046 q 128 1067 150 1046 q 107 1117 107 1088 q 128 1167 107 1146 q 178 1188 150 1188 q 228 1167 207 1188 q 250 1117 250 1146 q 228 1067 250 1088 q 178 1046 207 1046 z "},"Ị":{"ha":379,"x_min":115,"x_max":269,"o":"m 199 -15 q 153 1 171 -15 q 135 46 135 18 l 133 801 q 115 950 133 897 q 181 975 144 975 q 228 959 210 975 q 246 914 246 943 l 246 158 q 264 10 246 57 q 199 -15 235 -15 m 201 -208 q 153 -188 174 -208 q 133 -140 133 -168 q 153 -92 133 -112 q 201 -72 174 -72 q 249 -92 229 -72 q 269 -140 269 -112 q 249 -188 269 -168 q 201 -208 229 -208 z "},"Ì":{"ha":379,"x_min":-29,"x_max":264,"o":"m 199 -15 q 153 1 171 -15 q 135 46 135 18 l 133 801 q 115 950 133 897 q 181 975 144 975 q 228 959 210 975 q 246 914 246 943 l 246 158 q 264 10 246 57 q 199 -15 235 -15 m -29 1136 q 2 1181 -19 1158 q 44 1214 24 1204 l 233 1056 q 226 1037 233 1049 q 211 1022 218 1025 l -29 1136 z "},"Ỉ":{"ha":379,"x_min":104,"x_max":283,"o":"m 199 -15 q 153 1 171 -15 q 135 46 135 18 l 133 801 q 115 950 133 897 q 181 975 144 975 q 228 959 210 975 q 246 914 246 943 l 246 158 q 264 10 246 57 q 199 -15 235 -15 m 132 1060 q 186 1084 171 1072 q 201 1115 201 1096 q 172 1148 201 1139 q 107 1157 143 1157 l 104 1208 q 230 1192 176 1211 q 283 1121 283 1172 q 251 1057 283 1082 q 143 1021 218 1032 l 132 1060 z "},"Ī":{"ha":379,"x_min":-6,"x_max":363,"o":"m 199 -15 q 153 1 171 -15 q 135 46 135 18 l 133 801 q 115 950 133 897 q 181 975 144 975 q 228 959 210 975 q 246 914 246 943 l 246 158 q 264 10 246 57 q 199 -15 235 -15 m 357 1133 q 363 1103 363 1114 q 357 1072 363 1094 l 0 1072 q -6 1103 -6 1088 q 0 1133 -6 1121 l 357 1133 z "},"Į":{"ha":379,"x_min":61,"x_max":343,"o":"m 328 -114 q 343 -139 343 -125 q 342 -150 343 -146 q 283 -216 324 -190 q 188 -242 242 -242 q 99 -215 138 -242 q 61 -135 61 -189 q 158 -3 61 -54 q 135 46 135 13 l 133 801 q 115 950 133 897 q 181 975 144 975 q 228 959 210 975 q 246 914 246 943 l 246 158 q 264 10 246 57 q 225 -11 244 -7 q 163 -61 183 -35 q 142 -122 142 -87 q 159 -170 142 -151 q 211 -189 176 -189 q 281 -167 251 -189 q 328 -114 311 -144 z "},"Ĩ":{"ha":379,"x_min":-26,"x_max":378,"o":"m 199 -15 q 153 1 171 -15 q 135 46 135 18 l 133 801 q 115 950 133 897 q 181 975 144 975 q 228 959 210 975 q 246 914 246 943 l 246 158 q 264 10 246 57 q 199 -15 235 -15 m 378 1158 q 338 1076 367 1107 q 264 1046 308 1046 q 219 1053 240 1046 q 169 1076 197 1061 q 125 1097 143 1090 q 88 1104 107 1104 q 7 1047 28 1104 l 4 1047 q -26 1061 -12 1047 q 15 1149 -18 1121 q 93 1176 47 1176 q 136 1169 117 1176 q 188 1147 156 1163 q 235 1126 217 1133 q 275 1119 253 1119 q 317 1131 303 1119 q 344 1169 331 1143 q 378 1158 367 1169 z "},"J":{"ha":633,"x_min":64,"x_max":513,"o":"m 267 -18 q 115 26 167 -18 q 64 133 64 71 q 81 190 64 167 q 133 214 99 214 q 174 194 163 214 q 161 139 161 165 q 193 61 161 89 q 265 33 225 33 q 367 86 340 33 q 394 239 394 139 l 394 853 q 400 924 394 904 q 257 929 351 924 q 207 919 228 931 q 186 875 186 907 q 226 806 186 828 q 178 792 211 792 q 122 817 146 792 q 97 883 97 842 q 129 953 97 926 q 218 981 161 981 l 296 978 q 418 972 374 972 q 513 978 463 972 q 507 878 507 944 l 507 249 q 267 -18 507 -18 z "},"Ĵ":{"ha":633,"x_min":64,"x_max":528,"o":"m 267 -18 q 115 26 167 -18 q 64 133 64 71 q 81 190 64 167 q 133 214 99 214 q 174 194 163 214 q 161 139 161 165 q 193 61 161 89 q 265 33 225 33 q 367 86 340 33 q 394 239 394 139 l 394 853 q 400 924 394 904 q 257 929 351 924 q 207 919 228 931 q 186 875 186 907 q 226 806 186 828 q 178 792 211 792 q 122 817 146 792 q 97 883 97 842 q 129 953 97 926 q 218 981 161 981 l 296 978 q 418 972 374 972 q 513 978 463 972 q 507 878 507 944 l 507 249 q 267 -18 507 -18 m 528 1047 q 517 1030 525 1040 q 500 1017 508 1019 l 318 1125 l 135 1017 q 119 1030 128 1019 q 107 1047 110 1040 l 282 1206 q 317 1210 294 1210 q 353 1206 340 1210 l 528 1047 z "},"K":{"ha":813,"x_min":115,"x_max":789,"o":"m 779 88 q 789 53 789 69 q 763 1 789 21 q 700 -19 736 -19 q 565 118 610 -19 l 507 303 q 468 381 489 350 q 402 431 447 411 q 281 451 357 451 l 246 451 l 246 158 q 264 10 246 57 q 199 -15 235 -15 q 153 1 171 -15 q 135 46 135 18 l 133 801 q 115 950 133 897 q 181 975 144 975 q 227 959 210 975 q 244 914 244 943 l 246 503 l 285 507 q 442 573 376 518 q 542 704 508 628 q 576 853 576 781 q 551 958 576 919 q 603 975 576 975 q 661 947 636 975 q 686 853 686 918 q 618 642 686 743 q 413 489 550 540 q 538 438 493 476 q 608 332 583 399 l 674 146 q 706 88 692 104 q 740 71 719 72 l 744 71 q 779 88 764 71 z "},"Ķ":{"ha":813,"x_min":115,"x_max":789,"o":"m 779 88 q 789 53 789 69 q 763 1 789 21 q 700 -19 736 -19 q 565 118 610 -19 l 507 303 q 468 381 489 350 q 402 431 447 411 q 281 451 357 451 l 246 451 l 246 158 q 264 10 246 57 q 199 -15 235 -15 q 153 1 171 -15 q 135 46 135 18 l 133 801 q 115 950 133 897 q 181 975 144 975 q 227 959 210 975 q 244 914 244 943 l 246 503 l 285 507 q 442 573 376 518 q 542 704 508 628 q 576 853 576 781 q 551 958 576 919 q 603 975 576 975 q 661 947 636 975 q 686 853 686 918 q 618 642 686 743 q 413 489 550 540 q 538 438 493 476 q 608 332 583 399 l 674 146 q 706 88 692 104 q 740 71 719 72 l 744 71 q 779 88 764 71 m 418 -317 q 376 -292 394 -311 q 419 -199 419 -242 q 401 -147 419 -162 q 356 -122 383 -131 q 377 -71 356 -94 q 433 -47 399 -47 q 490 -70 467 -47 q 513 -143 513 -93 q 418 -317 513 -235 z "},"L":{"ha":667,"x_min":115,"x_max":631,"o":"m 246 67 q 608 104 408 68 q 624 82 618 99 q 631 47 631 65 q 624 13 631 26 q 603 0 617 0 l 199 0 q 152 17 169 0 q 135 63 135 33 l 133 801 q 115 950 133 897 q 181 975 144 975 q 227 959 210 975 q 244 914 244 943 l 246 67 z "},"Ĺ":{"ha":667,"x_min":115,"x_max":631,"o":"m 246 67 q 608 104 408 68 q 624 82 618 99 q 631 47 631 65 q 624 13 631 26 q 603 0 617 0 l 199 0 q 152 17 169 0 q 135 63 135 33 l 133 801 q 115 950 133 897 q 181 975 144 975 q 227 959 210 975 q 244 914 244 943 l 246 67 m 171 1022 q 156 1037 164 1025 q 149 1056 149 1049 l 338 1214 q 380 1181 358 1204 q 411 1136 401 1158 l 171 1022 z "},"Ľ":{"ha":667,"x_min":115,"x_max":631,"o":"m 374 1022 q 392 878 392 963 q 389 814 392 833 l 443 814 q 478 1022 479 921 q 425 1031 456 1031 q 374 1022 397 1031 m 246 67 q 608 104 408 68 q 624 82 618 99 q 631 47 631 65 q 624 13 631 26 q 603 0 617 0 l 199 0 q 152 17 169 0 q 135 63 135 33 l 133 801 q 115 950 133 897 q 181 975 144 975 q 227 959 210 975 q 244 914 244 943 l 246 67 z "},"Ļ":{"ha":667,"x_min":115,"x_max":631,"o":"m 246 67 q 608 104 408 68 q 624 82 618 99 q 631 47 631 65 q 624 13 631 26 q 603 0 617 0 l 199 0 q 152 17 169 0 q 135 63 135 33 l 133 801 q 115 950 133 897 q 181 975 144 975 q 227 959 210 975 q 244 914 244 943 l 246 67 m 369 -317 q 328 -292 346 -311 q 371 -199 371 -242 q 353 -147 371 -162 q 307 -122 335 -131 q 328 -71 307 -94 q 385 -47 350 -47 q 441 -70 418 -47 q 464 -143 464 -93 q 369 -317 464 -235 z "},"Ŀ":{"ha":667,"x_min":115,"x_max":631,"o":"m 246 67 q 608 104 408 68 q 624 82 618 99 q 631 47 631 65 q 624 13 631 26 q 603 0 617 0 l 199 0 q 152 17 169 0 q 135 63 135 33 l 133 801 q 115 950 133 897 q 181 975 144 975 q 227 959 210 975 q 244 914 244 943 l 246 67 m 507 372 q 454 394 476 372 q 432 447 432 417 q 454 500 432 478 q 507 522 476 522 q 560 500 538 522 q 582 447 582 478 q 560 394 582 417 q 507 372 539 372 z "},"Ḷ":{"ha":667,"x_min":115,"x_max":631,"o":"m 246 67 q 608 104 408 68 q 624 82 618 99 q 631 47 631 65 q 624 13 631 26 q 603 0 617 0 l 199 0 q 152 17 169 0 q 135 63 135 33 l 133 801 q 115 950 133 897 q 181 975 144 975 q 227 959 210 975 q 244 914 244 943 l 246 67 m 379 -208 q 331 -188 351 -208 q 311 -140 311 -168 q 331 -92 311 -112 q 379 -72 351 -72 q 427 -92 407 -72 q 447 -140 447 -112 q 427 -188 447 -168 q 379 -208 407 -208 z "},"Ḹ":{"ha":667,"x_min":24,"x_max":631,"o":"m 246 67 q 608 104 408 68 q 624 82 618 99 q 631 47 631 65 q 624 13 631 26 q 603 0 617 0 l 199 0 q 152 17 169 0 q 135 63 135 33 l 133 801 q 115 950 133 897 q 181 975 144 975 q 227 959 210 975 q 244 914 244 943 l 246 67 m 379 -208 q 331 -188 351 -208 q 311 -140 311 -168 q 331 -92 311 -112 q 379 -72 351 -72 q 427 -92 407 -72 q 447 -140 447 -112 q 427 -188 447 -168 q 379 -208 407 -208 m 386 1133 q 392 1103 392 1114 q 386 1072 392 1094 l 29 1072 q 24 1103 24 1088 q 29 1133 24 1121 l 386 1133 z "},"Ḻ":{"ha":667,"x_min":115,"x_max":631,"o":"m 246 67 q 608 104 408 68 q 624 82 618 99 q 631 47 631 65 q 624 13 631 26 q 603 0 617 0 l 199 0 q 152 17 169 0 q 135 63 135 33 l 133 801 q 115 950 133 897 q 181 975 144 975 q 227 959 210 975 q 244 914 244 943 l 246 67 m 564 -100 q 568 -128 568 -115 q 564 -156 568 -143 l 206 -156 q 200 -128 200 -144 q 206 -100 200 -112 l 564 -100 z "},"Ł":{"ha":667,"x_min":26,"x_max":631,"o":"m 608 104 q 624 82 618 99 q 631 47 631 65 q 624 13 631 26 q 603 0 617 0 l 199 0 q 152 17 169 0 q 135 63 135 33 l 135 281 l 63 210 q 26 244 35 214 l 135 353 l 133 801 q 115 950 133 897 q 181 975 144 975 q 227 959 210 975 q 244 914 244 943 l 246 464 l 397 615 q 435 579 425 610 l 246 392 l 246 67 q 608 104 408 68 z "},"M":{"ha":1181,"x_min":124,"x_max":1065,"o":"m 1049 158 q 1065 10 1049 58 q 1000 -15 1036 -15 q 957 1 974 -15 q 940 46 940 18 l 938 828 l 633 151 q 572 139 600 139 q 528 149 547 139 q 200 824 371 446 l 201 158 q 219 1 201 54 q 174 -15 200 -15 q 133 36 133 -15 l 132 804 q 124 958 132 903 q 197 975 140 975 q 256 953 235 975 l 371 710 l 594 246 q 788 683 622 307 q 860 851 829 782 q 910 964 890 921 q 978 975 939 975 q 1024 965 1004 975 q 1046 942 1044 956 l 1049 158 z "},"Ṃ":{"ha":1181,"x_min":124,"x_max":1065,"o":"m 1049 158 q 1065 10 1049 58 q 1000 -15 1036 -15 q 957 1 974 -15 q 940 46 940 18 l 938 828 l 633 151 q 572 139 600 139 q 528 149 547 139 q 200 824 371 446 l 201 158 q 219 1 201 54 q 174 -15 200 -15 q 133 36 133 -15 l 132 804 q 124 958 132 903 q 197 975 140 975 q 256 953 235 975 l 371 710 l 594 246 q 788 683 622 307 q 860 851 829 782 q 910 964 890 921 q 978 975 939 975 q 1024 965 1004 975 q 1046 942 1044 956 l 1049 158 m 594 -208 q 547 -188 567 -208 q 526 -140 526 -168 q 547 -92 526 -112 q 594 -72 567 -72 q 642 -92 622 -72 q 663 -140 663 -112 q 642 -188 663 -168 q 594 -208 622 -208 z "},"N":{"ha":950,"x_min":118,"x_max":825,"o":"m 168 -15 q 118 1 139 -15 q 135 158 135 51 l 133 794 q 124 958 133 906 q 176 972 139 972 q 210 965 204 972 q 751 154 638 350 l 728 846 q 735 926 725 893 q 765 969 744 960 q 785 971 771 971 q 815 965 803 971 q 817 910 814 950 l 818 865 l 818 157 q 825 1 818 50 q 804 -10 819 -6 q 774 -14 789 -14 q 746 -8 760 -14 q 462 380 610 157 q 204 789 314 603 l 225 53 q 209 3 226 22 q 168 -15 192 -15 z "},"Ń":{"ha":950,"x_min":118,"x_max":825,"o":"m 168 -15 q 118 1 139 -15 q 135 158 135 51 l 133 794 q 124 958 133 906 q 176 972 139 972 q 210 965 204 972 q 751 154 638 350 l 728 846 q 735 926 725 893 q 765 969 744 960 q 785 971 771 971 q 815 965 803 971 q 817 910 814 950 l 818 865 l 818 157 q 825 1 818 50 q 804 -10 819 -6 q 774 -14 789 -14 q 746 -8 760 -14 q 462 380 610 157 q 204 789 314 603 l 225 53 q 209 3 226 22 q 168 -15 192 -15 m 438 1022 q 423 1037 431 1025 q 415 1056 415 1049 l 604 1214 q 647 1181 625 1204 q 678 1136 668 1158 l 438 1022 z "},"Ň":{"ha":950,"x_min":118,"x_max":825,"o":"m 168 -15 q 118 1 139 -15 q 135 158 135 51 l 133 794 q 124 958 133 906 q 176 972 139 972 q 210 965 204 972 q 751 154 638 350 l 728 846 q 735 926 725 893 q 765 969 744 960 q 785 971 771 971 q 815 965 803 971 q 817 910 814 950 l 818 865 l 818 157 q 825 1 818 50 q 804 -10 819 -6 q 774 -14 789 -14 q 746 -8 760 -14 q 462 380 610 157 q 204 789 314 603 l 225 53 q 209 3 226 22 q 168 -15 192 -15 m 508 1029 q 472 1025 496 1025 q 438 1029 450 1025 l 263 1188 q 274 1205 265 1194 q 290 1218 283 1215 l 474 1110 l 656 1218 q 672 1205 663 1215 q 683 1188 681 1194 l 508 1029 z "},"Ņ":{"ha":950,"x_min":118,"x_max":825,"o":"m 168 -15 q 118 1 139 -15 q 135 158 135 51 l 133 794 q 124 958 133 906 q 176 972 139 972 q 210 965 204 972 q 751 154 638 350 l 728 846 q 735 926 725 893 q 765 969 744 960 q 785 971 771 971 q 815 965 803 971 q 817 910 814 950 l 818 865 l 818 157 q 825 1 818 50 q 804 -10 819 -6 q 774 -14 789 -14 q 746 -8 760 -14 q 462 380 610 157 q 204 789 314 603 l 225 53 q 209 3 226 22 q 168 -15 192 -15 m 468 -317 q 426 -292 444 -311 q 469 -199 469 -242 q 451 -147 469 -162 q 406 -122 433 -131 q 427 -71 406 -94 q 483 -47 449 -47 q 540 -70 517 -47 q 563 -143 563 -93 q 468 -317 563 -235 z "},"Ṅ":{"ha":950,"x_min":118,"x_max":825,"o":"m 168 -15 q 118 1 139 -15 q 135 158 135 51 l 133 794 q 124 958 133 906 q 176 972 139 972 q 210 965 204 972 q 751 154 638 350 l 728 846 q 735 926 725 893 q 765 969 744 960 q 785 971 771 971 q 815 965 803 971 q 817 910 814 950 l 818 865 l 818 157 q 825 1 818 50 q 804 -10 819 -6 q 774 -14 789 -14 q 746 -8 760 -14 q 462 380 610 157 q 204 789 314 603 l 225 53 q 209 3 226 22 q 168 -15 192 -15 m 474 1046 q 424 1067 446 1046 q 403 1117 403 1088 q 424 1167 403 1146 q 474 1188 446 1188 q 524 1167 503 1188 q 546 1117 546 1146 q 524 1067 546 1088 q 474 1046 503 1046 z "},"Ṇ":{"ha":950,"x_min":118,"x_max":825,"o":"m 168 -15 q 118 1 139 -15 q 135 158 135 51 l 133 794 q 124 958 133 906 q 176 972 139 972 q 210 965 204 972 q 751 154 638 350 l 728 846 q 735 926 725 893 q 765 969 744 960 q 785 971 771 971 q 815 965 803 971 q 817 910 814 950 l 818 865 l 818 157 q 825 1 818 50 q 804 -10 819 -6 q 774 -14 789 -14 q 746 -8 760 -14 q 462 380 610 157 q 204 789 314 603 l 225 53 q 209 3 226 22 q 168 -15 192 -15 m 478 -208 q 430 -188 450 -208 q 410 -140 410 -168 q 430 -92 410 -112 q 478 -72 450 -72 q 526 -92 506 -72 q 546 -140 546 -112 q 526 -188 546 -168 q 478 -208 506 -208 z "},"Ṉ":{"ha":950,"x_min":118,"x_max":825,"o":"m 168 -15 q 118 1 139 -15 q 135 158 135 51 l 133 794 q 124 958 133 906 q 176 972 139 972 q 210 965 204 972 q 751 154 638 350 l 728 846 q 735 926 725 893 q 765 969 744 960 q 785 971 771 971 q 815 965 803 971 q 817 910 814 950 l 818 865 l 818 157 q 825 1 818 50 q 804 -10 819 -6 q 774 -14 789 -14 q 746 -8 760 -14 q 462 380 610 157 q 204 789 314 603 l 225 53 q 209 3 226 22 q 168 -15 192 -15 m 663 -100 q 667 -128 667 -115 q 663 -156 667 -143 l 304 -156 q 299 -128 299 -144 q 304 -100 299 -112 l 663 -100 z "},"Ñ":{"ha":950,"x_min":118,"x_max":825,"o":"m 168 -15 q 118 1 139 -15 q 135 158 135 51 l 133 794 q 124 958 133 906 q 176 972 139 972 q 210 965 204 972 q 751 154 638 350 l 728 846 q 735 926 725 893 q 765 969 744 960 q 785 971 771 971 q 815 965 803 971 q 817 910 814 950 l 818 865 l 818 157 q 825 1 818 50 q 804 -10 819 -6 q 774 -14 789 -14 q 746 -8 760 -14 q 462 380 610 157 q 204 789 314 603 l 225 53 q 209 3 226 22 q 168 -15 192 -15 m 674 1158 q 633 1076 663 1107 q 560 1046 604 1046 q 515 1053 536 1046 q 465 1076 493 1061 q 421 1097 439 1090 q 383 1104 403 1104 q 303 1047 324 1104 l 300 1047 q 269 1061 283 1047 q 310 1149 278 1121 q 389 1176 343 1176 q 432 1169 413 1176 q 483 1147 451 1163 q 531 1126 513 1133 q 571 1119 549 1119 q 613 1131 599 1119 q 640 1169 626 1143 q 674 1158 663 1169 z "},"O":{"ha":904,"x_min":82,"x_max":822,"o":"m 451 -18 q 176 107 271 -18 q 82 481 82 232 q 176 856 82 731 q 451 981 271 981 q 728 856 633 981 q 822 481 822 731 q 728 106 822 231 q 451 -18 633 -18 m 451 33 q 637 142 575 33 q 699 481 699 251 q 637 820 699 711 q 451 929 575 929 q 267 819 329 929 q 206 481 206 710 q 267 142 206 251 q 451 33 329 33 z "},"Ó":{"ha":904,"x_min":82,"x_max":822,"o":"m 451 -18 q 176 107 271 -18 q 82 481 82 232 q 176 856 82 731 q 451 981 271 981 q 728 856 633 981 q 822 481 822 731 q 728 106 822 231 q 451 -18 633 -18 m 451 33 q 637 142 575 33 q 699 481 699 251 q 637 820 699 711 q 451 929 575 929 q 267 819 329 929 q 206 481 206 710 q 267 142 206 251 q 451 33 329 33 m 415 1022 q 401 1037 408 1025 q 393 1056 393 1049 l 582 1214 q 624 1181 603 1204 q 656 1136 646 1158 l 415 1022 z "},"Ǒ":{"ha":904,"x_min":82,"x_max":822,"o":"m 451 -18 q 176 107 271 -18 q 82 481 82 232 q 176 856 82 731 q 451 981 271 981 q 728 856 633 981 q 822 481 822 731 q 728 106 822 231 q 451 -18 633 -18 m 451 33 q 637 142 575 33 q 699 481 699 251 q 637 820 699 711 q 451 929 575 929 q 267 819 329 929 q 206 481 206 710 q 267 142 206 251 q 451 33 329 33 m 488 1029 q 451 1025 475 1025 q 417 1029 429 1025 l 242 1188 q 253 1205 244 1194 q 269 1218 263 1215 l 453 1110 l 635 1218 q 651 1205 642 1215 q 663 1188 660 1194 l 488 1029 z "},"Ô":{"ha":904,"x_min":82,"x_max":822,"o":"m 451 -18 q 176 107 271 -18 q 82 481 82 232 q 176 856 82 731 q 451 981 271 981 q 728 856 633 981 q 822 481 822 731 q 728 106 822 231 q 451 -18 633 -18 m 451 33 q 637 142 575 33 q 699 481 699 251 q 637 820 699 711 q 451 929 575 929 q 267 819 329 929 q 206 481 206 710 q 267 142 206 251 q 451 33 329 33 m 660 1047 q 649 1030 657 1040 q 632 1017 640 1019 l 450 1125 l 267 1017 q 251 1030 260 1019 q 239 1047 242 1040 l 414 1206 q 449 1210 426 1210 q 485 1206 472 1210 l 660 1047 z "},"Ố":{"ha":904,"x_min":82,"x_max":875,"o":"m 451 -18 q 176 107 271 -18 q 82 481 82 232 q 176 856 82 731 q 451 981 271 981 q 728 856 633 981 q 822 481 822 731 q 728 106 822 231 q 451 -18 633 -18 m 451 33 q 637 142 575 33 q 699 481 699 251 q 637 820 699 711 q 451 929 575 929 q 267 819 329 929 q 206 481 206 710 q 267 142 206 251 q 451 33 329 33 m 660 1047 q 649 1030 657 1040 q 632 1017 640 1019 l 450 1125 l 267 1017 q 251 1030 260 1019 q 239 1047 242 1040 l 414 1206 q 449 1210 426 1210 q 485 1206 472 1210 l 660 1047 m 635 1111 q 620 1126 628 1114 q 613 1144 613 1138 l 801 1303 q 844 1270 822 1293 q 875 1225 865 1247 l 635 1111 z "},"Ộ":{"ha":904,"x_min":82,"x_max":822,"o":"m 451 -18 q 176 107 271 -18 q 82 481 82 232 q 176 856 82 731 q 451 981 271 981 q 728 856 633 981 q 822 481 822 731 q 728 106 822 231 q 451 -18 633 -18 m 451 33 q 637 142 575 33 q 699 481 699 251 q 637 820 699 711 q 451 929 575 929 q 267 819 329 929 q 206 481 206 710 q 267 142 206 251 q 451 33 329 33 m 456 -208 q 408 -188 428 -208 q 388 -140 388 -168 q 408 -92 388 -112 q 456 -72 428 -72 q 503 -92 483 -72 q 524 -140 524 -112 q 503 -188 524 -168 q 456 -208 483 -208 m 660 1047 q 649 1030 657 1040 q 632 1017 640 1019 l 450 1125 l 267 1017 q 251 1030 260 1019 q 239 1047 242 1040 l 414 1206 q 449 1210 426 1210 q 485 1206 472 1210 l 660 1047 z "},"Ồ":{"ha":904,"x_min":82,"x_max":822,"o":"m 451 -18 q 176 107 271 -18 q 82 481 82 232 q 176 856 82 731 q 451 981 271 981 q 728 856 633 981 q 822 481 822 731 q 728 106 822 231 q 451 -18 633 -18 m 451 33 q 637 142 575 33 q 699 481 699 251 q 637 820 699 711 q 451 929 575 929 q 267 819 329 929 q 206 481 206 710 q 267 142 206 251 q 451 33 329 33 m 660 1047 q 649 1030 657 1040 q 632 1017 640 1019 l 450 1125 l 267 1017 q 251 1030 260 1019 q 239 1047 242 1040 l 414 1206 q 449 1210 426 1210 q 485 1206 472 1210 l 660 1047 m 519 1222 q 551 1267 529 1244 q 593 1300 572 1290 l 782 1142 q 774 1123 782 1135 q 760 1108 767 1111 l 519 1222 z "},"Ổ":{"ha":904,"x_min":82,"x_max":822,"o":"m 451 -18 q 176 107 271 -18 q 82 481 82 232 q 176 856 82 731 q 451 981 271 981 q 728 856 633 981 q 822 481 822 731 q 728 106 822 231 q 451 -18 633 -18 m 451 33 q 637 142 575 33 q 699 481 699 251 q 637 820 699 711 q 451 929 575 929 q 267 819 329 929 q 206 481 206 710 q 267 142 206 251 q 451 33 329 33 m 660 1047 q 649 1030 657 1040 q 632 1017 640 1019 l 450 1125 l 267 1017 q 251 1030 260 1019 q 239 1047 242 1040 l 414 1206 q 449 1210 426 1210 q 485 1206 472 1210 l 660 1047 m 617 1151 q 671 1176 656 1164 q 686 1207 686 1188 q 657 1240 686 1231 q 592 1249 628 1249 l 589 1300 q 715 1283 661 1303 q 768 1213 768 1264 q 735 1149 768 1174 q 628 1113 703 1124 l 617 1151 z "},"Ỗ":{"ha":904,"x_min":82,"x_max":822,"o":"m 451 -18 q 176 107 271 -18 q 82 481 82 232 q 176 856 82 731 q 451 981 271 981 q 728 856 633 981 q 822 481 822 731 q 728 106 822 231 q 451 -18 633 -18 m 451 33 q 637 142 575 33 q 699 481 699 251 q 637 820 699 711 q 451 929 575 929 q 267 819 329 929 q 206 481 206 710 q 267 142 206 251 q 451 33 329 33 m 660 1047 q 649 1030 657 1040 q 632 1017 640 1019 l 450 1125 l 267 1017 q 251 1030 260 1019 q 239 1047 242 1040 l 414 1206 q 449 1210 426 1210 q 485 1206 472 1210 l 660 1047 m 647 1344 q 607 1263 636 1293 q 533 1232 578 1232 q 488 1240 510 1232 q 439 1263 467 1247 q 394 1283 413 1276 q 357 1290 376 1290 q 276 1233 297 1290 l 274 1233 q 243 1247 257 1233 q 284 1335 251 1307 q 363 1363 317 1363 q 406 1356 386 1363 q 457 1333 425 1349 q 504 1313 486 1319 q 544 1306 522 1306 q 586 1317 572 1306 q 614 1356 600 1329 q 647 1344 636 1356 z "},"Ö":{"ha":904,"x_min":82,"x_max":822,"o":"m 451 -18 q 176 107 271 -18 q 82 481 82 232 q 176 856 82 731 q 451 981 271 981 q 728 856 633 981 q 822 481 822 731 q 728 106 822 231 q 451 -18 633 -18 m 451 33 q 637 142 575 33 q 699 481 699 251 q 637 820 699 711 q 451 929 575 929 q 267 819 329 929 q 206 481 206 710 q 267 142 206 251 q 451 33 329 33 m 326 1053 q 276 1074 296 1053 q 256 1124 256 1094 q 276 1174 256 1153 q 326 1194 296 1194 q 376 1174 354 1194 q 397 1124 397 1153 q 376 1074 397 1094 q 326 1053 354 1053 m 583 1053 q 533 1074 554 1053 q 513 1124 513 1094 q 533 1174 513 1153 q 583 1194 554 1194 q 633 1174 613 1194 q 654 1124 654 1153 q 633 1074 654 1094 q 583 1053 613 1053 z "},"Ọ":{"ha":904,"x_min":82,"x_max":822,"o":"m 451 -18 q 176 107 271 -18 q 82 481 82 232 q 176 856 82 731 q 451 981 271 981 q 728 856 633 981 q 822 481 822 731 q 728 106 822 231 q 451 -18 633 -18 m 451 33 q 637 142 575 33 q 699 481 699 251 q 637 820 699 711 q 451 929 575 929 q 267 819 329 929 q 206 481 206 710 q 267 142 206 251 q 451 33 329 33 m 456 -208 q 408 -188 428 -208 q 388 -140 388 -168 q 408 -92 388 -112 q 456 -72 428 -72 q 503 -92 483 -72 q 524 -140 524 -112 q 503 -188 524 -168 q 456 -208 483 -208 z "},"Ò":{"ha":904,"x_min":82,"x_max":822,"o":"m 451 -18 q 176 107 271 -18 q 82 481 82 232 q 176 856 82 731 q 451 981 271 981 q 728 856 633 981 q 822 481 822 731 q 728 106 822 231 q 451 -18 633 -18 m 451 33 q 637 142 575 33 q 699 481 699 251 q 637 820 699 711 q 451 929 575 929 q 267 819 329 929 q 206 481 206 710 q 267 142 206 251 q 451 33 329 33 m 244 1136 q 276 1181 254 1158 q 318 1214 297 1204 l 507 1056 q 499 1037 507 1049 q 485 1022 492 1025 l 244 1136 z "},"Ỏ":{"ha":904,"x_min":82,"x_max":822,"o":"m 451 -18 q 176 107 271 -18 q 82 481 82 232 q 176 856 82 731 q 451 981 271 981 q 728 856 633 981 q 822 481 822 731 q 728 106 822 231 q 451 -18 633 -18 m 451 33 q 637 142 575 33 q 699 481 699 251 q 637 820 699 711 q 451 929 575 929 q 267 819 329 929 q 206 481 206 710 q 267 142 206 251 q 451 33 329 33 m 407 1060 q 461 1084 446 1072 q 476 1115 476 1096 q 447 1148 476 1139 q 382 1157 418 1157 l 379 1208 q 505 1192 451 1211 q 558 1121 558 1172 q 526 1057 558 1082 q 418 1021 493 1032 l 407 1060 z "},"Ơ":{"ha":904,"x_min":82,"x_max":835,"o":"m 835 988 q 724 861 835 907 q 822 481 822 732 q 728 106 822 231 q 451 -18 633 -18 q 176 107 271 -18 q 82 481 82 232 q 176 856 82 731 q 451 981 271 981 q 688 900 599 981 q 744 975 744 926 q 717 1046 744 1011 q 755 1069 729 1057 q 800 1086 781 1082 q 825 1042 815 1069 q 835 988 835 1014 m 451 33 q 637 142 575 33 q 699 481 699 251 q 637 820 699 711 q 451 929 575 929 q 267 819 329 929 q 206 481 206 710 q 267 142 206 251 q 451 33 329 33 z "},"Ớ":{"ha":904,"x_min":82,"x_max":835,"o":"m 835 988 q 724 861 835 907 q 822 481 822 732 q 728 106 822 231 q 451 -18 633 -18 q 176 107 271 -18 q 82 481 82 232 q 176 856 82 731 q 451 981 271 981 q 688 900 599 981 q 744 975 744 926 q 717 1046 744 1011 q 755 1069 729 1057 q 800 1086 781 1082 q 825 1042 815 1069 q 835 988 835 1014 m 451 33 q 637 142 575 33 q 699 481 699 251 q 637 820 699 711 q 451 929 575 929 q 267 819 329 929 q 206 481 206 710 q 267 142 206 251 q 451 33 329 33 m 400 1022 q 385 1037 393 1025 q 378 1056 378 1049 l 567 1214 q 609 1181 588 1204 q 640 1136 631 1158 l 400 1022 z "},"Ợ":{"ha":904,"x_min":82,"x_max":835,"o":"m 835 988 q 724 861 835 907 q 822 481 822 732 q 728 106 822 231 q 451 -18 633 -18 q 176 107 271 -18 q 82 481 82 232 q 176 856 82 731 q 451 981 271 981 q 688 900 599 981 q 744 975 744 926 q 717 1046 744 1011 q 755 1069 729 1057 q 800 1086 781 1082 q 825 1042 815 1069 q 835 988 835 1014 m 451 33 q 637 142 575 33 q 699 481 699 251 q 637 820 699 711 q 451 929 575 929 q 267 819 329 929 q 206 481 206 710 q 267 142 206 251 q 451 33 329 33 m 438 -208 q 390 -188 410 -208 q 369 -140 369 -168 q 390 -92 369 -112 q 438 -72 410 -72 q 485 -92 465 -72 q 506 -140 506 -112 q 485 -188 506 -168 q 438 -208 465 -208 z "},"Ờ":{"ha":904,"x_min":82,"x_max":835,"o":"m 835 988 q 724 861 835 907 q 822 481 822 732 q 728 106 822 231 q 451 -18 633 -18 q 176 107 271 -18 q 82 481 82 232 q 176 856 82 731 q 451 981 271 981 q 688 900 599 981 q 744 975 744 926 q 717 1046 744 1011 q 755 1069 729 1057 q 800 1086 781 1082 q 825 1042 815 1069 q 835 988 835 1014 m 451 33 q 637 142 575 33 q 699 481 699 251 q 637 820 699 711 q 451 929 575 929 q 267 819 329 929 q 206 481 206 710 q 267 142 206 251 q 451 33 329 33 m 229 1136 q 260 1181 239 1158 q 303 1214 282 1204 l 492 1056 q 484 1037 492 1049 q 469 1022 476 1025 l 229 1136 z "},"Ở":{"ha":904,"x_min":82,"x_max":835,"o":"m 835 988 q 724 861 835 907 q 822 481 822 732 q 728 106 822 231 q 451 -18 633 -18 q 176 107 271 -18 q 82 481 82 232 q 176 856 82 731 q 451 981 271 981 q 688 900 599 981 q 744 975 744 926 q 717 1046 744 1011 q 755 1069 729 1057 q 800 1086 781 1082 q 825 1042 815 1069 q 835 988 835 1014 m 451 33 q 637 142 575 33 q 699 481 699 251 q 637 820 699 711 q 451 929 575 929 q 267 819 329 929 q 206 481 206 710 q 267 142 206 251 q 451 33 329 33 m 392 1060 q 446 1084 431 1072 q 461 1115 461 1096 q 432 1148 461 1139 q 367 1157 403 1157 l 364 1208 q 490 1192 436 1211 q 543 1121 543 1172 q 510 1057 543 1082 q 403 1021 478 1032 l 392 1060 z "},"Ỡ":{"ha":904,"x_min":82,"x_max":835,"o":"m 835 988 q 724 861 835 907 q 822 481 822 732 q 728 106 822 231 q 451 -18 633 -18 q 176 107 271 -18 q 82 481 82 232 q 176 856 82 731 q 451 981 271 981 q 688 900 599 981 q 744 975 744 926 q 717 1046 744 1011 q 755 1069 729 1057 q 800 1086 781 1082 q 825 1042 815 1069 q 835 988 835 1014 m 451 33 q 637 142 575 33 q 699 481 699 251 q 637 820 699 711 q 451 929 575 929 q 267 819 329 929 q 206 481 206 710 q 267 142 206 251 q 451 33 329 33 m 636 1158 q 596 1076 625 1107 q 522 1046 567 1046 q 477 1053 499 1046 q 428 1076 456 1061 q 383 1097 401 1090 q 346 1104 365 1104 q 265 1047 286 1104 l 263 1047 q 232 1061 246 1047 q 273 1149 240 1121 q 351 1176 306 1176 q 394 1169 375 1176 q 446 1147 414 1163 q 493 1126 475 1133 q 533 1119 511 1119 q 575 1131 561 1119 q 603 1169 589 1143 q 636 1158 625 1169 z "},"Ő":{"ha":904,"x_min":82,"x_max":822,"o":"m 451 -18 q 176 107 271 -18 q 82 481 82 232 q 176 856 82 731 q 451 981 271 981 q 728 856 633 981 q 822 481 822 731 q 728 106 822 231 q 451 -18 633 -18 m 451 33 q 637 142 575 33 q 699 481 699 251 q 637 820 699 711 q 451 929 575 929 q 267 819 329 929 q 206 481 206 710 q 267 142 206 251 q 451 33 329 33 m 353 1015 q 335 1026 346 1017 q 322 1042 325 1036 l 467 1235 q 516 1214 489 1231 q 558 1176 543 1197 l 353 1015 m 533 1013 q 517 1024 526 1014 q 504 1039 507 1033 l 650 1231 q 699 1211 672 1228 q 740 1174 726 1194 l 533 1013 z "},"Ō":{"ha":904,"x_min":82,"x_max":822,"o":"m 451 -18 q 176 107 271 -18 q 82 481 82 232 q 176 856 82 731 q 451 981 271 981 q 728 856 633 981 q 822 481 822 731 q 728 106 822 231 q 451 -18 633 -18 m 451 33 q 637 142 575 33 q 699 481 699 251 q 637 820 699 711 q 451 929 575 929 q 267 819 329 929 q 206 481 206 710 q 267 142 206 251 q 451 33 329 33 m 631 1133 q 636 1103 636 1114 q 631 1072 636 1094 l 274 1072 q 268 1103 268 1088 q 274 1133 268 1121 l 631 1133 z "},"Ø":{"ha":886,"x_min":82,"x_max":822,"o":"m 699 889 q 822 481 822 765 q 728 106 822 231 q 451 -18 633 -18 q 213 65 304 -18 l 163 -19 q 118 6 133 -19 l 178 106 q 82 481 82 233 q 176 856 82 731 q 451 981 271 981 q 660 922 576 981 l 701 993 q 744 967 732 993 l 699 889 m 206 481 q 239 210 206 314 l 617 850 q 451 929 558 929 q 267 819 329 929 q 206 481 206 710 m 451 33 q 637 142 575 33 q 699 481 699 251 q 647 801 699 688 l 263 151 q 451 33 324 33 z "},"Õ":{"ha":904,"x_min":82,"x_max":822,"o":"m 451 -18 q 176 107 271 -18 q 82 481 82 232 q 176 856 82 731 q 451 981 271 981 q 728 856 633 981 q 822 481 822 731 q 728 106 822 231 q 451 -18 633 -18 m 451 33 q 637 142 575 33 q 699 481 699 251 q 637 820 699 711 q 451 929 575 929 q 267 819 329 929 q 206 481 206 710 q 267 142 206 251 q 451 33 329 33 m 651 1158 q 611 1076 640 1107 q 538 1046 582 1046 q 492 1053 514 1046 q 443 1076 471 1061 q 399 1097 417 1090 q 361 1104 381 1104 q 281 1047 301 1104 l 278 1047 q 247 1061 261 1047 q 288 1149 256 1121 q 367 1176 321 1176 q 410 1169 390 1176 q 461 1147 429 1163 q 508 1126 490 1133 q 549 1119 526 1119 q 590 1131 576 1119 q 618 1169 604 1143 q 651 1158 640 1169 z "},"Œ":{"ha":1240,"x_min":82,"x_max":1161,"o":"m 1139 100 q 1155 78 1149 94 q 1161 44 1161 63 q 1154 13 1161 25 q 1133 0 1147 0 l 693 0 q 648 15 665 0 q 629 57 631 29 q 451 -18 567 -18 q 176 107 271 -18 q 82 481 82 232 q 176 856 82 731 q 451 981 271 981 q 611 931 550 981 l 610 933 q 648 956 628 950 q 704 963 668 963 l 1125 963 q 1144 932 1144 963 q 1135 890 1144 911 q 1113 864 1126 869 q 738 900 917 899 l 739 539 l 1079 539 q 1083 507 1083 522 q 1079 472 1083 489 l 739 472 l 740 61 q 1139 100 914 63 m 451 33 q 629 167 576 33 l 628 790 l 628 792 q 560 897 603 865 q 451 929 517 929 q 267 819 329 929 q 206 481 206 710 q 267 142 206 251 q 451 33 329 33 z "},"P":{"ha":776,"x_min":115,"x_max":710,"o":"m 311 981 q 613 912 515 981 q 710 697 710 843 q 285 383 710 383 l 246 383 l 246 154 q 250 78 246 121 q 264 10 254 35 q 238 -8 254 0 q 200 -15 221 -15 q 153 1 171 -15 q 133 46 135 18 l 133 801 q 129 878 133 835 q 115 950 125 922 q 311 981 174 981 m 288 433 q 515 497 443 433 q 588 690 588 561 q 521 870 588 811 q 307 929 454 929 q 246 926 258 929 l 246 433 l 288 433 z "},"Þ":{"ha":775,"x_min":115,"x_max":708,"o":"m 311 800 q 611 731 514 800 q 708 517 708 663 q 601 281 708 360 q 285 203 494 203 l 246 203 l 246 158 q 264 10 246 57 q 199 -15 235 -15 q 153 1 171 -15 q 135 46 135 18 l 133 801 q 115 950 133 897 q 181 975 144 975 q 227 959 210 975 q 244 914 244 943 l 244 799 q 311 800 268 800 m 288 253 q 515 317 443 253 q 588 510 588 381 q 521 690 588 631 q 307 749 454 749 l 244 749 l 246 253 l 288 253 z "},"Q":{"ha":911,"x_min":82,"x_max":875,"o":"m 708 -207 q 518 -154 617 -207 q 303 -14 419 -101 q 139 183 196 65 q 82 481 82 301 q 179 855 82 729 q 454 981 276 981 q 730 855 633 981 q 826 481 826 729 q 728 110 826 238 q 454 -18 629 -18 q 382 -10 414 -18 q 511 -87 443 -57 q 643 -118 579 -118 q 758 -92 713 -118 q 807 -18 804 -65 q 856 -38 838 -19 q 875 -85 875 -57 q 831 -174 875 -140 q 708 -207 786 -207 m 453 33 q 638 142 575 33 q 700 482 700 251 q 638 820 700 711 q 454 929 576 929 q 270 815 331 929 q 210 465 210 700 q 453 33 210 33 z "},"R":{"ha":832,"x_min":115,"x_max":811,"o":"m 803 92 q 811 56 811 75 q 783 3 811 22 q 728 -15 756 -15 q 647 17 676 -15 q 588 122 617 50 l 524 286 q 488 360 504 333 q 439 405 472 386 q 349 424 406 424 l 246 425 l 246 154 q 250 78 246 121 q 264 10 254 35 q 238 -8 254 0 q 200 -15 221 -15 q 153 1 171 -15 q 133 46 135 18 l 133 801 q 129 878 133 835 q 115 950 125 922 q 319 981 174 981 q 613 919 518 981 q 707 718 707 857 q 649 549 707 618 q 494 454 592 479 q 573 405 543 440 q 628 314 603 369 l 697 150 q 729 92 714 110 q 763 74 744 75 q 803 92 788 74 m 354 474 q 520 540 456 476 q 585 708 585 604 q 523 876 585 822 q 325 931 461 931 q 246 926 271 931 l 246 475 l 354 474 z "},"Ŕ":{"ha":832,"x_min":115,"x_max":811,"o":"m 803 92 q 811 56 811 75 q 783 3 811 22 q 728 -15 756 -15 q 647 17 676 -15 q 588 122 617 50 l 524 286 q 488 360 504 333 q 439 405 472 386 q 349 424 406 424 l 246 425 l 246 154 q 250 78 246 121 q 264 10 254 35 q 238 -8 254 0 q 200 -15 221 -15 q 153 1 171 -15 q 133 46 135 18 l 133 801 q 129 878 133 835 q 115 950 125 922 q 319 981 174 981 q 613 919 518 981 q 707 718 707 857 q 649 549 707 618 q 494 454 592 479 q 573 405 543 440 q 628 314 603 369 l 697 150 q 729 92 714 110 q 763 74 744 75 q 803 92 788 74 m 354 474 q 520 540 456 476 q 585 708 585 604 q 523 876 585 822 q 325 931 461 931 q 246 926 271 931 l 246 475 l 354 474 m 350 1022 q 335 1037 343 1025 q 328 1056 328 1049 l 517 1214 q 559 1181 538 1204 q 590 1136 581 1158 l 350 1022 z "},"Ř":{"ha":832,"x_min":115,"x_max":811,"o":"m 803 92 q 811 56 811 75 q 783 3 811 22 q 728 -15 756 -15 q 647 17 676 -15 q 588 122 617 50 l 524 286 q 488 360 504 333 q 439 405 472 386 q 349 424 406 424 l 246 425 l 246 154 q 250 78 246 121 q 264 10 254 35 q 238 -8 254 0 q 200 -15 221 -15 q 153 1 171 -15 q 133 46 135 18 l 133 801 q 129 878 133 835 q 115 950 125 922 q 319 981 174 981 q 613 919 518 981 q 707 718 707 857 q 649 549 707 618 q 494 454 592 479 q 573 405 543 440 q 628 314 603 369 l 697 150 q 729 92 714 110 q 763 74 744 75 q 803 92 788 74 m 354 474 q 520 540 456 476 q 585 708 585 604 q 523 876 585 822 q 325 931 461 931 q 246 926 271 931 l 246 475 l 354 474 m 421 1029 q 385 1025 408 1025 q 350 1029 363 1025 l 175 1188 q 187 1205 178 1194 q 203 1218 196 1215 l 386 1110 l 568 1218 q 584 1205 575 1215 q 596 1188 593 1194 l 421 1029 z "},"Ŗ":{"ha":832,"x_min":115,"x_max":811,"o":"m 803 92 q 811 56 811 75 q 783 3 811 22 q 728 -15 756 -15 q 647 17 676 -15 q 588 122 617 50 l 524 286 q 488 360 504 333 q 439 405 472 386 q 349 424 406 424 l 246 425 l 246 154 q 250 78 246 121 q 264 10 254 35 q 238 -8 254 0 q 200 -15 221 -15 q 153 1 171 -15 q 133 46 135 18 l 133 801 q 129 878 133 835 q 115 950 125 922 q 319 981 174 981 q 613 919 518 981 q 707 718 707 857 q 649 549 707 618 q 494 454 592 479 q 573 405 543 440 q 628 314 603 369 l 697 150 q 729 92 714 110 q 763 74 744 75 q 803 92 788 74 m 354 474 q 520 540 456 476 q 585 708 585 604 q 523 876 585 822 q 325 931 461 931 q 246 926 271 931 l 246 475 l 354 474 m 426 -317 q 385 -292 403 -311 q 428 -199 428 -242 q 410 -147 428 -162 q 364 -122 392 -131 q 385 -71 364 -94 q 442 -47 407 -47 q 498 -70 475 -47 q 521 -143 521 -93 q 426 -317 521 -235 z "},"Ṛ":{"ha":832,"x_min":115,"x_max":811,"o":"m 803 92 q 811 56 811 75 q 783 3 811 22 q 728 -15 756 -15 q 647 17 676 -15 q 588 122 617 50 l 524 286 q 488 360 504 333 q 439 405 472 386 q 349 424 406 424 l 246 425 l 246 154 q 250 78 246 121 q 264 10 254 35 q 238 -8 254 0 q 200 -15 221 -15 q 153 1 171 -15 q 133 46 135 18 l 133 801 q 129 878 133 835 q 115 950 125 922 q 319 981 174 981 q 613 919 518 981 q 707 718 707 857 q 649 549 707 618 q 494 454 592 479 q 573 405 543 440 q 628 314 603 369 l 697 150 q 729 92 714 110 q 763 74 744 75 q 803 92 788 74 m 354 474 q 520 540 456 476 q 585 708 585 604 q 523 876 585 822 q 325 931 461 931 q 246 926 271 931 l 246 475 l 354 474 m 436 -208 q 388 -188 408 -208 q 368 -140 368 -168 q 388 -92 368 -112 q 436 -72 408 -72 q 484 -92 464 -72 q 504 -140 504 -112 q 484 -188 504 -168 q 436 -208 464 -208 z "},"Ṝ":{"ha":832,"x_min":115,"x_max":811,"o":"m 803 92 q 811 56 811 75 q 783 3 811 22 q 728 -15 756 -15 q 647 17 676 -15 q 588 122 617 50 l 524 286 q 488 360 504 333 q 439 405 472 386 q 349 424 406 424 l 246 425 l 246 154 q 250 78 246 121 q 264 10 254 35 q 238 -8 254 0 q 200 -15 221 -15 q 153 1 171 -15 q 133 46 135 18 l 133 801 q 129 878 133 835 q 115 950 125 922 q 319 981 174 981 q 613 919 518 981 q 707 718 707 857 q 649 549 707 618 q 494 454 592 479 q 573 405 543 440 q 628 314 603 369 l 697 150 q 729 92 714 110 q 763 74 744 75 q 803 92 788 74 m 354 474 q 520 540 456 476 q 585 708 585 604 q 523 876 585 822 q 325 931 461 931 q 246 926 271 931 l 246 475 l 354 474 m 436 -208 q 388 -188 408 -208 q 368 -140 368 -168 q 388 -92 368 -112 q 436 -72 408 -72 q 484 -92 464 -72 q 504 -140 504 -112 q 484 -188 504 -168 q 436 -208 464 -208 m 565 1133 q 571 1103 571 1114 q 565 1072 571 1094 l 208 1072 q 203 1103 203 1088 q 208 1133 203 1121 l 565 1133 z "},"Ṟ":{"ha":832,"x_min":115,"x_max":811,"o":"m 803 92 q 811 56 811 75 q 783 3 811 22 q 728 -15 756 -15 q 647 17 676 -15 q 588 122 617 50 l 524 286 q 488 360 504 333 q 439 405 472 386 q 349 424 406 424 l 246 425 l 246 154 q 250 78 246 121 q 264 10 254 35 q 238 -8 254 0 q 200 -15 221 -15 q 153 1 171 -15 q 133 46 135 18 l 133 801 q 129 878 133 835 q 115 950 125 922 q 319 981 174 981 q 613 919 518 981 q 707 718 707 857 q 649 549 707 618 q 494 454 592 479 q 573 405 543 440 q 628 314 603 369 l 697 150 q 729 92 714 110 q 763 74 744 75 q 803 92 788 74 m 354 474 q 520 540 456 476 q 585 708 585 604 q 523 876 585 822 q 325 931 461 931 q 246 926 271 931 l 246 475 l 354 474 m 621 -100 q 625 -128 625 -115 q 621 -156 625 -143 l 263 -156 q 257 -128 257 -144 q 263 -100 257 -112 l 621 -100 z "},"S":{"ha":771,"x_min":71,"x_max":706,"o":"m 382 -18 q 149 40 228 -18 q 71 188 71 97 q 149 268 71 268 q 174 267 164 268 q 169 208 167 246 q 233 81 174 128 q 393 33 292 33 q 540 76 485 33 q 594 203 594 119 q 570 296 594 257 q 501 368 546 335 q 372 447 456 401 q 224 540 278 500 q 138 631 169 579 q 106 753 106 682 q 189 924 106 867 q 400 981 272 981 q 601 935 525 981 q 676 808 676 889 q 621 744 676 750 q 603 742 610 742 q 578 744 594 742 q 582 772 582 760 q 578 803 582 789 q 521 896 572 863 q 389 929 469 929 q 263 896 315 929 q 211 788 211 863 q 238 695 211 735 q 308 625 264 656 q 435 549 353 594 q 579 460 522 501 q 671 363 636 418 q 706 233 706 307 q 673 110 706 167 q 568 17 640 53 q 382 -18 496 -18 z "},"Ś":{"ha":771,"x_min":71,"x_max":706,"o":"m 382 -18 q 149 40 228 -18 q 71 188 71 97 q 149 268 71 268 q 174 267 164 268 q 169 208 167 246 q 233 81 174 128 q 393 33 292 33 q 540 76 485 33 q 594 203 594 119 q 570 296 594 257 q 501 368 546 335 q 372 447 456 401 q 224 540 278 500 q 138 631 169 579 q 106 753 106 682 q 189 924 106 867 q 400 981 272 981 q 601 935 525 981 q 676 808 676 889 q 621 744 676 750 q 603 742 610 742 q 578 744 594 742 q 582 772 582 760 q 578 803 582 789 q 521 896 572 863 q 389 929 469 929 q 263 896 315 929 q 211 788 211 863 q 238 695 211 735 q 308 625 264 656 q 435 549 353 594 q 579 460 522 501 q 671 363 636 418 q 706 233 706 307 q 673 110 706 167 q 568 17 640 53 q 382 -18 496 -18 m 351 1022 q 337 1037 344 1025 q 329 1056 329 1049 l 518 1214 q 560 1181 539 1204 q 592 1136 582 1158 l 351 1022 z "},"Š":{"ha":771,"x_min":71,"x_max":706,"o":"m 382 -18 q 149 40 228 -18 q 71 188 71 97 q 149 268 71 268 q 174 267 164 268 q 169 208 167 246 q 233 81 174 128 q 393 33 292 33 q 540 76 485 33 q 594 203 594 119 q 570 296 594 257 q 501 368 546 335 q 372 447 456 401 q 224 540 278 500 q 138 631 169 579 q 106 753 106 682 q 189 924 106 867 q 400 981 272 981 q 601 935 525 981 q 676 808 676 889 q 621 744 676 750 q 603 742 610 742 q 578 744 594 742 q 582 772 582 760 q 578 803 582 789 q 521 896 572 863 q 389 929 469 929 q 263 896 315 929 q 211 788 211 863 q 238 695 211 735 q 308 625 264 656 q 435 549 353 594 q 579 460 522 501 q 671 363 636 418 q 706 233 706 307 q 673 110 706 167 q 568 17 640 53 q 382 -18 496 -18 m 424 1029 q 388 1025 411 1025 q 353 1029 365 1025 l 178 1188 q 190 1205 181 1194 q 206 1218 199 1215 l 389 1110 l 571 1218 q 587 1205 578 1215 q 599 1188 596 1194 l 424 1029 z "},"Ş":{"ha":771,"x_min":71,"x_max":706,"o":"m 706 233 q 633 60 706 132 q 408 -18 561 -11 l 399 -67 q 496 -94 461 -67 q 531 -168 531 -121 q 491 -254 531 -221 q 386 -287 451 -287 q 264 -243 303 -287 l 264 -237 q 269 -216 264 -228 q 281 -200 274 -204 q 294 -210 283 -201 q 323 -226 304 -219 q 364 -232 342 -232 q 415 -215 396 -232 q 433 -169 433 -199 q 414 -124 433 -142 q 353 -106 394 -106 l 333 -107 l 350 -17 q 141 46 211 -11 q 71 188 71 103 q 149 268 71 268 q 174 267 164 268 q 169 208 167 246 q 233 81 174 128 q 393 33 292 33 q 540 76 485 33 q 594 203 594 119 q 570 296 594 257 q 501 368 546 335 q 372 447 456 401 q 224 540 278 500 q 138 631 169 579 q 106 753 106 682 q 189 924 106 867 q 400 981 272 981 q 601 935 525 981 q 676 808 676 889 q 621 744 676 750 q 603 742 610 742 q 578 744 594 742 q 582 772 582 760 q 578 803 582 789 q 521 896 572 863 q 389 929 469 929 q 263 896 315 929 q 211 788 211 863 q 238 695 211 735 q 308 625 264 656 q 435 549 353 594 q 579 460 522 501 q 671 363 636 418 q 706 233 706 307 z "},"Ŝ":{"ha":771,"x_min":71,"x_max":706,"o":"m 382 -18 q 149 40 228 -18 q 71 188 71 97 q 149 268 71 268 q 174 267 164 268 q 169 208 167 246 q 233 81 174 128 q 393 33 292 33 q 540 76 485 33 q 594 203 594 119 q 570 296 594 257 q 501 368 546 335 q 372 447 456 401 q 224 540 278 500 q 138 631 169 579 q 106 753 106 682 q 189 924 106 867 q 400 981 272 981 q 601 935 525 981 q 676 808 676 889 q 621 744 676 750 q 603 742 610 742 q 578 744 594 742 q 582 772 582 760 q 578 803 582 789 q 521 896 572 863 q 389 929 469 929 q 263 896 315 929 q 211 788 211 863 q 238 695 211 735 q 308 625 264 656 q 435 549 353 594 q 579 460 522 501 q 671 363 636 418 q 706 233 706 307 q 673 110 706 167 q 568 17 640 53 q 382 -18 496 -18 m 596 1047 q 585 1030 593 1040 q 568 1017 576 1019 l 386 1125 l 203 1017 q 187 1030 196 1019 q 175 1047 178 1040 l 350 1206 q 385 1210 363 1210 q 421 1206 408 1210 l 596 1047 z "},"Ș":{"ha":771,"x_min":71,"x_max":706,"o":"m 382 -18 q 149 40 228 -18 q 71 188 71 97 q 149 268 71 268 q 174 267 164 268 q 169 208 167 246 q 233 81 174 128 q 393 33 292 33 q 540 76 485 33 q 594 203 594 119 q 570 296 594 257 q 501 368 546 335 q 372 447 456 401 q 224 540 278 500 q 138 631 169 579 q 106 753 106 682 q 189 924 106 867 q 400 981 272 981 q 601 935 525 981 q 676 808 676 889 q 621 744 676 750 q 603 742 610 742 q 578 744 594 742 q 582 772 582 760 q 578 803 582 789 q 521 896 572 863 q 389 929 469 929 q 263 896 315 929 q 211 788 211 863 q 238 695 211 735 q 308 625 264 656 q 435 549 353 594 q 579 460 522 501 q 671 363 636 418 q 706 233 706 307 q 673 110 706 167 q 568 17 640 53 q 382 -18 496 -18 m 378 -317 q 336 -292 354 -311 q 379 -199 379 -242 q 361 -147 379 -162 q 315 -122 343 -131 q 337 -71 315 -94 q 393 -47 358 -47 q 449 -70 426 -47 q 472 -143 472 -93 q 378 -317 472 -235 z "},"Ṡ":{"ha":771,"x_min":71,"x_max":706,"o":"m 382 -18 q 149 40 228 -18 q 71 188 71 97 q 149 268 71 268 q 174 267 164 268 q 169 208 167 246 q 233 81 174 128 q 393 33 292 33 q 540 76 485 33 q 594 203 594 119 q 570 296 594 257 q 501 368 546 335 q 372 447 456 401 q 224 540 278 500 q 138 631 169 579 q 106 753 106 682 q 189 924 106 867 q 400 981 272 981 q 601 935 525 981 q 676 808 676 889 q 621 744 676 750 q 603 742 610 742 q 578 744 594 742 q 582 772 582 760 q 578 803 582 789 q 521 896 572 863 q 389 929 469 929 q 263 896 315 929 q 211 788 211 863 q 238 695 211 735 q 308 625 264 656 q 435 549 353 594 q 579 460 522 501 q 671 363 636 418 q 706 233 706 307 q 673 110 706 167 q 568 17 640 53 q 382 -18 496 -18 m 388 1046 q 338 1067 360 1046 q 317 1117 317 1088 q 338 1167 317 1146 q 388 1188 360 1188 q 438 1167 417 1188 q 460 1117 460 1146 q 438 1067 460 1088 q 388 1046 417 1046 z "},"Ṣ":{"ha":771,"x_min":71,"x_max":706,"o":"m 382 -18 q 149 40 228 -18 q 71 188 71 97 q 149 268 71 268 q 174 267 164 268 q 169 208 167 246 q 233 81 174 128 q 393 33 292 33 q 540 76 485 33 q 594 203 594 119 q 570 296 594 257 q 501 368 546 335 q 372 447 456 401 q 224 540 278 500 q 138 631 169 579 q 106 753 106 682 q 189 924 106 867 q 400 981 272 981 q 601 935 525 981 q 676 808 676 889 q 621 744 676 750 q 603 742 610 742 q 578 744 594 742 q 582 772 582 760 q 578 803 582 789 q 521 896 572 863 q 389 929 469 929 q 263 896 315 929 q 211 788 211 863 q 238 695 211 735 q 308 625 264 656 q 435 549 353 594 q 579 460 522 501 q 671 363 636 418 q 706 233 706 307 q 673 110 706 167 q 568 17 640 53 q 382 -18 496 -18 m 389 -208 q 341 -188 361 -208 q 321 -140 321 -168 q 341 -92 321 -112 q 389 -72 361 -72 q 437 -92 417 -72 q 457 -140 457 -112 q 437 -188 457 -168 q 389 -208 417 -208 z "},"ẞ":{"ha":843,"x_min":103,"x_max":781,"o":"m 518 -18 q 412 1 454 -18 q 351 48 369 21 q 332 100 332 75 q 346 135 332 122 q 381 149 360 149 q 401 146 394 149 q 515 29 406 29 q 629 87 596 29 q 663 229 663 144 q 633 372 663 318 q 556 452 603 425 q 436 501 508 479 l 436 540 q 558 708 513 617 q 619 892 603 800 q 424 940 557 940 q 294 899 339 940 q 231 764 249 857 q 213 501 213 671 q 214 215 213 324 q 219 74 215 107 q 232 13 222 40 q 203 -4 222 4 q 164 -12 185 -12 q 121 4 138 -12 q 104 53 104 21 l 104 572 q 184 894 103 799 q 429 990 265 990 q 604 970 522 990 q 736 908 686 950 q 659 691 706 783 q 538 528 613 599 q 713 431 644 500 q 781 240 781 363 q 710 52 781 122 q 518 -18 640 -18 z "},"Ə":{"ha":840,"x_min":74,"x_max":767,"o":"m 385 981 q 666 852 565 981 q 767 482 767 724 q 667 115 767 247 q 381 -18 567 -18 q 158 50 242 -18 q 74 244 74 118 q 161 451 74 379 q 404 524 249 524 q 649 506 551 524 q 358 904 636 904 q 200 868 269 904 q 106 765 131 832 q 85 797 85 774 q 94 835 85 814 q 203 942 125 904 q 385 981 282 981 m 385 31 q 576 142 504 31 q 649 458 647 253 q 464 472 549 472 q 268 414 344 472 q 192 228 192 356 q 247 76 192 122 q 385 31 303 31 z "},"T":{"ha":733,"x_min":24,"x_max":711,"o":"m 692 963 q 711 932 711 963 q 702 890 711 911 q 679 864 693 869 l 643 872 q 422 910 499 904 l 424 158 q 442 10 424 57 q 376 -15 413 -15 q 331 1 349 -15 q 313 46 313 18 l 311 910 q 212 897 261 906 q 86 871 163 888 l 56 864 q 33 890 42 869 q 24 932 24 911 q 43 963 24 963 l 692 963 z "},"Ť":{"ha":733,"x_min":24,"x_max":711,"o":"m 692 963 q 711 932 711 963 q 702 890 711 911 q 679 864 693 869 l 643 872 q 422 910 499 904 l 424 158 q 442 10 424 57 q 376 -15 413 -15 q 331 1 349 -15 q 313 46 313 18 l 311 910 q 212 897 261 906 q 86 871 163 888 l 56 864 q 33 890 42 869 q 24 932 24 911 q 43 963 24 963 l 692 963 m 403 1029 q 367 1025 390 1025 q 332 1029 344 1025 l 157 1188 q 169 1205 160 1194 q 185 1218 178 1215 l 368 1110 l 550 1218 q 566 1205 557 1215 q 578 1188 575 1194 l 403 1029 z "},"Ţ":{"ha":733,"x_min":24,"x_max":711,"o":"m 692 963 q 711 932 711 963 q 702 890 711 911 q 679 864 693 869 l 643 872 q 422 910 499 904 l 424 158 q 442 10 424 57 q 407 -10 422 -6 l 396 -67 q 493 -94 458 -67 q 528 -168 528 -121 q 488 -254 528 -221 q 383 -287 449 -287 q 261 -243 300 -287 l 261 -237 q 266 -216 261 -228 q 278 -200 271 -204 q 291 -210 281 -201 q 320 -226 301 -219 q 361 -232 339 -232 q 412 -215 393 -232 q 431 -169 431 -199 q 411 -124 431 -142 q 350 -106 392 -106 l 331 -107 l 349 -10 q 313 46 313 4 l 311 910 q 212 897 261 906 q 86 871 163 888 l 56 864 q 33 890 42 869 q 24 932 24 911 q 43 963 24 963 l 692 963 z "},"Ț":{"ha":733,"x_min":24,"x_max":711,"o":"m 692 963 q 711 932 711 963 q 702 890 711 911 q 679 864 693 869 l 643 872 q 422 910 499 904 l 424 158 q 442 10 424 57 q 376 -15 413 -15 q 331 1 349 -15 q 313 46 313 18 l 311 910 q 212 897 261 906 q 86 871 163 888 l 56 864 q 33 890 42 869 q 24 932 24 911 q 43 963 24 963 l 692 963 m 375 -317 q 333 -292 351 -311 q 376 -199 376 -242 q 358 -147 376 -162 q 313 -122 340 -131 q 334 -71 313 -94 q 390 -47 356 -47 q 447 -70 424 -47 q 469 -143 469 -93 q 375 -317 469 -235 z "},"Ṭ":{"ha":733,"x_min":24,"x_max":711,"o":"m 692 963 q 711 932 711 963 q 702 890 711 911 q 679 864 693 869 l 643 872 q 422 910 499 904 l 424 158 q 442 10 424 57 q 376 -15 413 -15 q 331 1 349 -15 q 313 46 313 18 l 311 910 q 212 897 261 906 q 86 871 163 888 l 56 864 q 33 890 42 869 q 24 932 24 911 q 43 963 24 963 l 692 963 m 385 -208 q 337 -188 357 -208 q 317 -140 317 -168 q 337 -92 317 -112 q 385 -72 357 -72 q 433 -92 413 -72 q 453 -140 453 -112 q 433 -188 453 -168 q 385 -208 413 -208 z "},"Ṯ":{"ha":733,"x_min":24,"x_max":711,"o":"m 692 963 q 711 932 711 963 q 702 890 711 911 q 679 864 693 869 l 643 872 q 422 910 499 904 l 424 158 q 442 10 424 57 q 376 -15 413 -15 q 331 1 349 -15 q 313 46 313 18 l 311 910 q 212 897 261 906 q 86 871 163 888 l 56 864 q 33 890 42 869 q 24 932 24 911 q 43 963 24 963 l 692 963 m 569 -100 q 574 -128 574 -115 q 569 -156 574 -143 l 211 -156 q 206 -128 206 -144 q 211 -100 206 -112 l 569 -100 z "},"U":{"ha":914,"x_min":110,"x_max":796,"o":"m 796 424 q 710 93 796 204 q 456 -18 624 -18 q 208 90 290 -18 q 126 424 126 197 l 126 801 q 110 950 126 901 q 174 975 139 975 q 220 959 203 975 q 238 914 238 943 l 238 419 q 290 126 238 219 q 456 33 343 33 q 628 131 571 33 q 686 419 686 229 l 686 801 q 668 950 686 897 q 732 975 697 975 q 778 958 760 975 q 796 914 796 942 l 796 424 z "},"Ú":{"ha":914,"x_min":110,"x_max":796,"o":"m 796 424 q 710 93 796 204 q 456 -18 624 -18 q 208 90 290 -18 q 126 424 126 197 l 126 801 q 110 950 126 901 q 174 975 139 975 q 220 959 203 975 q 238 914 238 943 l 238 419 q 290 126 238 219 q 456 33 343 33 q 628 131 571 33 q 686 419 686 229 l 686 801 q 668 950 686 897 q 732 975 697 975 q 778 958 760 975 q 796 914 796 942 l 796 424 m 419 1022 q 405 1037 413 1025 q 397 1056 397 1049 l 586 1214 q 628 1181 607 1204 q 660 1136 650 1158 l 419 1022 z "},"Ŭ":{"ha":914,"x_min":110,"x_max":796,"o":"m 796 424 q 710 93 796 204 q 456 -18 624 -18 q 208 90 290 -18 q 126 424 126 197 l 126 801 q 110 950 126 901 q 174 975 139 975 q 220 959 203 975 q 238 914 238 943 l 238 419 q 290 126 238 219 q 456 33 343 33 q 628 131 571 33 q 686 419 686 229 l 686 801 q 668 950 686 897 q 732 975 697 975 q 778 958 760 975 q 796 914 796 942 l 796 424 m 639 1171 q 572 1064 618 1104 q 454 1024 525 1024 q 338 1064 382 1024 q 275 1167 294 1104 l 322 1185 q 375 1117 339 1140 q 461 1093 411 1093 q 545 1117 511 1093 q 596 1183 579 1142 l 639 1171 z "},"Ǔ":{"ha":914,"x_min":110,"x_max":796,"o":"m 796 424 q 710 93 796 204 q 456 -18 624 -18 q 208 90 290 -18 q 126 424 126 197 l 126 801 q 110 950 126 901 q 174 975 139 975 q 220 959 203 975 q 238 914 238 943 l 238 419 q 290 126 238 219 q 456 33 343 33 q 628 131 571 33 q 686 419 686 229 l 686 801 q 668 950 686 897 q 732 975 697 975 q 778 958 760 975 q 796 914 796 942 l 796 424 m 492 1029 q 456 1025 479 1025 q 421 1029 433 1025 l 246 1188 q 258 1205 249 1194 q 274 1218 267 1215 l 457 1110 l 639 1218 q 655 1205 646 1215 q 667 1188 664 1194 l 492 1029 z "},"Û":{"ha":914,"x_min":110,"x_max":796,"o":"m 796 424 q 710 93 796 204 q 456 -18 624 -18 q 208 90 290 -18 q 126 424 126 197 l 126 801 q 110 950 126 901 q 174 975 139 975 q 220 959 203 975 q 238 914 238 943 l 238 419 q 290 126 238 219 q 456 33 343 33 q 628 131 571 33 q 686 419 686 229 l 686 801 q 668 950 686 897 q 732 975 697 975 q 778 958 760 975 q 796 914 796 942 l 796 424 m 664 1047 q 653 1030 661 1040 q 636 1017 644 1019 l 454 1125 l 271 1017 q 255 1030 264 1019 q 243 1047 246 1040 l 418 1206 q 453 1210 431 1210 q 489 1206 476 1210 l 664 1047 z "},"Ü":{"ha":914,"x_min":110,"x_max":796,"o":"m 796 424 q 710 93 796 204 q 456 -18 624 -18 q 208 90 290 -18 q 126 424 126 197 l 126 801 q 110 950 126 901 q 174 975 139 975 q 220 959 203 975 q 238 914 238 943 l 238 419 q 290 126 238 219 q 456 33 343 33 q 628 131 571 33 q 686 419 686 229 l 686 801 q 668 950 686 897 q 732 975 697 975 q 778 958 760 975 q 796 914 796 942 l 796 424 m 331 1053 q 280 1074 300 1053 q 260 1124 260 1094 q 280 1174 260 1153 q 331 1194 300 1194 q 380 1174 358 1194 q 401 1124 401 1153 q 380 1074 401 1094 q 331 1053 358 1053 m 588 1053 q 538 1074 558 1053 q 517 1124 517 1094 q 538 1174 517 1153 q 588 1194 558 1194 q 638 1174 617 1194 q 658 1124 658 1153 q 638 1074 658 1094 q 588 1053 617 1053 z "},"Ǘ":{"ha":914,"x_min":110,"x_max":796,"o":"m 796 424 q 710 93 796 204 q 456 -18 624 -18 q 208 90 290 -18 q 126 424 126 197 l 126 801 q 110 950 126 901 q 174 975 139 975 q 220 959 203 975 q 238 914 238 943 l 238 419 q 290 126 238 219 q 456 33 343 33 q 628 131 571 33 q 686 419 686 229 l 686 801 q 668 950 686 897 q 732 975 697 975 q 778 958 760 975 q 796 914 796 942 l 796 424 m 331 1053 q 280 1074 300 1053 q 260 1124 260 1094 q 280 1174 260 1153 q 331 1194 300 1194 q 380 1174 358 1194 q 401 1124 401 1153 q 380 1074 401 1094 q 331 1053 358 1053 m 588 1053 q 538 1074 558 1053 q 517 1124 517 1094 q 538 1174 517 1153 q 588 1194 558 1194 q 638 1174 617 1194 q 658 1124 658 1153 q 638 1074 658 1094 q 588 1053 617 1053 m 419 1214 q 405 1228 413 1217 q 397 1247 397 1240 l 586 1406 q 628 1373 607 1396 q 660 1328 650 1350 l 419 1214 z "},"Ǚ":{"ha":914,"x_min":110,"x_max":796,"o":"m 796 424 q 710 93 796 204 q 456 -18 624 -18 q 208 90 290 -18 q 126 424 126 197 l 126 801 q 110 950 126 901 q 174 975 139 975 q 220 959 203 975 q 238 914 238 943 l 238 419 q 290 126 238 219 q 456 33 343 33 q 628 131 571 33 q 686 419 686 229 l 686 801 q 668 950 686 897 q 732 975 697 975 q 778 958 760 975 q 796 914 796 942 l 796 424 m 331 1053 q 280 1074 300 1053 q 260 1124 260 1094 q 280 1174 260 1153 q 331 1194 300 1194 q 380 1174 358 1194 q 401 1124 401 1153 q 380 1074 401 1094 q 331 1053 358 1053 m 588 1053 q 538 1074 558 1053 q 517 1124 517 1094 q 538 1174 517 1153 q 588 1194 558 1194 q 638 1174 617 1194 q 658 1124 658 1153 q 638 1074 658 1094 q 588 1053 617 1053 m 492 1221 q 456 1217 479 1217 q 421 1221 433 1217 l 246 1379 q 258 1397 249 1386 q 274 1410 267 1407 l 457 1301 l 639 1410 q 655 1397 646 1407 q 667 1379 664 1386 l 492 1221 z "},"Ǜ":{"ha":914,"x_min":110,"x_max":796,"o":"m 796 424 q 710 93 796 204 q 456 -18 624 -18 q 208 90 290 -18 q 126 424 126 197 l 126 801 q 110 950 126 901 q 174 975 139 975 q 220 959 203 975 q 238 914 238 943 l 238 419 q 290 126 238 219 q 456 33 343 33 q 628 131 571 33 q 686 419 686 229 l 686 801 q 668 950 686 897 q 732 975 697 975 q 778 958 760 975 q 796 914 796 942 l 796 424 m 331 1053 q 280 1074 300 1053 q 260 1124 260 1094 q 280 1174 260 1153 q 331 1194 300 1194 q 380 1174 358 1194 q 401 1124 401 1153 q 380 1074 401 1094 q 331 1053 358 1053 m 588 1053 q 538 1074 558 1053 q 517 1124 517 1094 q 538 1174 517 1153 q 588 1194 558 1194 q 638 1174 617 1194 q 658 1124 658 1153 q 638 1074 658 1094 q 588 1053 617 1053 m 250 1328 q 281 1373 260 1350 q 324 1406 303 1396 l 513 1247 q 505 1228 513 1240 q 490 1214 497 1217 l 250 1328 z "},"Ǖ":{"ha":914,"x_min":110,"x_max":796,"o":"m 796 424 q 710 93 796 204 q 456 -18 624 -18 q 208 90 290 -18 q 126 424 126 197 l 126 801 q 110 950 126 901 q 174 975 139 975 q 220 959 203 975 q 238 914 238 943 l 238 419 q 290 126 238 219 q 456 33 343 33 q 628 131 571 33 q 686 419 686 229 l 686 801 q 668 950 686 897 q 732 975 697 975 q 778 958 760 975 q 796 914 796 942 l 796 424 m 331 1053 q 280 1074 300 1053 q 260 1124 260 1094 q 280 1174 260 1153 q 331 1194 300 1194 q 380 1174 358 1194 q 401 1124 401 1153 q 380 1074 401 1094 q 331 1053 358 1053 m 588 1053 q 538 1074 558 1053 q 517 1124 517 1094 q 538 1174 517 1153 q 588 1194 558 1194 q 638 1174 617 1194 q 658 1124 658 1153 q 638 1074 658 1094 q 588 1053 617 1053 m 635 1325 q 640 1294 640 1306 q 635 1264 640 1286 l 278 1264 q 272 1294 272 1279 q 278 1325 272 1313 l 635 1325 z "},"Ụ":{"ha":914,"x_min":110,"x_max":796,"o":"m 796 424 q 710 93 796 204 q 456 -18 624 -18 q 208 90 290 -18 q 126 424 126 197 l 126 801 q 110 950 126 901 q 174 975 139 975 q 220 959 203 975 q 238 914 238 943 l 238 419 q 290 126 238 219 q 456 33 343 33 q 628 131 571 33 q 686 419 686 229 l 686 801 q 668 950 686 897 q 732 975 697 975 q 778 958 760 975 q 796 914 796 942 l 796 424 m 460 -208 q 412 -188 432 -208 q 392 -140 392 -168 q 412 -92 392 -112 q 460 -72 432 -72 q 508 -92 488 -72 q 528 -140 528 -112 q 508 -188 528 -168 q 460 -208 488 -208 z "},"Ù":{"ha":914,"x_min":110,"x_max":796,"o":"m 796 424 q 710 93 796 204 q 456 -18 624 -18 q 208 90 290 -18 q 126 424 126 197 l 126 801 q 110 950 126 901 q 174 975 139 975 q 220 959 203 975 q 238 914 238 943 l 238 419 q 290 126 238 219 q 456 33 343 33 q 628 131 571 33 q 686 419 686 229 l 686 801 q 668 950 686 897 q 732 975 697 975 q 778 958 760 975 q 796 914 796 942 l 796 424 m 250 1136 q 281 1181 260 1158 q 324 1214 303 1204 l 513 1056 q 505 1037 513 1049 q 490 1022 497 1025 l 250 1136 z "},"Ủ":{"ha":914,"x_min":110,"x_max":796,"o":"m 796 424 q 710 93 796 204 q 456 -18 624 -18 q 208 90 290 -18 q 126 424 126 197 l 126 801 q 110 950 126 901 q 174 975 139 975 q 220 959 203 975 q 238 914 238 943 l 238 419 q 290 126 238 219 q 456 33 343 33 q 628 131 571 33 q 686 419 686 229 l 686 801 q 668 950 686 897 q 732 975 697 975 q 778 958 760 975 q 796 914 796 942 l 796 424 m 411 1060 q 465 1084 450 1072 q 481 1115 481 1096 q 451 1148 481 1139 q 386 1157 422 1157 l 383 1208 q 509 1192 456 1211 q 563 1121 563 1172 q 530 1057 563 1082 q 422 1021 497 1032 l 411 1060 z "},"Ư":{"ha":914,"x_min":110,"x_max":874,"o":"m 874 1067 q 785 951 874 997 q 796 914 796 936 l 796 424 q 710 93 796 204 q 456 -18 624 -18 q 208 90 290 -18 q 126 424 126 197 l 126 801 q 110 950 126 901 q 174 975 139 975 q 220 959 203 975 q 238 914 238 943 l 238 419 q 290 126 238 219 q 456 33 343 33 q 628 131 571 33 q 686 419 686 229 l 686 801 q 668 950 686 897 q 708 972 688 967 q 783 1054 783 999 q 756 1125 783 1090 q 794 1149 768 1136 q 839 1165 819 1161 q 864 1121 854 1149 q 874 1067 874 1093 z "},"Ứ":{"ha":914,"x_min":110,"x_max":874,"o":"m 874 1067 q 785 951 874 997 q 796 914 796 936 l 796 424 q 710 93 796 204 q 456 -18 624 -18 q 208 90 290 -18 q 126 424 126 197 l 126 801 q 110 950 126 901 q 174 975 139 975 q 220 959 203 975 q 238 914 238 943 l 238 419 q 290 126 238 219 q 456 33 343 33 q 628 131 571 33 q 686 419 686 229 l 686 801 q 668 950 686 897 q 708 972 688 967 q 783 1054 783 999 q 756 1125 783 1090 q 794 1149 768 1136 q 839 1165 819 1161 q 864 1121 854 1149 q 874 1067 874 1093 m 426 1022 q 412 1037 419 1025 q 404 1056 404 1049 l 593 1214 q 635 1181 614 1204 q 667 1136 657 1158 l 426 1022 z "},"Ự":{"ha":914,"x_min":110,"x_max":874,"o":"m 874 1067 q 785 951 874 997 q 796 914 796 936 l 796 424 q 710 93 796 204 q 456 -18 624 -18 q 208 90 290 -18 q 126 424 126 197 l 126 801 q 110 950 126 901 q 174 975 139 975 q 220 959 203 975 q 238 914 238 943 l 238 419 q 290 126 238 219 q 456 33 343 33 q 628 131 571 33 q 686 419 686 229 l 686 801 q 668 950 686 897 q 708 972 688 967 q 783 1054 783 999 q 756 1125 783 1090 q 794 1149 768 1136 q 839 1165 819 1161 q 864 1121 854 1149 q 874 1067 874 1093 m 463 -208 q 415 -188 435 -208 q 394 -140 394 -168 q 415 -92 394 -112 q 463 -72 435 -72 q 510 -92 490 -72 q 531 -140 531 -112 q 510 -188 531 -168 q 463 -208 490 -208 z "},"Ừ":{"ha":914,"x_min":110,"x_max":874,"o":"m 874 1067 q 785 951 874 997 q 796 914 796 936 l 796 424 q 710 93 796 204 q 456 -18 624 -18 q 208 90 290 -18 q 126 424 126 197 l 126 801 q 110 950 126 901 q 174 975 139 975 q 220 959 203 975 q 238 914 238 943 l 238 419 q 290 126 238 219 q 456 33 343 33 q 628 131 571 33 q 686 419 686 229 l 686 801 q 668 950 686 897 q 708 972 688 967 q 783 1054 783 999 q 756 1125 783 1090 q 794 1149 768 1136 q 839 1165 819 1161 q 864 1121 854 1149 q 874 1067 874 1093 m 256 1136 q 287 1181 265 1158 q 329 1214 308 1204 l 518 1056 q 510 1037 518 1049 q 496 1022 503 1025 l 256 1136 z "},"Ử":{"ha":914,"x_min":110,"x_max":874,"o":"m 874 1067 q 785 951 874 997 q 796 914 796 936 l 796 424 q 710 93 796 204 q 456 -18 624 -18 q 208 90 290 -18 q 126 424 126 197 l 126 801 q 110 950 126 901 q 174 975 139 975 q 220 959 203 975 q 238 914 238 943 l 238 419 q 290 126 238 219 q 456 33 343 33 q 628 131 571 33 q 686 419 686 229 l 686 801 q 668 950 686 897 q 708 972 688 967 q 783 1054 783 999 q 756 1125 783 1090 q 794 1149 768 1136 q 839 1165 819 1161 q 864 1121 854 1149 q 874 1067 874 1093 m 418 1060 q 472 1084 457 1072 q 488 1115 488 1096 q 458 1148 488 1139 q 393 1157 429 1157 l 390 1208 q 516 1192 463 1211 q 569 1121 569 1172 q 537 1057 569 1082 q 429 1021 504 1032 l 418 1060 z "},"Ữ":{"ha":914,"x_min":110,"x_max":874,"o":"m 874 1067 q 785 951 874 997 q 796 914 796 936 l 796 424 q 710 93 796 204 q 456 -18 624 -18 q 208 90 290 -18 q 126 424 126 197 l 126 801 q 110 950 126 901 q 174 975 139 975 q 220 959 203 975 q 238 914 238 943 l 238 419 q 290 126 238 219 q 456 33 343 33 q 628 131 571 33 q 686 419 686 229 l 686 801 q 668 950 686 897 q 708 972 688 967 q 783 1054 783 999 q 756 1125 783 1090 q 794 1149 768 1136 q 839 1165 819 1161 q 864 1121 854 1149 q 874 1067 874 1093 m 663 1158 q 622 1076 651 1107 q 549 1046 593 1046 q 503 1053 525 1046 q 454 1076 482 1061 q 410 1097 428 1090 q 372 1104 392 1104 q 292 1047 313 1104 l 289 1047 q 258 1061 272 1047 q 299 1149 267 1121 q 378 1176 332 1176 q 421 1169 401 1176 q 472 1147 440 1163 q 519 1126 501 1133 q 560 1119 538 1119 q 601 1131 588 1119 q 629 1169 615 1143 q 663 1158 651 1169 z "},"Ű":{"ha":914,"x_min":110,"x_max":796,"o":"m 796 424 q 710 93 796 204 q 456 -18 624 -18 q 208 90 290 -18 q 126 424 126 197 l 126 801 q 110 950 126 901 q 174 975 139 975 q 220 959 203 975 q 238 914 238 943 l 238 419 q 290 126 238 219 q 456 33 343 33 q 628 131 571 33 q 686 419 686 229 l 686 801 q 668 950 686 897 q 732 975 697 975 q 778 958 760 975 q 796 914 796 942 l 796 424 m 357 1015 q 340 1026 350 1017 q 326 1042 329 1036 l 471 1235 q 520 1214 493 1231 q 563 1176 547 1197 l 357 1015 m 538 1013 q 521 1024 531 1014 q 508 1039 511 1033 l 654 1231 q 703 1211 676 1228 q 744 1174 731 1194 l 538 1013 z "},"Ū":{"ha":914,"x_min":110,"x_max":796,"o":"m 796 424 q 710 93 796 204 q 456 -18 624 -18 q 208 90 290 -18 q 126 424 126 197 l 126 801 q 110 950 126 901 q 174 975 139 975 q 220 959 203 975 q 238 914 238 943 l 238 419 q 290 126 238 219 q 456 33 343 33 q 628 131 571 33 q 686 419 686 229 l 686 801 q 668 950 686 897 q 732 975 697 975 q 778 958 760 975 q 796 914 796 942 l 796 424 m 635 1133 q 640 1103 640 1114 q 635 1072 640 1094 l 278 1072 q 272 1103 272 1088 q 278 1133 272 1121 l 635 1133 z "},"Ų":{"ha":914,"x_min":110,"x_max":796,"o":"m 593 6 q 512 -49 539 -21 q 485 -118 485 -78 q 502 -166 485 -147 q 554 -185 519 -185 q 624 -162 594 -185 q 671 -110 654 -140 q 686 -135 686 -121 q 685 -146 686 -142 q 626 -212 667 -186 q 531 -237 585 -237 q 442 -211 481 -237 q 404 -131 404 -185 q 471 -18 404 -64 l 456 -18 q 208 90 290 -18 q 126 424 126 197 l 126 801 q 110 950 126 901 q 174 975 139 975 q 220 959 203 975 q 238 914 238 943 l 238 419 q 290 126 238 219 q 456 33 343 33 q 628 131 571 33 q 686 419 686 229 l 686 801 q 668 950 686 897 q 732 975 697 975 q 778 958 760 975 q 796 914 796 942 l 796 424 q 593 6 796 85 z "},"Ů":{"ha":914,"x_min":110,"x_max":796,"o":"m 796 424 q 710 93 796 204 q 456 -18 624 -18 q 208 90 290 -18 q 126 424 126 197 l 126 801 q 110 950 126 901 q 174 975 139 975 q 220 959 203 975 q 238 914 238 943 l 238 419 q 290 126 238 219 q 456 33 343 33 q 628 131 571 33 q 686 419 686 229 l 686 801 q 668 950 686 897 q 732 975 697 975 q 778 958 760 975 q 796 914 796 942 l 796 424 m 463 1258 q 552 1228 518 1258 q 586 1146 586 1197 q 550 1060 585 1092 q 457 1029 515 1029 q 367 1059 401 1029 q 333 1140 333 1089 q 369 1226 333 1194 q 463 1258 404 1258 m 460 1218 q 412 1198 429 1218 q 394 1143 394 1178 q 412 1088 394 1108 q 460 1068 429 1068 q 508 1088 490 1068 q 525 1143 525 1108 q 508 1198 525 1178 q 460 1218 490 1218 z "},"Ũ":{"ha":914,"x_min":110,"x_max":796,"o":"m 796 424 q 710 93 796 204 q 456 -18 624 -18 q 208 90 290 -18 q 126 424 126 197 l 126 801 q 110 950 126 901 q 174 975 139 975 q 220 959 203 975 q 238 914 238 943 l 238 419 q 290 126 238 219 q 456 33 343 33 q 628 131 571 33 q 686 419 686 229 l 686 801 q 668 950 686 897 q 732 975 697 975 q 778 958 760 975 q 796 914 796 942 l 796 424 m 656 1158 q 615 1076 644 1107 q 542 1046 586 1046 q 497 1053 518 1046 q 447 1076 475 1061 q 403 1097 421 1090 q 365 1104 385 1104 q 285 1047 306 1104 l 282 1047 q 251 1061 265 1047 q 292 1149 260 1121 q 371 1176 325 1176 q 414 1169 394 1176 q 465 1147 433 1163 q 513 1126 494 1133 q 553 1119 531 1119 q 594 1131 581 1119 q 622 1169 608 1143 q 656 1158 644 1169 z "},"V":{"ha":806,"x_min":13,"x_max":776,"o":"m 708 981 q 774 931 776 981 q 761 867 774 910 l 472 3 q 397 -15 435 -15 q 322 21 335 -15 l 46 890 q 13 954 36 929 q 82 981 39 981 q 129 969 111 981 q 153 936 147 958 l 410 69 l 650 893 q 658 938 658 918 q 650 969 658 960 q 708 981 676 981 z "},"W":{"ha":1281,"x_min":28,"x_max":1249,"o":"m 1182 978 q 1247 928 1249 978 q 1242 893 1247 915 q 1235 864 1236 871 l 993 3 q 917 -15 956 -15 q 871 -6 889 -15 q 847 21 853 3 l 647 728 l 439 3 q 365 -15 401 -15 q 292 21 300 -15 l 61 890 q 28 954 51 925 q 96 981 54 981 q 144 969 125 981 q 168 936 163 958 l 379 81 l 582 796 q 586 826 586 813 q 578 864 586 847 q 617 877 594 872 q 656 882 639 882 q 691 876 676 882 q 711 857 706 869 l 932 82 l 1124 890 q 1128 911 1125 897 q 1132 935 1132 925 q 1124 968 1132 956 q 1182 978 1153 978 z "},"Ẃ":{"ha":1281,"x_min":28,"x_max":1249,"o":"m 1182 978 q 1247 928 1249 978 q 1242 893 1247 915 q 1235 864 1236 871 l 993 3 q 917 -15 956 -15 q 871 -6 889 -15 q 847 21 853 3 l 647 728 l 439 3 q 365 -15 401 -15 q 292 21 300 -15 l 61 890 q 28 954 51 925 q 96 981 54 981 q 144 969 125 981 q 168 936 163 958 l 379 81 l 582 796 q 586 826 586 813 q 578 864 586 847 q 617 877 594 872 q 656 882 639 882 q 691 876 676 882 q 711 857 706 869 l 932 82 l 1124 890 q 1128 911 1125 897 q 1132 935 1132 925 q 1124 968 1132 956 q 1182 978 1153 978 m 610 1022 q 595 1037 603 1025 q 588 1056 588 1049 l 776 1214 q 819 1181 797 1204 q 850 1136 840 1158 l 610 1022 z "},"Ŵ":{"ha":1281,"x_min":28,"x_max":1249,"o":"m 1182 978 q 1247 928 1249 978 q 1242 893 1247 915 q 1235 864 1236 871 l 993 3 q 917 -15 956 -15 q 871 -6 889 -15 q 847 21 853 3 l 647 728 l 439 3 q 365 -15 401 -15 q 292 21 300 -15 l 61 890 q 28 954 51 925 q 96 981 54 981 q 144 969 125 981 q 168 936 163 958 l 379 81 l 582 796 q 586 826 586 813 q 578 864 586 847 q 617 877 594 872 q 656 882 639 882 q 691 876 676 882 q 711 857 706 869 l 932 82 l 1124 890 q 1128 911 1125 897 q 1132 935 1132 925 q 1124 968 1132 956 q 1182 978 1153 978 m 854 1047 q 843 1030 851 1040 q 826 1017 835 1019 l 644 1125 l 461 1017 q 445 1030 454 1019 q 433 1047 436 1040 l 608 1206 q 643 1210 621 1210 q 679 1206 667 1210 l 854 1047 z "},"Ẅ":{"ha":1281,"x_min":28,"x_max":1249,"o":"m 1182 978 q 1247 928 1249 978 q 1242 893 1247 915 q 1235 864 1236 871 l 993 3 q 917 -15 956 -15 q 871 -6 889 -15 q 847 21 853 3 l 647 728 l 439 3 q 365 -15 401 -15 q 292 21 300 -15 l 61 890 q 28 954 51 925 q 96 981 54 981 q 144 969 125 981 q 168 936 163 958 l 379 81 l 582 796 q 586 826 586 813 q 578 864 586 847 q 617 877 594 872 q 656 882 639 882 q 691 876 676 882 q 711 857 706 869 l 932 82 l 1124 890 q 1128 911 1125 897 q 1132 935 1132 925 q 1124 968 1132 956 q 1182 978 1153 978 m 521 1053 q 470 1074 490 1053 q 450 1124 450 1094 q 470 1174 450 1153 q 521 1194 490 1194 q 570 1174 549 1194 q 592 1124 592 1153 q 570 1074 592 1094 q 521 1053 549 1053 m 778 1053 q 728 1074 749 1053 q 707 1124 707 1094 q 728 1174 707 1153 q 778 1194 749 1194 q 828 1174 807 1194 q 849 1124 849 1153 q 828 1074 849 1094 q 778 1053 807 1053 z "},"Ẁ":{"ha":1281,"x_min":28,"x_max":1249,"o":"m 1182 978 q 1247 928 1249 978 q 1242 893 1247 915 q 1235 864 1236 871 l 993 3 q 917 -15 956 -15 q 871 -6 889 -15 q 847 21 853 3 l 647 728 l 439 3 q 365 -15 401 -15 q 292 21 300 -15 l 61 890 q 28 954 51 925 q 96 981 54 981 q 144 969 125 981 q 168 936 163 958 l 379 81 l 582 796 q 586 826 586 813 q 578 864 586 847 q 617 877 594 872 q 656 882 639 882 q 691 876 676 882 q 711 857 706 869 l 932 82 l 1124 890 q 1128 911 1125 897 q 1132 935 1132 925 q 1124 968 1132 956 q 1182 978 1153 978 m 440 1136 q 472 1181 450 1158 q 514 1214 493 1204 l 703 1056 q 695 1037 703 1049 q 681 1022 688 1025 l 440 1136 z "},"X":{"ha":839,"x_min":38,"x_max":818,"o":"m 775 128 q 806 106 794 122 q 818 69 818 90 q 788 11 818 36 q 711 -14 758 -14 q 626 17 660 -14 q 563 106 593 47 l 404 404 l 156 22 q 99 -12 135 -12 q 56 4 71 -12 q 38 57 42 21 q 88 90 64 67 q 143 158 111 114 l 364 478 l 181 819 q 151 860 165 847 q 121 872 138 872 q 90 860 101 872 q 79 831 79 847 q 49 853 60 838 q 38 890 38 868 q 64 949 38 924 q 140 974 90 974 q 228 942 193 974 q 293 853 263 911 l 439 574 l 664 942 q 688 967 675 958 q 721 976 700 976 q 763 960 749 976 q 782 907 778 943 q 676 806 731 886 l 475 507 l 674 140 q 736 86 704 86 q 765 99 754 86 q 775 128 775 113 z "},"Y":{"ha":768,"x_min":18,"x_max":739,"o":"m 440 346 l 440 158 q 458 10 440 63 q 432 -8 449 0 q 394 -15 415 -15 q 348 1 365 -15 q 331 46 331 18 l 329 346 q 314 371 318 363 l 65 876 q 18 942 51 906 q 51 967 31 956 q 99 978 72 978 q 144 963 128 978 q 175 917 161 947 l 403 426 l 618 883 q 632 932 632 915 q 622 967 632 953 q 683 978 647 978 q 724 963 710 978 q 739 924 738 947 q 711 851 739 897 l 440 346 z "},"Ý":{"ha":768,"x_min":18,"x_max":739,"o":"m 440 346 l 440 158 q 458 10 440 63 q 432 -8 449 0 q 394 -15 415 -15 q 348 1 365 -15 q 331 46 331 18 l 329 346 q 314 371 318 363 l 65 876 q 18 942 51 906 q 51 967 31 956 q 99 978 72 978 q 144 963 128 978 q 175 917 161 947 l 403 426 l 618 883 q 632 932 632 915 q 622 967 632 953 q 683 978 647 978 q 724 963 710 978 q 739 924 738 947 q 711 851 739 897 l 440 346 m 371 1022 q 356 1037 364 1025 q 349 1056 349 1049 l 538 1214 q 580 1181 558 1204 q 611 1136 601 1158 l 371 1022 z "},"Ŷ":{"ha":768,"x_min":18,"x_max":739,"o":"m 440 346 l 440 158 q 458 10 440 63 q 432 -8 449 0 q 394 -15 415 -15 q 348 1 365 -15 q 331 46 331 18 l 329 346 q 314 371 318 363 l 65 876 q 18 942 51 906 q 51 967 31 956 q 99 978 72 978 q 144 963 128 978 q 175 917 161 947 l 403 426 l 618 883 q 632 932 632 915 q 622 967 632 953 q 683 978 647 978 q 724 963 710 978 q 739 924 738 947 q 711 851 739 897 l 440 346 m 615 1047 q 604 1030 613 1040 q 588 1017 596 1019 l 406 1125 l 222 1017 q 206 1030 215 1019 q 194 1047 197 1040 l 369 1206 q 404 1210 382 1210 q 440 1206 428 1210 l 615 1047 z "},"Ÿ":{"ha":768,"x_min":18,"x_max":739,"o":"m 440 346 l 440 158 q 458 10 440 63 q 432 -8 449 0 q 394 -15 415 -15 q 348 1 365 -15 q 331 46 331 18 l 329 346 q 314 371 318 363 l 65 876 q 18 942 51 906 q 51 967 31 956 q 99 978 72 978 q 144 963 128 978 q 175 917 161 947 l 403 426 l 618 883 q 632 932 632 915 q 622 967 632 953 q 683 978 647 978 q 724 963 710 978 q 739 924 738 947 q 711 851 739 897 l 440 346 m 282 1053 q 231 1074 251 1053 q 211 1124 211 1094 q 231 1174 211 1153 q 282 1194 251 1194 q 331 1174 310 1194 q 353 1124 353 1153 q 331 1074 353 1094 q 282 1053 310 1053 m 539 1053 q 489 1074 510 1053 q 468 1124 468 1094 q 489 1174 468 1153 q 539 1194 510 1194 q 589 1174 568 1194 q 610 1124 610 1153 q 589 1074 610 1094 q 539 1053 568 1053 z "},"Ẏ":{"ha":768,"x_min":18,"x_max":739,"o":"m 440 346 l 440 158 q 458 10 440 63 q 432 -8 449 0 q 394 -15 415 -15 q 348 1 365 -15 q 331 46 331 18 l 329 346 q 314 371 318 363 l 65 876 q 18 942 51 906 q 51 967 31 956 q 99 978 72 978 q 144 963 128 978 q 175 917 161 947 l 403 426 l 618 883 q 632 932 632 915 q 622 967 632 953 q 683 978 647 978 q 724 963 710 978 q 739 924 738 947 q 711 851 739 897 l 440 346 m 407 1046 q 358 1067 379 1046 q 336 1117 336 1088 q 358 1167 336 1146 q 407 1188 379 1188 q 458 1167 436 1188 q 479 1117 479 1146 q 458 1067 479 1088 q 407 1046 436 1046 z "},"Ỵ":{"ha":768,"x_min":18,"x_max":739,"o":"m 440 346 l 440 158 q 458 10 440 63 q 432 -8 449 0 q 394 -15 415 -15 q 348 1 365 -15 q 331 46 331 18 l 329 346 q 314 371 318 363 l 65 876 q 18 942 51 906 q 51 967 31 956 q 99 978 72 978 q 144 963 128 978 q 175 917 161 947 l 403 426 l 618 883 q 632 932 632 915 q 622 967 632 953 q 683 978 647 978 q 724 963 710 978 q 739 924 738 947 q 711 851 739 897 l 440 346 m 397 -208 q 349 -188 369 -208 q 329 -140 329 -168 q 349 -92 329 -112 q 397 -72 369 -72 q 445 -92 425 -72 q 465 -140 465 -112 q 445 -188 465 -168 q 397 -208 425 -208 z "},"Ỳ":{"ha":768,"x_min":18,"x_max":739,"o":"m 440 346 l 440 158 q 458 10 440 63 q 432 -8 449 0 q 394 -15 415 -15 q 348 1 365 -15 q 331 46 331 18 l 329 346 q 314 371 318 363 l 65 876 q 18 942 51 906 q 51 967 31 956 q 99 978 72 978 q 144 963 128 978 q 175 917 161 947 l 403 426 l 618 883 q 632 932 632 915 q 622 967 632 953 q 683 978 647 978 q 724 963 710 978 q 739 924 738 947 q 711 851 739 897 l 440 346 m 200 1136 q 231 1181 210 1158 q 274 1214 253 1204 l 463 1056 q 455 1037 463 1049 q 440 1022 447 1025 l 200 1136 z "},"Ỷ":{"ha":768,"x_min":18,"x_max":739,"o":"m 440 346 l 440 158 q 458 10 440 63 q 432 -8 449 0 q 394 -15 415 -15 q 348 1 365 -15 q 331 46 331 18 l 329 346 q 314 371 318 363 l 65 876 q 18 942 51 906 q 51 967 31 956 q 99 978 72 978 q 144 963 128 978 q 175 917 161 947 l 403 426 l 618 883 q 632 932 632 915 q 622 967 632 953 q 683 978 647 978 q 724 963 710 978 q 739 924 738 947 q 711 851 739 897 l 440 346 m 363 1060 q 417 1084 401 1072 q 432 1115 432 1096 q 403 1148 432 1139 q 338 1157 374 1157 l 335 1208 q 460 1192 407 1211 q 514 1121 514 1172 q 481 1057 514 1082 q 374 1021 449 1032 l 363 1060 z "},"Ỹ":{"ha":768,"x_min":18,"x_max":739,"o":"m 440 346 l 440 158 q 458 10 440 63 q 432 -8 449 0 q 394 -15 415 -15 q 348 1 365 -15 q 331 46 331 18 l 329 346 q 314 371 318 363 l 65 876 q 18 942 51 906 q 51 967 31 956 q 99 978 72 978 q 144 963 128 978 q 175 917 161 947 l 403 426 l 618 883 q 632 932 632 915 q 622 967 632 953 q 683 978 647 978 q 724 963 710 978 q 739 924 738 947 q 711 851 739 897 l 440 346 m 607 1158 q 567 1076 596 1107 q 493 1046 538 1046 q 448 1053 469 1046 q 399 1076 426 1061 q 354 1097 372 1090 q 317 1104 336 1104 q 236 1047 257 1104 l 233 1047 q 203 1061 217 1047 q 244 1149 211 1121 q 322 1176 276 1176 q 365 1169 346 1176 q 417 1147 385 1163 q 464 1126 446 1133 q 504 1119 482 1119 q 546 1131 532 1119 q 574 1169 560 1143 q 607 1158 596 1169 z "},"Z":{"ha":796,"x_min":67,"x_max":757,"o":"m 672 274 q 734 226 711 265 q 757 143 757 188 q 708 38 757 78 q 563 -1 658 -3 l 238 3 q 88 -8 151 6 l 67 24 q 75 77 67 53 q 103 126 83 101 l 617 876 l 278 865 q 189 840 218 864 q 160 775 160 817 q 168 739 160 754 q 193 707 176 724 l 181 706 q 138 715 163 706 q 89 756 108 722 q 69 828 69 789 q 120 928 69 889 q 268 965 171 967 l 528 960 q 635 962 599 960 q 697 971 672 964 l 721 938 q 713 880 721 904 q 688 831 706 856 l 169 88 l 531 97 q 626 120 594 99 q 664 175 658 142 q 667 200 667 192 q 636 275 667 242 l 654 276 q 672 274 658 276 z "},"Ź":{"ha":796,"x_min":67,"x_max":757,"o":"m 672 274 q 734 226 711 265 q 757 143 757 188 q 708 38 757 78 q 563 -1 658 -3 l 238 3 q 88 -8 151 6 l 67 24 q 75 77 67 53 q 103 126 83 101 l 617 876 l 278 865 q 189 840 218 864 q 160 775 160 817 q 168 739 160 754 q 193 707 176 724 l 181 706 q 138 715 163 706 q 89 756 108 722 q 69 828 69 789 q 120 928 69 889 q 268 965 171 967 l 528 960 q 635 962 599 960 q 697 971 672 964 l 721 938 q 713 880 721 904 q 688 831 706 856 l 169 88 l 531 97 q 626 120 594 99 q 664 175 658 142 q 667 200 667 192 q 636 275 667 242 l 654 276 q 672 274 658 276 m 367 1022 q 352 1037 360 1025 q 344 1056 344 1049 l 533 1214 q 576 1181 554 1204 q 607 1136 597 1158 l 367 1022 z "},"Ž":{"ha":796,"x_min":67,"x_max":757,"o":"m 672 274 q 734 226 711 265 q 757 143 757 188 q 708 38 757 78 q 563 -1 658 -3 l 238 3 q 88 -8 151 6 l 67 24 q 75 77 67 53 q 103 126 83 101 l 617 876 l 278 865 q 189 840 218 864 q 160 775 160 817 q 168 739 160 754 q 193 707 176 724 l 181 706 q 138 715 163 706 q 89 756 108 722 q 69 828 69 789 q 120 928 69 889 q 268 965 171 967 l 528 960 q 635 962 599 960 q 697 971 672 964 l 721 938 q 713 880 721 904 q 688 831 706 856 l 169 88 l 531 97 q 626 120 594 99 q 664 175 658 142 q 667 200 667 192 q 636 275 667 242 l 654 276 q 672 274 658 276 m 438 1029 q 401 1025 425 1025 q 367 1029 379 1025 l 192 1188 q 203 1205 194 1194 q 219 1218 213 1215 l 403 1110 l 585 1218 q 601 1205 592 1215 q 613 1188 610 1194 l 438 1029 z "},"Ż":{"ha":796,"x_min":67,"x_max":757,"o":"m 672 274 q 734 226 711 265 q 757 143 757 188 q 708 38 757 78 q 563 -1 658 -3 l 238 3 q 88 -8 151 6 l 67 24 q 75 77 67 53 q 103 126 83 101 l 617 876 l 278 865 q 189 840 218 864 q 160 775 160 817 q 168 739 160 754 q 193 707 176 724 l 181 706 q 138 715 163 706 q 89 756 108 722 q 69 828 69 789 q 120 928 69 889 q 268 965 171 967 l 528 960 q 635 962 599 960 q 697 971 672 964 l 721 938 q 713 880 721 904 q 688 831 706 856 l 169 88 l 531 97 q 626 120 594 99 q 664 175 658 142 q 667 200 667 192 q 636 275 667 242 l 654 276 q 672 274 658 276 m 403 1046 q 353 1067 375 1046 q 332 1117 332 1088 q 353 1167 332 1146 q 403 1188 375 1188 q 453 1167 432 1188 q 475 1117 475 1146 q 453 1067 475 1088 q 403 1046 432 1046 z "},"Ẓ":{"ha":796,"x_min":67,"x_max":757,"o":"m 672 274 q 734 226 711 265 q 757 143 757 188 q 708 38 757 78 q 563 -1 658 -3 l 238 3 q 88 -8 151 6 l 67 24 q 75 77 67 53 q 103 126 83 101 l 617 876 l 278 865 q 189 840 218 864 q 160 775 160 817 q 168 739 160 754 q 193 707 176 724 l 181 706 q 138 715 163 706 q 89 756 108 722 q 69 828 69 789 q 120 928 69 889 q 268 965 171 967 l 528 960 q 635 962 599 960 q 697 971 672 964 l 721 938 q 713 880 721 904 q 688 831 706 856 l 169 88 l 531 97 q 626 120 594 99 q 664 175 658 142 q 667 200 667 192 q 636 275 667 242 l 654 276 q 672 274 658 276 m 406 -208 q 358 -188 378 -208 q 338 -140 338 -168 q 358 -92 338 -112 q 406 -72 378 -72 q 453 -92 433 -72 q 474 -140 474 -112 q 453 -188 474 -168 q 406 -208 433 -208 z "},"a":{"ha":764,"x_min":63,"x_max":750,"o":"m 735 101 q 750 58 750 81 q 722 7 750 28 q 653 -14 693 -14 q 563 28 593 -14 q 532 158 532 69 l 532 199 q 408 42 486 100 q 236 -15 329 -15 q 109 28 156 -15 q 63 146 63 72 q 125 285 63 228 q 293 371 188 342 q 486 396 386 396 q 526 394 514 396 l 526 431 q 485 614 526 554 q 350 674 444 674 q 247 647 289 674 q 206 561 206 621 q 220 501 206 529 q 265 463 235 474 q 199 435 243 435 q 124 472 153 435 q 94 557 94 508 q 165 681 94 638 q 360 724 236 724 q 571 650 503 724 q 639 424 639 576 l 639 146 q 689 72 639 72 q 714 80 700 72 q 735 101 728 88 m 281 63 q 394 103 336 63 q 490 211 451 144 q 529 350 528 278 l 497 351 q 399 344 449 351 q 314 322 349 336 q 218 261 253 300 q 183 169 183 222 q 207 93 183 124 q 281 63 231 63 z "},"á":{"ha":764,"x_min":63,"x_max":750,"o":"m 735 101 q 750 58 750 81 q 722 7 750 28 q 653 -14 693 -14 q 563 28 593 -14 q 532 158 532 69 l 532 199 q 408 42 486 100 q 236 -15 329 -15 q 109 28 156 -15 q 63 146 63 72 q 125 285 63 228 q 293 371 188 342 q 486 396 386 396 q 526 394 514 396 l 526 431 q 485 614 526 554 q 350 674 444 674 q 247 647 289 674 q 206 561 206 621 q 220 501 206 529 q 265 463 235 474 q 199 435 243 435 q 124 472 153 435 q 94 557 94 508 q 165 681 94 638 q 360 724 236 724 q 571 650 503 724 q 639 424 639 576 l 639 146 q 689 72 639 72 q 714 80 700 72 q 735 101 728 88 m 281 63 q 394 103 336 63 q 490 211 451 144 q 529 350 528 278 l 497 351 q 399 344 449 351 q 314 322 349 336 q 218 261 253 300 q 183 169 183 222 q 207 93 183 124 q 281 63 231 63 m 372 782 q 342 785 358 782 q 322 792 326 788 l 449 1000 q 510 992 474 1001 q 558 974 546 983 l 372 782 z "},"ă":{"ha":764,"x_min":63,"x_max":750,"o":"m 735 101 q 750 58 750 81 q 722 7 750 28 q 653 -14 693 -14 q 563 28 593 -14 q 532 158 532 69 l 532 199 q 408 42 486 100 q 236 -15 329 -15 q 109 28 156 -15 q 63 146 63 72 q 125 285 63 228 q 293 371 188 342 q 486 396 386 396 q 526 394 514 396 l 526 431 q 485 614 526 554 q 350 674 444 674 q 247 647 289 674 q 206 561 206 621 q 220 501 206 529 q 265 463 235 474 q 199 435 243 435 q 124 472 153 435 q 94 557 94 508 q 165 681 94 638 q 360 724 236 724 q 571 650 503 724 q 639 424 639 576 l 639 146 q 689 72 639 72 q 714 80 700 72 q 735 101 728 88 m 281 63 q 394 103 336 63 q 490 211 451 144 q 529 350 528 278 l 497 351 q 399 344 449 351 q 314 322 349 336 q 218 261 253 300 q 183 169 183 222 q 207 93 183 124 q 281 63 231 63 m 367 868 q 462 899 425 868 q 518 976 499 931 q 563 963 544 972 q 492 838 542 886 q 364 789 443 789 q 227 840 276 789 q 161 960 178 890 q 207 978 179 974 q 266 899 225 931 q 367 868 307 868 z "},"ắ":{"ha":764,"x_min":63,"x_max":750,"o":"m 735 101 q 750 58 750 81 q 722 7 750 28 q 653 -14 693 -14 q 563 28 593 -14 q 532 158 532 69 l 532 199 q 408 42 486 100 q 236 -15 329 -15 q 109 28 156 -15 q 63 146 63 72 q 125 285 63 228 q 293 371 188 342 q 486 396 386 396 q 526 394 514 396 l 526 431 q 485 614 526 554 q 350 674 444 674 q 247 647 289 674 q 206 561 206 621 q 220 501 206 529 q 265 463 235 474 q 199 435 243 435 q 124 472 153 435 q 94 557 94 508 q 165 681 94 638 q 360 724 236 724 q 571 650 503 724 q 639 424 639 576 l 639 146 q 689 72 639 72 q 714 80 700 72 q 735 101 728 88 m 281 63 q 394 103 336 63 q 490 211 451 144 q 529 350 528 278 l 497 351 q 399 344 449 351 q 314 322 349 336 q 218 261 253 300 q 183 169 183 222 q 207 93 183 124 q 281 63 231 63 m 367 868 q 462 899 425 868 q 518 976 499 931 q 563 963 544 972 q 492 838 542 886 q 364 789 443 789 q 227 840 276 789 q 161 960 178 890 q 207 978 179 974 q 266 899 225 931 q 367 868 307 868 m 369 935 q 340 938 356 935 q 319 944 324 940 l 446 1153 q 507 1145 471 1154 q 556 1126 543 1136 l 369 935 z "},"ặ":{"ha":764,"x_min":63,"x_max":750,"o":"m 735 101 q 750 58 750 81 q 722 7 750 28 q 653 -14 693 -14 q 563 28 593 -14 q 532 158 532 69 l 532 199 q 408 42 486 100 q 236 -15 329 -15 q 109 28 156 -15 q 63 146 63 72 q 125 285 63 228 q 293 371 188 342 q 486 396 386 396 q 526 394 514 396 l 526 431 q 485 614 526 554 q 350 674 444 674 q 247 647 289 674 q 206 561 206 621 q 220 501 206 529 q 265 463 235 474 q 199 435 243 435 q 124 472 153 435 q 94 557 94 508 q 165 681 94 638 q 360 724 236 724 q 571 650 503 724 q 639 424 639 576 l 639 146 q 689 72 639 72 q 714 80 700 72 q 735 101 728 88 m 281 63 q 394 103 336 63 q 490 211 451 144 q 529 350 528 278 l 497 351 q 399 344 449 351 q 314 322 349 336 q 218 261 253 300 q 183 169 183 222 q 207 93 183 124 q 281 63 231 63 m 385 -207 q 332 -185 354 -207 q 310 -132 310 -162 q 332 -78 310 -100 q 385 -56 354 -56 q 438 -78 415 -56 q 460 -132 460 -100 q 438 -185 460 -162 q 385 -207 415 -207 m 367 868 q 462 899 425 868 q 518 976 499 931 q 563 963 544 972 q 492 838 542 886 q 364 789 443 789 q 227 840 276 789 q 161 960 178 890 q 207 978 179 974 q 266 899 225 931 q 367 868 307 868 z "},"ằ":{"ha":764,"x_min":63,"x_max":750,"o":"m 735 101 q 750 58 750 81 q 722 7 750 28 q 653 -14 693 -14 q 563 28 593 -14 q 532 158 532 69 l 532 199 q 408 42 486 100 q 236 -15 329 -15 q 109 28 156 -15 q 63 146 63 72 q 125 285 63 228 q 293 371 188 342 q 486 396 386 396 q 526 394 514 396 l 526 431 q 485 614 526 554 q 350 674 444 674 q 247 647 289 674 q 206 561 206 621 q 220 501 206 529 q 265 463 235 474 q 199 435 243 435 q 124 472 153 435 q 94 557 94 508 q 165 681 94 638 q 360 724 236 724 q 571 650 503 724 q 639 424 639 576 l 639 146 q 689 72 639 72 q 714 80 700 72 q 735 101 728 88 m 281 63 q 394 103 336 63 q 490 211 451 144 q 529 350 528 278 l 497 351 q 399 344 449 351 q 314 322 349 336 q 218 261 253 300 q 183 169 183 222 q 207 93 183 124 q 281 63 231 63 m 367 868 q 462 899 425 868 q 518 976 499 931 q 563 963 544 972 q 492 838 542 886 q 364 789 443 789 q 227 840 276 789 q 161 960 178 890 q 207 978 179 974 q 266 899 225 931 q 367 868 307 868 m 164 1126 q 214 1145 178 1136 q 275 1153 250 1154 l 401 944 q 381 938 397 940 q 351 935 365 935 l 164 1126 z "},"ẳ":{"ha":764,"x_min":63,"x_max":750,"o":"m 735 101 q 750 58 750 81 q 722 7 750 28 q 653 -14 693 -14 q 563 28 593 -14 q 532 158 532 69 l 532 199 q 408 42 486 100 q 236 -15 329 -15 q 109 28 156 -15 q 63 146 63 72 q 125 285 63 228 q 293 371 188 342 q 486 396 386 396 q 526 394 514 396 l 526 431 q 485 614 526 554 q 350 674 444 674 q 247 647 289 674 q 206 561 206 621 q 220 501 206 529 q 265 463 235 474 q 199 435 243 435 q 124 472 153 435 q 94 557 94 508 q 165 681 94 638 q 360 724 236 724 q 571 650 503 724 q 639 424 639 576 l 639 146 q 689 72 639 72 q 714 80 700 72 q 735 101 728 88 m 281 63 q 394 103 336 63 q 490 211 451 144 q 529 350 528 278 l 497 351 q 399 344 449 351 q 314 322 349 336 q 218 261 253 300 q 183 169 183 222 q 207 93 183 124 q 281 63 231 63 m 367 868 q 462 899 425 868 q 518 976 499 931 q 563 963 544 972 q 492 838 542 886 q 364 789 443 789 q 227 840 276 789 q 161 960 178 890 q 207 978 179 974 q 266 899 225 931 q 367 868 307 868 m 317 956 q 371 980 356 968 q 386 1011 386 992 q 357 1044 386 1035 q 292 1053 328 1053 l 289 1104 q 415 1088 361 1107 q 468 1017 468 1068 q 435 953 468 978 q 328 917 403 928 l 317 956 z "},"ẵ":{"ha":764,"x_min":63,"x_max":750,"o":"m 364 789 q 227 840 276 789 q 161 960 178 890 l 176 969 q 161 979 169 971 q 203 1068 169 1039 q 282 1097 238 1097 q 327 1088 307 1097 q 372 1063 347 1079 q 417 1038 400 1046 q 456 1031 433 1031 q 499 1046 485 1031 q 526 1092 514 1061 q 557 1079 544 1092 q 519 992 549 1025 q 446 960 490 960 q 403 968 422 960 q 357 994 385 976 q 315 1018 333 1010 q 276 1026 297 1026 q 197 976 221 1026 l 207 978 q 266 899 225 931 q 367 868 307 868 q 462 899 425 868 q 518 976 499 931 q 563 963 544 972 q 492 838 542 886 q 364 789 443 789 m 735 101 q 750 58 750 81 q 722 7 750 28 q 653 -14 693 -14 q 563 28 593 -14 q 532 158 532 69 l 532 199 q 408 42 486 100 q 236 -15 329 -15 q 109 28 156 -15 q 63 146 63 72 q 125 285 63 228 q 293 371 188 342 q 486 396 386 396 q 526 394 514 396 l 526 431 q 485 614 526 554 q 350 674 444 674 q 247 647 289 674 q 206 561 206 621 q 220 501 206 529 q 265 463 235 474 q 199 435 243 435 q 124 472 153 435 q 94 557 94 508 q 165 681 94 638 q 360 724 236 724 q 571 650 503 724 q 639 424 639 576 l 639 146 q 689 72 639 72 q 714 80 700 72 q 735 101 728 88 m 281 63 q 394 103 336 63 q 490 211 451 144 q 529 350 528 278 l 497 351 q 399 344 449 351 q 314 322 349 336 q 218 261 253 300 q 183 169 183 222 q 207 93 183 124 q 281 63 231 63 z "},"ǎ":{"ha":764,"x_min":63,"x_max":750,"o":"m 735 101 q 750 58 750 81 q 722 7 750 28 q 653 -14 693 -14 q 563 28 593 -14 q 532 158 532 69 l 532 199 q 408 42 486 100 q 236 -15 329 -15 q 109 28 156 -15 q 63 146 63 72 q 125 285 63 228 q 293 371 188 342 q 486 396 386 396 q 526 394 514 396 l 526 431 q 485 614 526 554 q 350 674 444 674 q 247 647 289 674 q 206 561 206 621 q 220 501 206 529 q 265 463 235 474 q 199 435 243 435 q 124 472 153 435 q 94 557 94 508 q 165 681 94 638 q 360 724 236 724 q 571 650 503 724 q 639 424 639 576 l 639 146 q 689 72 639 72 q 714 80 700 72 q 735 101 728 88 m 281 63 q 394 103 336 63 q 490 211 451 144 q 529 350 528 278 l 497 351 q 399 344 449 351 q 314 322 349 336 q 218 261 253 300 q 183 169 183 222 q 207 93 183 124 q 281 63 231 63 m 365 875 l 522 996 q 547 991 531 996 q 567 981 563 986 l 400 789 q 364 786 383 786 q 329 789 346 786 l 163 981 q 181 991 165 986 q 207 996 197 996 l 365 875 z "},"â":{"ha":764,"x_min":63,"x_max":750,"o":"m 735 101 q 750 58 750 81 q 722 7 750 28 q 653 -14 693 -14 q 563 28 593 -14 q 532 158 532 69 l 532 199 q 408 42 486 100 q 236 -15 329 -15 q 109 28 156 -15 q 63 146 63 72 q 125 285 63 228 q 293 371 188 342 q 486 396 386 396 q 526 394 514 396 l 526 431 q 485 614 526 554 q 350 674 444 674 q 247 647 289 674 q 206 561 206 621 q 220 501 206 529 q 265 463 235 474 q 199 435 243 435 q 124 472 153 435 q 94 557 94 508 q 165 681 94 638 q 360 724 236 724 q 571 650 503 724 q 639 424 639 576 l 639 146 q 689 72 639 72 q 714 80 700 72 q 735 101 728 88 m 281 63 q 394 103 336 63 q 490 211 451 144 q 529 350 528 278 l 497 351 q 399 344 449 351 q 314 322 349 336 q 218 261 253 300 q 183 169 183 222 q 207 93 183 124 q 281 63 231 63 m 204 781 q 178 785 194 781 q 160 796 163 790 l 326 986 q 361 990 339 990 q 397 986 385 990 l 564 796 q 544 785 560 790 q 519 781 529 781 l 363 901 l 204 781 z "},"ấ":{"ha":764,"x_min":63,"x_max":750,"o":"m 557 864 q 528 867 543 864 q 507 874 513 869 l 608 1035 q 619 1036 611 1036 q 665 1028 639 1036 q 700 1011 690 1019 l 557 864 m 204 772 q 181 778 194 772 q 165 789 168 783 l 321 965 q 358 969 333 969 q 390 965 378 969 l 546 789 q 530 778 544 783 q 507 772 515 772 l 357 890 l 204 772 m 735 101 q 750 58 750 81 q 722 7 750 28 q 653 -14 693 -14 q 563 28 593 -14 q 532 158 532 69 l 532 199 q 408 42 486 100 q 236 -15 329 -15 q 109 28 156 -15 q 63 146 63 72 q 125 285 63 228 q 293 371 188 342 q 486 396 386 396 q 526 394 514 396 l 526 431 q 485 614 526 554 q 350 674 444 674 q 247 647 289 674 q 206 561 206 621 q 220 501 206 529 q 265 463 235 474 q 199 435 243 435 q 124 472 153 435 q 94 557 94 508 q 165 681 94 638 q 360 724 236 724 q 571 650 503 724 q 639 424 639 576 l 639 146 q 689 72 639 72 q 714 80 700 72 q 735 101 728 88 m 281 63 q 394 103 336 63 q 490 211 451 144 q 529 350 528 278 l 497 351 q 399 344 449 351 q 314 322 349 336 q 218 261 253 300 q 183 169 183 222 q 207 93 183 124 q 281 63 231 63 z "},"ậ":{"ha":764,"x_min":63,"x_max":750,"o":"m 735 101 q 750 58 750 81 q 722 7 750 28 q 653 -14 693 -14 q 563 28 593 -14 q 532 158 532 69 l 532 199 q 408 42 486 100 q 236 -15 329 -15 q 109 28 156 -15 q 63 146 63 72 q 125 285 63 228 q 293 371 188 342 q 486 396 386 396 q 526 394 514 396 l 526 431 q 485 614 526 554 q 350 674 444 674 q 247 647 289 674 q 206 561 206 621 q 220 501 206 529 q 265 463 235 474 q 199 435 243 435 q 124 472 153 435 q 94 557 94 508 q 165 681 94 638 q 360 724 236 724 q 571 650 503 724 q 639 424 639 576 l 639 146 q 689 72 639 72 q 714 80 700 72 q 735 101 728 88 m 281 63 q 394 103 336 63 q 490 211 451 144 q 529 350 528 278 l 497 351 q 399 344 449 351 q 314 322 349 336 q 218 261 253 300 q 183 169 183 222 q 207 93 183 124 q 281 63 231 63 m 385 -207 q 332 -185 354 -207 q 310 -132 310 -162 q 332 -78 310 -100 q 385 -56 354 -56 q 438 -78 415 -56 q 460 -132 460 -100 q 438 -185 460 -162 q 385 -207 415 -207 m 204 781 q 178 785 194 781 q 160 796 163 790 l 326 986 q 361 990 339 990 q 397 986 385 990 l 564 796 q 544 785 560 790 q 519 781 529 781 l 363 901 l 204 781 z "},"ầ":{"ha":764,"x_min":63,"x_max":750,"o":"m 651 864 q 631 857 646 860 q 603 854 617 854 l 458 1001 q 494 1018 469 1010 q 540 1026 519 1026 q 551 1025 547 1026 l 651 864 m 204 768 q 180 775 193 769 q 165 786 167 781 l 321 961 q 356 965 333 965 q 390 961 378 965 l 546 786 q 530 774 544 781 q 507 768 515 768 l 357 888 l 204 768 m 735 101 q 750 58 750 81 q 722 7 750 28 q 653 -14 693 -14 q 563 28 593 -14 q 532 158 532 69 l 532 199 q 408 42 486 100 q 236 -15 329 -15 q 109 28 156 -15 q 63 146 63 72 q 125 285 63 228 q 293 371 188 342 q 486 396 386 396 q 526 394 514 396 l 526 431 q 485 614 526 554 q 350 674 444 674 q 247 647 289 674 q 206 561 206 621 q 220 501 206 529 q 265 463 235 474 q 199 435 243 435 q 124 472 153 435 q 94 557 94 508 q 165 681 94 638 q 360 724 236 724 q 571 650 503 724 q 639 424 639 576 l 639 146 q 689 72 639 72 q 714 80 700 72 q 735 101 728 88 m 281 63 q 394 103 336 63 q 490 211 451 144 q 529 350 528 278 l 497 351 q 399 344 449 351 q 314 322 349 336 q 218 261 253 300 q 183 169 183 222 q 207 93 183 124 q 281 63 231 63 z "},"ẩ":{"ha":764,"x_min":63,"x_max":750,"o":"m 571 976 q 542 1008 571 1000 q 475 1017 513 1017 l 472 1069 q 597 1052 543 1072 q 651 981 651 1032 q 619 917 651 942 q 511 882 586 893 l 500 921 q 555 944 539 932 q 571 976 571 956 m 204 768 q 180 775 193 769 q 165 786 167 781 l 321 961 q 356 965 333 965 q 390 961 378 965 l 546 786 q 530 774 544 781 q 507 768 515 768 l 357 888 l 204 768 m 735 101 q 750 58 750 81 q 722 7 750 28 q 653 -14 693 -14 q 563 28 593 -14 q 532 158 532 69 l 532 199 q 408 42 486 100 q 236 -15 329 -15 q 109 28 156 -15 q 63 146 63 72 q 125 285 63 228 q 293 371 188 342 q 486 396 386 396 q 526 394 514 396 l 526 431 q 485 614 526 554 q 350 674 444 674 q 247 647 289 674 q 206 561 206 621 q 220 501 206 529 q 265 463 235 474 q 199 435 243 435 q 124 472 153 435 q 94 557 94 508 q 165 681 94 638 q 360 724 236 724 q 571 650 503 724 q 639 424 639 576 l 639 146 q 689 72 639 72 q 714 80 700 72 q 735 101 728 88 m 281 63 q 394 103 336 63 q 490 211 451 144 q 529 350 528 278 l 497 351 q 399 344 449 351 q 314 322 349 336 q 218 261 253 300 q 183 169 183 222 q 207 93 183 124 q 281 63 231 63 z "},"ẫ":{"ha":764,"x_min":63,"x_max":750,"o":"m 735 101 q 750 58 750 81 q 722 7 750 28 q 653 -14 693 -14 q 563 28 593 -14 q 532 158 532 69 l 532 199 q 408 42 486 100 q 236 -15 329 -15 q 109 28 156 -15 q 63 146 63 72 q 125 285 63 228 q 293 371 188 342 q 486 396 386 396 q 526 394 514 396 l 526 431 q 485 614 526 554 q 350 674 444 674 q 247 647 289 674 q 206 561 206 621 q 220 501 206 529 q 265 463 235 474 q 199 435 243 435 q 124 472 153 435 q 94 557 94 508 q 165 681 94 638 q 360 724 236 724 q 571 650 503 724 q 639 424 639 576 l 639 146 q 689 72 639 72 q 714 80 700 72 q 735 101 728 88 m 281 63 q 394 103 336 63 q 490 211 451 144 q 529 350 528 278 l 497 351 q 399 344 449 351 q 314 322 349 336 q 218 261 253 300 q 183 169 183 222 q 207 93 183 124 q 281 63 231 63 m 204 781 q 178 785 194 781 q 160 796 163 790 l 326 986 q 361 990 339 990 q 397 986 385 990 l 564 796 q 544 785 560 790 q 519 781 529 781 l 363 901 l 204 781 m 557 1142 q 519 1055 549 1088 q 446 1022 490 1022 q 403 1031 422 1022 q 357 1057 385 1039 q 315 1081 333 1072 q 276 1089 297 1089 q 224 1073 246 1089 q 193 1029 203 1057 l 190 1029 q 161 1042 174 1029 q 203 1131 169 1101 q 282 1160 238 1160 q 327 1151 307 1160 q 372 1125 347 1142 q 417 1101 400 1108 q 456 1093 433 1093 q 499 1108 485 1093 q 526 1154 514 1124 q 557 1142 544 1154 z "},"ä":{"ha":764,"x_min":63,"x_max":750,"o":"m 735 101 q 750 58 750 81 q 722 7 750 28 q 653 -14 693 -14 q 563 28 593 -14 q 532 158 532 69 l 532 199 q 408 42 486 100 q 236 -15 329 -15 q 109 28 156 -15 q 63 146 63 72 q 125 285 63 228 q 293 371 188 342 q 486 396 386 396 q 526 394 514 396 l 526 431 q 485 614 526 554 q 350 674 444 674 q 247 647 289 674 q 206 561 206 621 q 220 501 206 529 q 265 463 235 474 q 199 435 243 435 q 124 472 153 435 q 94 557 94 508 q 165 681 94 638 q 360 724 236 724 q 571 650 503 724 q 639 424 639 576 l 639 146 q 689 72 639 72 q 714 80 700 72 q 735 101 728 88 m 281 63 q 394 103 336 63 q 490 211 451 144 q 529 350 528 278 l 497 351 q 399 344 449 351 q 314 322 349 336 q 218 261 253 300 q 183 169 183 222 q 207 93 183 124 q 281 63 231 63 m 247 814 q 201 833 221 814 q 181 879 181 853 q 200 925 181 906 q 247 944 219 944 q 293 925 274 944 q 313 879 313 906 q 293 833 313 853 q 247 814 274 814 m 488 814 q 442 833 461 814 q 424 879 424 853 q 442 925 424 906 q 488 944 461 944 q 535 925 515 944 q 554 879 554 906 q 534 833 554 853 q 488 814 514 814 z "},"ạ":{"ha":764,"x_min":63,"x_max":750,"o":"m 735 101 q 750 58 750 81 q 722 7 750 28 q 653 -14 693 -14 q 563 28 593 -14 q 532 158 532 69 l 532 199 q 408 42 486 100 q 236 -15 329 -15 q 109 28 156 -15 q 63 146 63 72 q 125 285 63 228 q 293 371 188 342 q 486 396 386 396 q 526 394 514 396 l 526 431 q 485 614 526 554 q 350 674 444 674 q 247 647 289 674 q 206 561 206 621 q 220 501 206 529 q 265 463 235 474 q 199 435 243 435 q 124 472 153 435 q 94 557 94 508 q 165 681 94 638 q 360 724 236 724 q 571 650 503 724 q 639 424 639 576 l 639 146 q 689 72 639 72 q 714 80 700 72 q 735 101 728 88 m 281 63 q 394 103 336 63 q 490 211 451 144 q 529 350 528 278 l 497 351 q 399 344 449 351 q 314 322 349 336 q 218 261 253 300 q 183 169 183 222 q 207 93 183 124 q 281 63 231 63 m 385 -207 q 332 -185 354 -207 q 310 -132 310 -162 q 332 -78 310 -100 q 385 -56 354 -56 q 438 -78 415 -56 q 460 -132 460 -100 q 438 -185 460 -162 q 385 -207 415 -207 z "},"à":{"ha":764,"x_min":63,"x_max":750,"o":"m 735 101 q 750 58 750 81 q 722 7 750 28 q 653 -14 693 -14 q 563 28 593 -14 q 532 158 532 69 l 532 199 q 408 42 486 100 q 236 -15 329 -15 q 109 28 156 -15 q 63 146 63 72 q 125 285 63 228 q 293 371 188 342 q 486 396 386 396 q 526 394 514 396 l 526 431 q 485 614 526 554 q 350 674 444 674 q 247 647 289 674 q 206 561 206 621 q 220 501 206 529 q 265 463 235 474 q 199 435 243 435 q 124 472 153 435 q 94 557 94 508 q 165 681 94 638 q 360 724 236 724 q 571 650 503 724 q 639 424 639 576 l 639 146 q 689 72 639 72 q 714 80 700 72 q 735 101 728 88 m 281 63 q 394 103 336 63 q 490 211 451 144 q 529 350 528 278 l 497 351 q 399 344 449 351 q 314 322 349 336 q 218 261 253 300 q 183 169 183 222 q 207 93 183 124 q 281 63 231 63 m 167 974 q 217 992 181 983 q 278 1000 253 1001 l 404 792 q 384 785 400 788 q 354 782 368 782 l 167 974 z "},"ả":{"ha":764,"x_min":63,"x_max":750,"o":"m 735 101 q 750 58 750 81 q 722 7 750 28 q 653 -14 693 -14 q 563 28 593 -14 q 532 158 532 69 l 532 199 q 408 42 486 100 q 236 -15 329 -15 q 109 28 156 -15 q 63 146 63 72 q 125 285 63 228 q 293 371 188 342 q 486 396 386 396 q 526 394 514 396 l 526 431 q 485 614 526 554 q 350 674 444 674 q 247 647 289 674 q 206 561 206 621 q 220 501 206 529 q 265 463 235 474 q 199 435 243 435 q 124 472 153 435 q 94 557 94 508 q 165 681 94 638 q 360 724 236 724 q 571 650 503 724 q 639 424 639 576 l 639 146 q 689 72 639 72 q 714 80 700 72 q 735 101 728 88 m 281 63 q 394 103 336 63 q 490 211 451 144 q 529 350 528 278 l 497 351 q 399 344 449 351 q 314 322 349 336 q 218 261 253 300 q 183 169 183 222 q 207 93 183 124 q 281 63 231 63 m 311 835 q 365 859 350 847 q 381 890 381 871 q 351 923 381 914 q 286 932 322 932 l 283 983 q 409 967 356 986 q 463 896 463 947 q 430 832 463 857 q 322 796 397 807 l 311 835 z "},"ā":{"ha":764,"x_min":63,"x_max":750,"o":"m 735 101 q 750 58 750 81 q 722 7 750 28 q 653 -14 693 -14 q 563 28 593 -14 q 532 158 532 69 l 532 199 q 408 42 486 100 q 236 -15 329 -15 q 109 28 156 -15 q 63 146 63 72 q 125 285 63 228 q 293 371 188 342 q 486 396 386 396 q 526 394 514 396 l 526 431 q 485 614 526 554 q 350 674 444 674 q 247 647 289 674 q 206 561 206 621 q 220 501 206 529 q 265 463 235 474 q 199 435 243 435 q 124 472 153 435 q 94 557 94 508 q 165 681 94 638 q 360 724 236 724 q 571 650 503 724 q 639 424 639 576 l 639 146 q 689 72 639 72 q 714 80 700 72 q 735 101 728 88 m 281 63 q 394 103 336 63 q 490 211 451 144 q 529 350 528 278 l 497 351 q 399 344 449 351 q 314 322 349 336 q 218 261 253 300 q 183 169 183 222 q 207 93 183 124 q 281 63 231 63 m 543 893 q 549 864 549 874 q 543 833 549 853 l 186 833 q 181 864 181 846 q 186 893 181 881 l 543 893 z "},"ą":{"ha":764,"x_min":63,"x_max":799,"o":"m 783 -117 q 799 -142 799 -128 q 797 -153 799 -149 q 738 -219 779 -193 q 643 -244 697 -244 q 555 -218 593 -244 q 517 -137 517 -192 q 611 -8 517 -57 q 532 158 532 19 l 532 199 q 408 42 486 100 q 236 -15 329 -15 q 109 28 156 -15 q 63 146 63 72 q 125 285 63 228 q 293 371 188 342 q 486 396 386 396 q 526 394 514 396 l 526 431 q 485 614 526 554 q 350 674 444 674 q 247 647 289 674 q 206 561 206 621 q 220 501 206 529 q 265 463 235 474 q 199 435 243 435 q 124 472 153 435 q 94 557 94 508 q 165 681 94 638 q 360 724 236 724 q 571 650 503 724 q 639 424 639 576 l 639 146 q 689 72 639 72 q 714 80 700 72 q 735 101 728 88 q 750 58 750 81 q 734 18 750 36 q 693 -8 718 0 q 621 -60 644 -32 q 597 -125 597 -87 q 615 -173 597 -154 q 667 -192 632 -192 q 737 -169 707 -192 q 783 -117 767 -147 m 281 63 q 394 103 336 63 q 490 211 451 144 q 529 350 528 278 l 497 351 q 399 344 449 351 q 314 322 349 336 q 218 261 253 300 q 183 169 183 222 q 207 93 183 124 q 281 63 231 63 z "},"å":{"ha":764,"x_min":63,"x_max":750,"o":"m 735 101 q 750 58 750 81 q 722 7 750 28 q 653 -14 693 -14 q 563 28 593 -14 q 532 158 532 69 l 532 199 q 408 42 486 100 q 236 -15 329 -15 q 109 28 156 -15 q 63 146 63 72 q 125 285 63 228 q 293 371 188 342 q 486 396 386 396 q 526 394 514 396 l 526 431 q 485 614 526 554 q 350 674 444 674 q 247 647 289 674 q 206 561 206 621 q 220 501 206 529 q 265 463 235 474 q 199 435 243 435 q 124 472 153 435 q 94 557 94 508 q 165 681 94 638 q 360 724 236 724 q 571 650 503 724 q 639 424 639 576 l 639 146 q 689 72 639 72 q 714 80 700 72 q 735 101 728 88 m 281 63 q 394 103 336 63 q 490 211 451 144 q 529 350 528 278 l 497 351 q 399 344 449 351 q 314 322 349 336 q 218 261 253 300 q 183 169 183 222 q 207 93 183 124 q 281 63 231 63 m 371 1001 q 460 971 426 1001 q 494 889 494 940 q 458 803 493 835 q 365 772 424 772 q 276 802 310 772 q 242 883 242 832 q 277 969 242 938 q 371 1001 313 1001 m 368 961 q 320 941 338 961 q 303 886 303 921 q 320 831 303 851 q 368 811 338 811 q 416 831 399 811 q 433 886 433 851 q 416 941 433 921 q 368 961 399 961 z "},"ɑ":{"ha":786,"x_min":61,"x_max":749,"o":"m 733 96 q 749 51 749 75 q 724 6 749 24 q 663 -11 700 -11 q 549 167 549 -11 l 549 176 q 453 33 515 85 q 300 -18 392 -18 q 114 81 167 -18 q 61 319 61 179 q 137 615 61 510 q 354 721 213 721 q 474 694 425 721 q 544 615 522 667 q 549 708 549 646 q 586 722 563 722 q 636 705 618 722 q 654 660 654 688 l 653 146 q 696 75 653 75 q 733 96 722 75 m 328 50 q 443 100 394 50 q 517 234 492 150 q 542 418 542 318 q 507 588 542 521 q 376 656 472 656 q 179 324 179 656 q 210 125 179 200 q 328 50 242 50 z "},"ã":{"ha":764,"x_min":63,"x_max":750,"o":"m 735 101 q 750 58 750 81 q 722 7 750 28 q 653 -14 693 -14 q 563 28 593 -14 q 532 158 532 69 l 532 199 q 408 42 486 100 q 236 -15 329 -15 q 109 28 156 -15 q 63 146 63 72 q 125 285 63 228 q 293 371 188 342 q 486 396 386 396 q 526 394 514 396 l 526 431 q 485 614 526 554 q 350 674 444 674 q 247 647 289 674 q 206 561 206 621 q 220 501 206 529 q 265 463 235 474 q 199 435 243 435 q 124 472 153 435 q 94 557 94 508 q 165 681 94 638 q 360 724 236 724 q 571 650 503 724 q 639 424 639 576 l 639 146 q 689 72 639 72 q 714 80 700 72 q 735 101 728 88 m 281 63 q 394 103 336 63 q 490 211 451 144 q 529 350 528 278 l 497 351 q 399 344 449 351 q 314 322 349 336 q 218 261 253 300 q 183 169 183 222 q 207 93 183 124 q 281 63 231 63 m 560 926 q 522 840 551 872 q 449 807 493 807 q 406 815 425 807 q 360 842 388 824 q 318 865 336 857 q 279 874 300 874 q 227 858 249 874 q 196 814 206 842 l 193 814 q 164 826 176 814 q 206 915 172 886 q 285 944 240 944 q 330 935 310 944 q 375 910 350 926 q 419 885 403 893 q 458 878 436 878 q 502 893 488 878 q 529 939 517 908 q 560 926 547 939 z "},"æ":{"ha":1179,"x_min":63,"x_max":1115,"o":"m 1090 179 q 1111 147 1111 172 q 1103 110 1111 133 q 1011 15 1076 49 q 856 -18 946 -18 q 654 43 735 -18 q 544 219 574 104 q 417 49 500 113 q 236 -15 335 -15 q 109 28 156 -15 q 63 146 63 72 q 125 285 63 228 q 293 371 188 342 q 488 396 386 396 q 529 394 515 396 l 529 431 q 488 614 529 554 q 353 674 446 674 q 248 647 290 674 q 206 561 206 621 q 220 501 206 529 q 265 463 235 474 q 199 435 243 435 q 124 472 153 435 q 94 557 94 508 q 166 681 94 638 q 363 724 238 724 q 596 599 533 724 q 706 691 638 658 q 863 724 774 724 q 1046 672 976 724 q 1115 524 1115 619 q 1032 367 1115 421 q 800 313 949 313 q 650 322 718 313 q 720 120 658 182 q 882 58 782 58 q 1015 90 958 58 q 1090 179 1071 121 m 857 674 q 706 595 763 674 q 649 369 650 517 q 757 363 715 364 q 933 402 868 363 q 997 538 997 442 q 957 642 997 611 q 857 674 917 674 m 281 63 q 389 100 333 63 q 484 199 444 138 q 531 331 524 261 l 531 349 l 531 350 l 499 351 q 399 344 450 351 q 314 322 349 336 q 218 261 253 300 q 183 169 183 222 q 207 93 183 124 q 281 63 231 63 z "},"b":{"ha":751,"x_min":103,"x_max":690,"o":"m 378 -18 q 224 4 299 -18 q 103 75 149 26 l 103 953 q 120 997 103 981 q 164 1014 138 1014 q 232 989 203 1014 q 218 892 222 951 q 214 786 214 832 l 214 549 q 303 675 240 626 q 450 724 365 724 q 690 383 690 724 q 614 92 690 201 q 378 -18 538 -18 m 368 38 q 530 135 486 38 q 574 383 574 233 q 537 590 574 524 q 429 657 500 657 q 307 606 356 657 q 236 479 258 556 q 214 324 214 403 l 214 92 q 278 53 233 69 q 368 38 322 38 z "},"c":{"ha":701,"x_min":61,"x_max":638,"o":"m 383 -18 q 146 76 231 -18 q 61 349 61 171 q 148 624 61 524 q 393 724 235 724 q 567 675 506 724 q 629 547 629 626 q 603 469 629 499 q 538 440 578 440 q 472 467 492 440 q 518 556 518 485 q 480 645 518 615 q 383 675 442 675 q 235 594 290 675 q 179 365 179 514 q 243 132 179 206 q 413 58 307 58 q 544 96 489 58 q 617 204 600 133 q 638 169 638 197 q 631 132 638 151 q 542 21 608 60 q 383 -18 476 -18 z "},"ć":{"ha":701,"x_min":61,"x_max":638,"o":"m 383 -18 q 146 76 231 -18 q 61 349 61 171 q 148 624 61 524 q 393 724 235 724 q 567 675 506 724 q 629 547 629 626 q 603 469 629 499 q 538 440 578 440 q 472 467 492 440 q 518 556 518 485 q 480 645 518 615 q 383 675 442 675 q 235 594 290 675 q 179 365 179 514 q 243 132 179 206 q 413 58 307 58 q 544 96 489 58 q 617 204 600 133 q 638 169 638 197 q 631 132 638 151 q 542 21 608 60 q 383 -18 476 -18 m 388 782 q 358 785 374 782 q 338 792 342 788 l 464 1000 q 525 992 489 1001 q 574 974 561 983 l 388 782 z "},"č":{"ha":701,"x_min":61,"x_max":638,"o":"m 383 -18 q 146 76 231 -18 q 61 349 61 171 q 148 624 61 524 q 393 724 235 724 q 567 675 506 724 q 629 547 629 626 q 603 469 629 499 q 538 440 578 440 q 472 467 492 440 q 518 556 518 485 q 480 645 518 615 q 383 675 442 675 q 235 594 290 675 q 179 365 179 514 q 243 132 179 206 q 413 58 307 58 q 544 96 489 58 q 617 204 600 133 q 638 169 638 197 q 631 132 638 151 q 542 21 608 60 q 383 -18 476 -18 m 381 875 l 538 996 q 562 991 546 996 q 582 981 578 986 l 415 789 q 379 786 399 786 q 344 789 361 786 l 178 981 q 197 991 181 986 q 222 996 213 996 l 381 875 z "},"ç":{"ha":701,"x_min":61,"x_max":638,"o":"m 617 204 q 638 169 638 197 q 631 132 638 151 q 549 25 610 64 q 403 -18 489 -14 l 393 -67 q 490 -94 456 -67 q 525 -168 525 -121 q 485 -254 525 -221 q 381 -287 446 -287 q 258 -243 297 -287 l 258 -237 q 263 -216 258 -228 q 275 -200 268 -204 q 288 -210 278 -201 q 317 -226 299 -219 q 358 -232 336 -232 q 409 -215 390 -232 q 428 -169 428 -199 q 408 -124 428 -142 q 347 -106 389 -106 l 328 -107 l 344 -17 q 135 89 210 -6 q 61 349 61 183 q 148 624 61 524 q 393 724 235 724 q 567 675 506 724 q 629 547 629 626 q 603 469 629 499 q 538 440 578 440 q 472 467 492 440 q 518 556 518 485 q 480 645 518 615 q 383 675 442 675 q 235 594 290 675 q 179 365 179 514 q 243 132 179 206 q 413 58 307 58 q 544 96 489 58 q 617 204 600 133 z "},"ĉ":{"ha":701,"x_min":61,"x_max":638,"o":"m 383 -18 q 146 76 231 -18 q 61 349 61 171 q 148 624 61 524 q 393 724 235 724 q 567 675 506 724 q 629 547 629 626 q 603 469 629 499 q 538 440 578 440 q 472 467 492 440 q 518 556 518 485 q 480 645 518 615 q 383 675 442 675 q 235 594 290 675 q 179 365 179 514 q 243 132 179 206 q 413 58 307 58 q 544 96 489 58 q 617 204 600 133 q 638 169 638 197 q 631 132 638 151 q 542 21 608 60 q 383 -18 476 -18 m 219 781 q 194 785 210 781 q 175 796 178 790 l 342 986 q 376 990 354 990 q 413 986 400 990 l 579 796 q 560 785 575 790 q 535 781 544 781 l 378 901 l 219 781 z "},"ċ":{"ha":701,"x_min":61,"x_max":638,"o":"m 383 -18 q 146 76 231 -18 q 61 349 61 171 q 148 624 61 524 q 393 724 235 724 q 567 675 506 724 q 629 547 629 626 q 603 469 629 499 q 538 440 578 440 q 472 467 492 440 q 518 556 518 485 q 480 645 518 615 q 383 675 442 675 q 235 594 290 675 q 179 365 179 514 q 243 132 179 206 q 413 58 307 58 q 544 96 489 58 q 617 204 600 133 q 638 169 638 197 q 631 132 638 151 q 542 21 608 60 q 383 -18 476 -18 m 379 796 q 329 817 350 796 q 308 868 308 838 q 329 917 308 896 q 379 939 350 939 q 429 917 408 939 q 450 868 450 896 q 429 817 450 838 q 379 796 408 796 z "},"d":{"ha":786,"x_min":61,"x_max":749,"o":"m 733 96 q 749 51 749 75 q 724 6 749 24 q 663 -11 700 -11 q 549 167 549 -11 l 549 176 q 453 33 515 85 q 300 -18 392 -18 q 114 81 167 -18 q 61 319 61 179 q 137 617 61 511 q 353 724 213 724 q 473 695 424 724 q 544 613 522 667 l 543 799 q 525 989 543 926 q 589 1014 550 1014 q 636 998 618 1014 q 654 953 654 982 l 653 146 q 696 75 653 75 q 733 96 722 75 m 328 50 q 443 100 394 50 q 517 235 492 150 q 542 422 542 319 q 371 658 542 658 q 228 574 278 658 q 179 324 179 489 q 210 125 179 200 q 328 50 242 50 z "},"ð":{"ha":724,"x_min":61,"x_max":663,"o":"m 528 882 q 628 672 593 797 q 663 401 663 547 q 586 97 663 211 q 350 -18 510 -18 q 124 82 186 -18 q 61 331 61 182 q 138 593 61 493 q 351 693 214 693 q 458 674 411 693 q 533 619 506 654 q 431 828 508 740 l 322 767 q 297 811 300 782 l 393 865 q 313 919 354 900 q 232 938 271 938 l 199 936 q 217 991 199 967 q 272 1015 235 1015 q 492 922 399 1015 l 597 982 q 624 936 621 971 l 528 882 m 353 50 q 542 376 542 50 q 504 558 542 486 q 374 629 467 629 q 230 551 281 629 q 179 342 179 474 q 217 130 179 210 q 353 50 256 50 z "},"ď":{"ha":856,"x_min":61,"x_max":840,"o":"m 839 1026 q 804 818 840 925 l 751 818 q 754 875 754 854 q 735 1026 754 958 q 788 1033 756 1033 q 839 1026 819 1033 m 696 75 q 733 96 722 75 q 749 51 749 75 q 724 6 749 24 q 663 -11 700 -11 q 549 167 549 -11 l 549 176 q 453 33 515 85 q 300 -18 392 -18 q 114 81 167 -18 q 61 319 61 179 q 137 617 61 511 q 353 724 213 724 q 473 695 424 724 q 544 613 522 667 l 543 799 q 525 989 543 926 q 589 1014 550 1014 q 636 998 618 1014 q 654 953 654 982 l 653 146 q 696 75 653 75 m 328 50 q 443 100 394 50 q 517 235 492 150 q 542 422 542 319 q 371 658 542 658 q 228 574 278 658 q 179 324 179 489 q 210 125 179 200 q 328 50 242 50 z "},"đ":{"ha":789,"x_min":61,"x_max":757,"o":"m 654 808 l 653 146 q 696 75 653 75 q 733 96 722 75 q 749 51 749 75 q 724 6 749 24 q 663 -11 700 -11 q 549 167 549 -11 l 549 176 q 453 33 515 85 q 300 -18 392 -18 q 114 81 167 -18 q 61 319 61 179 q 137 617 61 511 q 353 724 213 724 q 473 695 424 724 q 544 613 522 667 l 543 799 l 543 808 l 389 808 q 383 835 383 828 q 389 860 383 843 l 542 860 q 525 989 539 940 q 589 1014 550 1014 q 636 998 618 1014 q 654 953 654 982 l 654 860 l 753 860 q 757 835 757 847 q 753 808 757 824 l 654 808 m 328 50 q 443 100 394 50 q 517 235 492 150 q 542 422 542 319 q 371 658 542 658 q 228 574 278 658 q 179 324 179 489 q 210 125 179 200 q 328 50 242 50 z "},"ḍ":{"ha":786,"x_min":61,"x_max":749,"o":"m 733 96 q 749 51 749 75 q 724 6 749 24 q 663 -11 700 -11 q 549 167 549 -11 l 549 176 q 453 33 515 85 q 300 -18 392 -18 q 114 81 167 -18 q 61 319 61 179 q 137 617 61 511 q 353 724 213 724 q 473 695 424 724 q 544 613 522 667 l 543 799 q 525 989 543 926 q 589 1014 550 1014 q 636 998 618 1014 q 654 953 654 982 l 653 146 q 696 75 653 75 q 733 96 722 75 m 328 50 q 443 100 394 50 q 517 235 492 150 q 542 422 542 319 q 371 658 542 658 q 228 574 278 658 q 179 324 179 489 q 210 125 179 200 q 328 50 242 50 m 397 -207 q 344 -185 367 -207 q 322 -132 322 -162 q 344 -78 322 -100 q 397 -56 367 -56 q 450 -78 428 -56 q 472 -132 472 -100 q 450 -185 472 -162 q 397 -207 428 -207 z "},"ḏ":{"ha":786,"x_min":61,"x_max":749,"o":"m 733 96 q 749 51 749 75 q 724 6 749 24 q 663 -11 700 -11 q 549 167 549 -11 l 549 176 q 453 33 515 85 q 300 -18 392 -18 q 114 81 167 -18 q 61 319 61 179 q 137 617 61 511 q 353 724 213 724 q 473 695 424 724 q 544 613 522 667 l 543 799 q 525 989 543 926 q 589 1014 550 1014 q 636 998 618 1014 q 654 953 654 982 l 653 146 q 696 75 653 75 q 733 96 722 75 m 328 50 q 443 100 394 50 q 517 235 492 150 q 542 422 542 319 q 371 658 542 658 q 228 574 278 658 q 179 324 179 489 q 210 125 179 200 q 328 50 242 50 m 582 -92 q 586 -119 586 -107 q 582 -147 586 -135 l 224 -147 q 218 -119 218 -136 q 224 -92 218 -104 l 582 -92 z "},"e":{"ha":710,"x_min":61,"x_max":646,"o":"m 621 179 q 642 147 642 172 q 633 110 642 133 q 541 15 607 49 q 386 -18 475 -18 q 147 77 233 -18 q 61 349 61 172 q 147 624 61 524 q 392 724 232 724 q 576 672 507 724 q 646 524 646 619 q 563 367 646 421 q 331 313 479 313 q 181 322 249 313 q 251 120 189 182 q 413 58 313 58 q 544 90 489 58 q 621 179 600 121 m 388 674 q 237 595 293 674 q 179 369 181 517 q 288 363 246 364 q 463 402 399 363 q 528 538 528 442 q 488 642 528 611 q 388 674 447 674 z "},"é":{"ha":710,"x_min":61,"x_max":646,"o":"m 621 179 q 642 147 642 172 q 633 110 642 133 q 541 15 607 49 q 386 -18 475 -18 q 147 77 233 -18 q 61 349 61 172 q 147 624 61 524 q 392 724 232 724 q 576 672 507 724 q 646 524 646 619 q 563 367 646 421 q 331 313 479 313 q 181 322 249 313 q 251 120 189 182 q 413 58 313 58 q 544 90 489 58 q 621 179 600 121 m 388 674 q 237 595 293 674 q 179 369 181 517 q 288 363 246 364 q 463 402 399 363 q 528 538 528 442 q 488 642 528 611 q 388 674 447 674 m 382 782 q 352 785 368 782 q 332 792 336 788 l 458 1000 q 519 992 483 1001 q 568 974 556 983 l 382 782 z "},"ĕ":{"ha":710,"x_min":61,"x_max":646,"o":"m 621 179 q 642 147 642 172 q 633 110 642 133 q 541 15 607 49 q 386 -18 475 -18 q 147 77 233 -18 q 61 349 61 172 q 147 624 61 524 q 392 724 232 724 q 576 672 507 724 q 646 524 646 619 q 563 367 646 421 q 331 313 479 313 q 181 322 249 313 q 251 120 189 182 q 413 58 313 58 q 544 90 489 58 q 621 179 600 121 m 388 674 q 237 595 293 674 q 179 369 181 517 q 288 363 246 364 q 463 402 399 363 q 528 538 528 442 q 488 642 528 611 q 388 674 447 674 m 376 868 q 472 899 435 868 q 528 976 508 931 q 572 963 554 972 q 502 838 551 886 q 374 789 453 789 q 237 840 286 789 q 171 960 188 890 q 217 978 189 974 q 276 899 235 931 q 376 868 317 868 z "},"ě":{"ha":710,"x_min":61,"x_max":646,"o":"m 621 179 q 642 147 642 172 q 633 110 642 133 q 541 15 607 49 q 386 -18 475 -18 q 147 77 233 -18 q 61 349 61 172 q 147 624 61 524 q 392 724 232 724 q 576 672 507 724 q 646 524 646 619 q 563 367 646 421 q 331 313 479 313 q 181 322 249 313 q 251 120 189 182 q 413 58 313 58 q 544 90 489 58 q 621 179 600 121 m 388 674 q 237 595 293 674 q 179 369 181 517 q 288 363 246 364 q 463 402 399 363 q 528 538 528 442 q 488 642 528 611 q 388 674 447 674 m 375 875 l 532 996 q 556 991 540 996 q 576 981 572 986 l 410 789 q 374 786 393 786 q 339 789 356 786 l 172 981 q 191 991 175 986 q 217 996 207 996 l 375 875 z "},"ê":{"ha":710,"x_min":61,"x_max":646,"o":"m 621 179 q 642 147 642 172 q 633 110 642 133 q 541 15 607 49 q 386 -18 475 -18 q 147 77 233 -18 q 61 349 61 172 q 147 624 61 524 q 392 724 232 724 q 576 672 507 724 q 646 524 646 619 q 563 367 646 421 q 331 313 479 313 q 181 322 249 313 q 251 120 189 182 q 413 58 313 58 q 544 90 489 58 q 621 179 600 121 m 388 674 q 237 595 293 674 q 179 369 181 517 q 288 363 246 364 q 463 402 399 363 q 528 538 528 442 q 488 642 528 611 q 388 674 447 674 m 214 781 q 188 785 204 781 q 169 796 172 790 l 336 986 q 371 990 349 990 q 407 986 394 990 l 574 796 q 554 785 569 790 q 529 781 539 781 l 372 901 l 214 781 z "},"ế":{"ha":715,"x_min":61,"x_max":718,"o":"m 574 851 q 546 855 561 851 q 525 861 531 858 l 625 1022 q 638 1024 629 1024 q 683 1016 658 1024 q 718 1000 708 1008 l 574 851 m 221 760 q 197 767 210 761 q 183 778 185 772 l 338 954 q 374 957 346 957 q 408 954 400 957 l 564 778 q 548 766 563 772 q 525 760 533 760 l 374 879 l 221 760 m 646 524 q 563 367 646 421 q 331 313 479 313 q 181 322 249 313 q 251 120 189 182 q 413 58 313 58 q 544 90 489 58 q 621 179 600 121 q 642 147 642 172 q 633 110 642 133 q 541 15 607 49 q 386 -18 475 -18 q 147 77 233 -18 q 61 349 61 172 q 147 624 61 524 q 392 724 232 724 q 576 672 507 724 q 646 524 646 619 m 179 369 q 288 363 246 364 q 463 402 399 363 q 528 538 528 442 q 488 642 528 611 q 388 674 447 674 q 237 595 293 674 q 179 369 181 517 z "},"ệ":{"ha":710,"x_min":61,"x_max":646,"o":"m 621 179 q 642 147 642 172 q 633 110 642 133 q 541 15 607 49 q 386 -18 475 -18 q 147 77 233 -18 q 61 349 61 172 q 147 624 61 524 q 392 724 232 724 q 576 672 507 724 q 646 524 646 619 q 563 367 646 421 q 331 313 479 313 q 181 322 249 313 q 251 120 189 182 q 413 58 313 58 q 544 90 489 58 q 621 179 600 121 m 388 674 q 237 595 293 674 q 179 369 181 517 q 288 363 246 364 q 463 402 399 363 q 528 538 528 442 q 488 642 528 611 q 388 674 447 674 m 361 -207 q 308 -185 331 -207 q 286 -132 286 -162 q 308 -78 286 -100 q 361 -56 331 -56 q 414 -78 392 -56 q 436 -132 436 -100 q 414 -185 436 -162 q 361 -207 392 -207 m 214 781 q 188 785 204 781 q 169 796 172 790 l 336 986 q 371 990 349 990 q 407 986 394 990 l 574 796 q 554 785 569 790 q 529 781 539 781 l 372 901 l 214 781 z "},"ề":{"ha":715,"x_min":61,"x_max":665,"o":"m 665 861 q 644 855 660 858 q 615 851 628 851 l 472 1000 q 507 1016 482 1008 q 553 1024 532 1024 q 565 1022 561 1024 l 665 861 m 217 765 q 194 772 207 767 q 179 783 181 778 l 333 960 q 372 964 346 964 q 404 960 392 964 l 558 783 q 542 772 556 778 q 519 765 529 765 l 369 885 l 217 765 m 646 524 q 563 367 646 421 q 331 313 479 313 q 181 322 249 313 q 251 120 189 182 q 413 58 313 58 q 544 90 489 58 q 621 179 600 121 q 642 147 642 172 q 633 110 642 133 q 541 15 607 49 q 386 -18 475 -18 q 147 77 233 -18 q 61 349 61 172 q 147 624 61 524 q 392 724 232 724 q 576 672 507 724 q 646 524 646 619 m 179 369 q 288 363 246 364 q 463 402 399 363 q 528 538 528 442 q 488 642 528 611 q 388 674 447 674 q 237 595 293 674 q 179 369 181 517 z "},"ể":{"ha":715,"x_min":61,"x_max":668,"o":"m 489 1056 q 614 1038 560 1058 q 668 967 668 1018 q 635 903 668 928 q 528 868 603 879 l 517 907 q 572 930 556 918 q 588 963 588 942 q 558 994 588 986 q 492 1003 529 1003 l 489 1056 m 217 765 q 194 772 207 767 q 179 783 181 778 l 333 960 q 372 964 346 964 q 404 960 392 964 l 558 783 q 542 772 556 778 q 519 765 529 765 l 369 885 l 217 765 m 646 524 q 563 367 646 421 q 331 313 479 313 q 181 322 249 313 q 251 120 189 182 q 413 58 313 58 q 544 90 489 58 q 621 179 600 121 q 642 147 642 172 q 633 110 642 133 q 541 15 607 49 q 386 -18 475 -18 q 147 77 233 -18 q 61 349 61 172 q 147 624 61 524 q 392 724 232 724 q 576 672 507 724 q 646 524 646 619 m 179 369 q 288 363 246 364 q 463 402 399 363 q 528 538 528 442 q 488 642 528 611 q 388 674 447 674 q 237 595 293 674 q 179 369 181 517 z "},"ễ":{"ha":710,"x_min":61,"x_max":646,"o":"m 621 179 q 642 147 642 172 q 633 110 642 133 q 541 15 607 49 q 386 -18 475 -18 q 147 77 233 -18 q 61 349 61 172 q 147 624 61 524 q 392 724 232 724 q 576 672 507 724 q 646 524 646 619 q 563 367 646 421 q 331 313 479 313 q 181 322 249 313 q 251 120 189 182 q 413 58 313 58 q 544 90 489 58 q 621 179 600 121 m 388 674 q 237 595 293 674 q 179 369 181 517 q 288 363 246 364 q 463 402 399 363 q 528 538 528 442 q 488 642 528 611 q 388 674 447 674 m 214 781 q 188 785 204 781 q 169 796 172 790 l 336 986 q 371 990 349 990 q 407 986 394 990 l 574 796 q 554 785 569 790 q 529 781 539 781 l 372 901 l 214 781 m 567 1142 q 529 1055 558 1088 q 456 1022 500 1022 q 413 1031 432 1022 q 367 1057 394 1039 q 325 1081 343 1072 q 286 1089 307 1089 q 234 1073 256 1089 q 203 1029 213 1057 l 200 1029 q 171 1042 183 1029 q 213 1131 179 1101 q 292 1160 247 1160 q 337 1151 317 1160 q 382 1125 357 1142 q 426 1101 410 1108 q 465 1093 443 1093 q 509 1108 494 1093 q 536 1154 524 1124 q 567 1142 554 1154 z "},"ë":{"ha":710,"x_min":61,"x_max":646,"o":"m 621 179 q 642 147 642 172 q 633 110 642 133 q 541 15 607 49 q 386 -18 475 -18 q 147 77 233 -18 q 61 349 61 172 q 147 624 61 524 q 392 724 232 724 q 576 672 507 724 q 646 524 646 619 q 563 367 646 421 q 331 313 479 313 q 181 322 249 313 q 251 120 189 182 q 413 58 313 58 q 544 90 489 58 q 621 179 600 121 m 388 674 q 237 595 293 674 q 179 369 181 517 q 288 363 246 364 q 463 402 399 363 q 528 538 528 442 q 488 642 528 611 q 388 674 447 674 m 257 814 q 210 833 231 814 q 190 879 190 853 q 210 925 190 906 q 257 944 229 944 q 303 925 283 944 q 322 879 322 906 q 303 833 322 853 q 257 814 283 814 m 497 814 q 452 833 471 814 q 433 879 433 853 q 452 925 433 906 q 497 944 471 944 q 544 925 525 944 q 564 879 564 906 q 544 833 564 853 q 497 814 524 814 z "},"ė":{"ha":710,"x_min":61,"x_max":646,"o":"m 621 179 q 642 147 642 172 q 633 110 642 133 q 541 15 607 49 q 386 -18 475 -18 q 147 77 233 -18 q 61 349 61 172 q 147 624 61 524 q 392 724 232 724 q 576 672 507 724 q 646 524 646 619 q 563 367 646 421 q 331 313 479 313 q 181 322 249 313 q 251 120 189 182 q 413 58 313 58 q 544 90 489 58 q 621 179 600 121 m 388 674 q 237 595 293 674 q 179 369 181 517 q 288 363 246 364 q 463 402 399 363 q 528 538 528 442 q 488 642 528 611 q 388 674 447 674 m 372 796 q 322 817 343 796 q 301 868 301 838 q 322 917 301 896 q 372 939 343 939 q 422 917 401 939 q 443 868 443 896 q 422 817 443 838 q 372 796 401 796 z "},"ẹ":{"ha":710,"x_min":61,"x_max":646,"o":"m 621 179 q 642 147 642 172 q 633 110 642 133 q 541 15 607 49 q 386 -18 475 -18 q 147 77 233 -18 q 61 349 61 172 q 147 624 61 524 q 392 724 232 724 q 576 672 507 724 q 646 524 646 619 q 563 367 646 421 q 331 313 479 313 q 181 322 249 313 q 251 120 189 182 q 413 58 313 58 q 544 90 489 58 q 621 179 600 121 m 388 674 q 237 595 293 674 q 179 369 181 517 q 288 363 246 364 q 463 402 399 363 q 528 538 528 442 q 488 642 528 611 q 388 674 447 674 m 361 -207 q 308 -185 331 -207 q 286 -132 286 -162 q 308 -78 286 -100 q 361 -56 331 -56 q 414 -78 392 -56 q 436 -132 436 -100 q 414 -185 436 -162 q 361 -207 392 -207 z "},"è":{"ha":710,"x_min":61,"x_max":646,"o":"m 621 179 q 642 147 642 172 q 633 110 642 133 q 541 15 607 49 q 386 -18 475 -18 q 147 77 233 -18 q 61 349 61 172 q 147 624 61 524 q 392 724 232 724 q 576 672 507 724 q 646 524 646 619 q 563 367 646 421 q 331 313 479 313 q 181 322 249 313 q 251 120 189 182 q 413 58 313 58 q 544 90 489 58 q 621 179 600 121 m 388 674 q 237 595 293 674 q 179 369 181 517 q 288 363 246 364 q 463 402 399 363 q 528 538 528 442 q 488 642 528 611 q 388 674 447 674 m 176 974 q 226 992 190 983 q 288 1000 263 1001 l 414 792 q 394 785 410 788 q 364 782 378 782 l 176 974 z "},"ẻ":{"ha":710,"x_min":61,"x_max":646,"o":"m 621 179 q 642 147 642 172 q 633 110 642 133 q 541 15 607 49 q 386 -18 475 -18 q 147 77 233 -18 q 61 349 61 172 q 147 624 61 524 q 392 724 232 724 q 576 672 507 724 q 646 524 646 619 q 563 367 646 421 q 331 313 479 313 q 181 322 249 313 q 251 120 189 182 q 413 58 313 58 q 544 90 489 58 q 621 179 600 121 m 388 674 q 237 595 293 674 q 179 369 181 517 q 288 363 246 364 q 463 402 399 363 q 528 538 528 442 q 488 642 528 611 q 388 674 447 674 m 329 803 q 383 827 368 815 q 399 858 399 839 q 369 891 399 882 q 304 900 340 900 l 301 951 q 427 935 374 954 q 481 864 481 915 q 448 800 481 825 q 340 764 415 775 l 329 803 z "},"ē":{"ha":710,"x_min":61,"x_max":646,"o":"m 621 179 q 642 147 642 172 q 633 110 642 133 q 541 15 607 49 q 386 -18 475 -18 q 147 77 233 -18 q 61 349 61 172 q 147 624 61 524 q 392 724 232 724 q 576 672 507 724 q 646 524 646 619 q 563 367 646 421 q 331 313 479 313 q 181 322 249 313 q 251 120 189 182 q 413 58 313 58 q 544 90 489 58 q 621 179 600 121 m 388 674 q 237 595 293 674 q 179 369 181 517 q 288 363 246 364 q 463 402 399 363 q 528 538 528 442 q 488 642 528 611 q 388 674 447 674 m 553 893 q 558 864 558 874 q 553 833 558 853 l 196 833 q 190 864 190 846 q 196 893 190 881 l 553 893 z "},"ę":{"ha":710,"x_min":61,"x_max":646,"o":"m 631 -93 q 646 -118 646 -104 q 644 -129 646 -125 q 585 -195 626 -169 q 490 -221 544 -221 q 402 -194 440 -221 q 364 -114 364 -168 q 410 -18 364 -60 l 386 -18 q 147 77 233 -18 q 61 349 61 172 q 147 624 61 524 q 392 724 232 724 q 576 672 507 724 q 646 524 646 619 q 563 367 646 421 q 331 313 479 313 q 181 322 249 313 q 251 120 189 182 q 413 58 313 58 q 544 90 489 58 q 621 179 600 121 q 642 147 642 172 q 633 110 642 133 q 525 8 604 42 q 465 -40 485 -14 q 444 -101 444 -67 q 462 -149 444 -131 q 514 -168 479 -168 q 584 -146 554 -168 q 631 -93 614 -124 m 388 674 q 237 595 293 674 q 179 369 181 517 q 288 363 246 364 q 463 402 399 363 q 528 538 528 442 q 488 642 528 611 q 388 674 447 674 z "},"ẽ":{"ha":710,"x_min":61,"x_max":646,"o":"m 621 179 q 642 147 642 172 q 633 110 642 133 q 541 15 607 49 q 386 -18 475 -18 q 147 77 233 -18 q 61 349 61 172 q 147 624 61 524 q 392 724 232 724 q 576 672 507 724 q 646 524 646 619 q 563 367 646 421 q 331 313 479 313 q 181 322 249 313 q 251 120 189 182 q 413 58 313 58 q 544 90 489 58 q 621 179 600 121 m 388 674 q 237 595 293 674 q 179 369 181 517 q 288 363 246 364 q 463 402 399 363 q 528 538 528 442 q 488 642 528 611 q 388 674 447 674 m 571 926 q 533 840 563 872 q 460 807 504 807 q 417 815 436 807 q 371 842 399 824 q 329 865 347 857 q 290 874 311 874 q 238 858 260 874 q 207 814 217 842 l 204 814 q 175 826 188 814 q 217 915 183 886 q 296 944 251 944 q 341 935 321 944 q 386 910 361 926 q 431 885 414 893 q 469 878 447 878 q 513 893 499 878 q 540 939 528 908 q 571 926 558 939 z "},"f":{"ha":539,"x_min":33,"x_max":554,"o":"m 369 1029 q 504 998 454 1029 q 554 911 554 967 q 529 845 554 869 q 474 821 504 821 q 429 835 442 821 q 456 908 456 869 q 367 982 456 982 q 271 922 293 982 q 249 754 249 863 l 249 704 l 335 704 q 392 706 357 704 q 449 708 426 707 l 447 678 q 437 655 446 664 q 415 646 428 646 l 249 646 l 249 158 q 265 10 249 58 q 203 -15 238 -15 q 157 1 175 -15 q 139 46 139 18 l 138 646 l 117 646 q 33 642 60 646 l 35 674 q 44 697 36 689 q 67 704 53 704 l 138 704 l 138 772 q 369 1029 138 1029 z "},"g":{"ha":746,"x_min":61,"x_max":647,"o":"m 303 -324 q 134 -281 201 -324 q 67 -157 67 -239 q 91 -83 67 -111 q 153 -54 115 -54 q 208 -75 192 -54 q 169 -160 169 -104 q 207 -247 169 -217 q 307 -276 244 -276 q 481 -191 425 -276 q 538 63 538 -106 l 538 157 q 453 37 513 79 q 307 -6 393 -6 q 61 344 61 -6 q 131 614 61 504 q 378 724 201 724 q 528 702 456 724 q 647 632 601 681 l 647 63 q 303 -324 647 -324 m 336 56 q 488 140 439 56 q 538 344 536 225 l 539 621 q 472 659 515 646 q 376 672 429 672 q 220 579 261 672 q 179 333 179 486 q 217 121 179 186 q 336 56 256 56 z "},"ğ":{"ha":746,"x_min":61,"x_max":647,"o":"m 303 -324 q 134 -281 201 -324 q 67 -157 67 -239 q 91 -83 67 -111 q 153 -54 115 -54 q 208 -75 192 -54 q 169 -160 169 -104 q 207 -247 169 -217 q 307 -276 244 -276 q 481 -191 425 -276 q 538 63 538 -106 l 538 157 q 453 37 513 79 q 307 -6 393 -6 q 61 344 61 -6 q 131 614 61 504 q 378 724 201 724 q 528 702 456 724 q 647 632 601 681 l 647 63 q 303 -324 647 -324 m 336 56 q 488 140 439 56 q 538 344 536 225 l 539 621 q 472 659 515 646 q 376 672 429 672 q 220 579 261 672 q 179 333 179 486 q 217 121 179 186 q 336 56 256 56 m 383 872 q 478 903 442 872 q 535 981 515 935 q 579 967 561 976 q 509 842 558 890 q 381 793 460 793 q 244 844 293 793 q 178 964 194 894 q 224 982 196 978 q 283 903 242 935 q 383 872 324 872 z "},"ǧ":{"ha":746,"x_min":61,"x_max":647,"o":"m 303 -324 q 134 -281 201 -324 q 67 -157 67 -239 q 91 -83 67 -111 q 153 -54 115 -54 q 208 -75 192 -54 q 169 -160 169 -104 q 207 -247 169 -217 q 307 -276 244 -276 q 481 -191 425 -276 q 538 63 538 -106 l 538 157 q 453 37 513 79 q 307 -6 393 -6 q 61 344 61 -6 q 131 614 61 504 q 378 724 201 724 q 528 702 456 724 q 647 632 601 681 l 647 63 q 303 -324 647 -324 m 336 56 q 488 140 439 56 q 538 344 536 225 l 539 621 q 472 659 515 646 q 376 672 429 672 q 220 579 261 672 q 179 333 179 486 q 217 121 179 186 q 336 56 256 56 m 382 879 l 539 1000 q 563 995 547 1000 q 583 985 579 990 l 417 793 q 381 790 400 790 q 346 793 363 790 l 179 985 q 198 995 182 990 q 224 1000 214 1000 l 382 879 z "},"ĝ":{"ha":746,"x_min":61,"x_max":647,"o":"m 303 -324 q 134 -281 201 -324 q 67 -157 67 -239 q 91 -83 67 -111 q 153 -54 115 -54 q 208 -75 192 -54 q 169 -160 169 -104 q 207 -247 169 -217 q 307 -276 244 -276 q 481 -191 425 -276 q 538 63 538 -106 l 538 157 q 453 37 513 79 q 307 -6 393 -6 q 61 344 61 -6 q 131 614 61 504 q 378 724 201 724 q 528 702 456 724 q 647 632 601 681 l 647 63 q 303 -324 647 -324 m 336 56 q 488 140 439 56 q 538 344 536 225 l 539 621 q 472 659 515 646 q 376 672 429 672 q 220 579 261 672 q 179 333 179 486 q 217 121 179 186 q 336 56 256 56 m 221 785 q 195 790 211 785 q 176 800 179 794 l 343 990 q 378 994 356 994 q 414 990 401 994 l 581 800 q 561 790 576 794 q 536 785 546 785 l 379 906 l 221 785 z "},"ģ":{"ha":746,"x_min":61,"x_max":647,"o":"m 389 1046 q 433 1022 418 1042 q 396 924 396 968 q 447 864 396 875 q 428 815 447 836 q 378 794 408 794 q 326 815 349 794 q 304 879 304 835 q 323 952 304 914 q 389 1046 342 990 m 303 -324 q 134 -281 201 -324 q 67 -157 67 -239 q 91 -83 67 -111 q 153 -54 115 -54 q 208 -75 192 -54 q 169 -160 169 -104 q 207 -247 169 -217 q 307 -276 244 -276 q 481 -191 425 -276 q 538 63 538 -106 l 538 157 q 453 37 513 79 q 307 -6 393 -6 q 61 344 61 -6 q 131 614 61 504 q 378 724 201 724 q 528 702 456 724 q 647 632 601 681 l 647 63 q 303 -324 647 -324 m 336 56 q 488 140 439 56 q 538 344 536 225 l 539 621 q 472 659 515 646 q 376 672 429 672 q 220 579 261 672 q 179 333 179 486 q 217 121 179 186 q 336 56 256 56 z "},"ġ":{"ha":746,"x_min":61,"x_max":647,"o":"m 303 -324 q 134 -281 201 -324 q 67 -157 67 -239 q 91 -83 67 -111 q 153 -54 115 -54 q 208 -75 192 -54 q 169 -160 169 -104 q 207 -247 169 -217 q 307 -276 244 -276 q 481 -191 425 -276 q 538 63 538 -106 l 538 157 q 453 37 513 79 q 307 -6 393 -6 q 61 344 61 -6 q 131 614 61 504 q 378 724 201 724 q 528 702 456 724 q 647 632 601 681 l 647 63 q 303 -324 647 -324 m 336 56 q 488 140 439 56 q 538 344 536 225 l 539 621 q 472 659 515 646 q 376 672 429 672 q 220 579 261 672 q 179 333 179 486 q 217 121 179 186 q 336 56 256 56 m 379 800 q 329 821 350 800 q 308 872 308 842 q 329 922 308 900 q 379 943 350 943 q 429 922 408 943 q 450 872 450 900 q 429 821 450 842 q 379 800 408 800 z "},"ḡ":{"ha":746,"x_min":61,"x_max":647,"o":"m 303 -324 q 134 -281 201 -324 q 67 -157 67 -239 q 91 -83 67 -111 q 153 -54 115 -54 q 208 -75 192 -54 q 169 -160 169 -104 q 207 -247 169 -217 q 307 -276 244 -276 q 481 -191 425 -276 q 538 63 538 -106 l 538 157 q 453 37 513 79 q 307 -6 393 -6 q 61 344 61 -6 q 131 614 61 504 q 378 724 201 724 q 528 702 456 724 q 647 632 601 681 l 647 63 q 303 -324 647 -324 m 336 56 q 488 140 439 56 q 538 344 536 225 l 539 621 q 472 659 515 646 q 376 672 429 672 q 220 579 261 672 q 179 333 179 486 q 217 121 179 186 q 336 56 256 56 m 560 897 q 565 868 565 878 q 560 838 565 857 l 203 838 q 197 868 197 850 q 203 897 197 885 l 560 897 z "},"h":{"ha":781,"x_min":114,"x_max":692,"o":"m 675 158 q 692 10 675 58 q 628 -15 664 -15 q 583 1 600 -15 q 565 46 565 18 l 564 421 q 531 603 564 543 q 419 663 499 663 q 326 628 371 663 q 252 521 281 594 q 224 335 224 447 q 226 101 224 156 q 243 10 229 47 q 179 -15 214 -15 q 133 3 150 -15 q 115 51 115 21 l 114 953 q 131 999 114 983 q 176 1014 147 1014 q 215 1006 197 1014 q 243 989 233 999 q 228 906 232 954 q 224 772 225 858 l 222 563 q 313 681 253 639 q 451 724 372 724 q 619 651 565 724 q 674 435 674 578 l 675 158 z "},"ħ":{"ha":789,"x_min":17,"x_max":692,"o":"m 675 158 q 692 10 675 58 q 628 -15 664 -15 q 583 1 600 -15 q 565 46 565 18 l 564 421 q 531 603 564 543 q 419 663 499 663 q 326 628 371 663 q 252 521 281 594 q 224 335 224 447 q 226 101 224 156 q 243 10 229 47 q 179 -15 214 -15 q 133 3 150 -15 q 115 51 115 21 l 114 803 l 21 803 q 17 828 17 815 q 21 853 17 840 l 114 853 l 114 953 q 131 999 114 983 q 176 1014 147 1014 q 215 1006 197 1014 q 243 989 233 999 q 225 853 229 944 l 392 853 q 397 828 397 842 q 392 803 397 814 l 224 803 l 224 772 l 222 563 q 313 681 253 639 q 451 724 372 724 q 619 651 565 724 q 674 435 674 578 l 675 158 z "},"ḫ":{"ha":781,"x_min":114,"x_max":692,"o":"m 675 158 q 692 10 675 58 q 628 -15 664 -15 q 583 1 600 -15 q 565 46 565 18 l 564 421 q 531 603 564 543 q 419 663 499 663 q 326 628 371 663 q 252 521 281 594 q 224 335 224 447 q 226 101 224 156 q 243 10 229 47 q 179 -15 214 -15 q 133 3 150 -15 q 115 51 115 21 l 114 953 q 131 999 114 983 q 176 1014 147 1014 q 215 1006 197 1014 q 243 989 233 999 q 228 906 232 954 q 224 772 225 858 l 222 563 q 313 681 253 639 q 451 724 372 724 q 619 651 565 724 q 674 435 674 578 l 675 158 m 406 -183 q 500 -152 464 -183 q 553 -76 536 -121 l 596 -83 q 529 -204 581 -156 q 399 -253 478 -253 q 265 -202 314 -253 q 206 -87 217 -151 l 251 -74 q 306 -151 265 -119 q 406 -183 346 -183 z "},"ĥ":{"ha":781,"x_min":-22,"x_max":692,"o":"m 675 158 q 692 10 675 58 q 628 -15 664 -15 q 583 1 600 -15 q 565 46 565 18 l 564 421 q 531 603 564 543 q 419 663 499 663 q 326 628 371 663 q 252 521 281 594 q 224 335 224 447 q 226 101 224 156 q 243 10 229 47 q 179 -15 214 -15 q 133 3 150 -15 q 115 51 115 21 l 114 953 q 131 999 114 983 q 176 1014 147 1014 q 215 1006 197 1014 q 243 989 233 999 q 228 906 232 954 q 224 772 225 858 l 222 563 q 313 681 253 639 q 451 724 372 724 q 619 651 565 724 q 674 435 674 578 l 675 158 m 22 1021 q -3 1026 13 1021 q -22 1036 -19 1031 l 144 1226 q 181 1231 157 1231 q 215 1226 203 1231 l 382 1036 q 363 1026 378 1031 q 338 1021 347 1021 l 181 1142 l 22 1021 z "},"ḥ":{"ha":781,"x_min":114,"x_max":692,"o":"m 675 158 q 692 10 675 58 q 628 -15 664 -15 q 583 1 600 -15 q 565 46 565 18 l 564 421 q 531 603 564 543 q 419 663 499 663 q 326 628 371 663 q 252 521 281 594 q 224 335 224 447 q 226 101 224 156 q 243 10 229 47 q 179 -15 214 -15 q 133 3 150 -15 q 115 51 115 21 l 114 953 q 131 999 114 983 q 176 1014 147 1014 q 215 1006 197 1014 q 243 989 233 999 q 228 906 232 954 q 224 772 225 858 l 222 563 q 313 681 253 639 q 451 724 372 724 q 619 651 565 724 q 674 435 674 578 l 675 158 m 394 -207 q 342 -185 364 -207 q 319 -132 319 -162 q 342 -78 319 -100 q 394 -56 364 -56 q 447 -78 425 -56 q 469 -132 469 -100 q 447 -185 469 -162 q 394 -207 425 -207 z "},"i":{"ha":361,"x_min":101,"x_max":256,"o":"m 176 833 q 124 856 146 833 q 101 908 101 878 q 124 962 101 940 q 176 983 146 983 q 230 962 208 983 q 251 908 251 940 q 230 856 251 878 q 176 833 208 833 m 238 158 q 256 10 238 57 q 192 -15 226 -15 q 147 1 164 -15 q 129 46 129 18 l 128 550 q 110 699 128 646 q 174 724 139 724 q 219 708 201 724 q 236 663 236 692 l 238 158 z "},"ı":{"ha":340,"x_min":97,"x_max":242,"o":"m 225 158 q 242 10 225 58 q 178 -15 217 -15 q 133 1 150 -15 q 115 46 115 18 l 114 550 q 97 699 114 650 q 160 724 126 724 q 206 708 189 724 q 222 663 222 692 l 225 158 z "},"í":{"ha":340,"x_min":97,"x_max":353,"o":"m 225 158 q 242 10 225 58 q 178 -15 217 -15 q 133 1 150 -15 q 115 46 115 18 l 114 550 q 97 699 114 650 q 160 724 126 724 q 206 708 189 724 q 222 663 222 692 l 225 158 m 167 782 q 137 785 153 782 q 117 792 121 788 l 243 1000 q 304 992 268 1001 q 353 974 340 983 l 167 782 z "},"ǐ":{"ha":340,"x_min":-43,"x_max":361,"o":"m 225 158 q 242 10 225 58 q 178 -15 217 -15 q 133 1 150 -15 q 115 46 115 18 l 114 550 q 97 699 114 650 q 160 724 126 724 q 206 708 189 724 q 222 663 222 692 l 225 158 m 160 875 l 317 996 q 341 991 325 996 q 361 981 357 986 l 194 789 q 158 786 178 786 q 124 789 140 786 l -43 981 q -24 991 -40 986 q 1 996 -8 996 l 160 875 z "},"î":{"ha":340,"x_min":-46,"x_max":358,"o":"m 225 158 q 242 10 225 58 q 178 -15 217 -15 q 133 1 150 -15 q 115 46 115 18 l 114 550 q 97 699 114 650 q 160 724 126 724 q 206 708 189 724 q 222 663 222 692 l 225 158 m -1 781 q -27 785 -11 781 q -46 796 -43 790 l 121 986 q 156 990 133 990 q 192 986 179 990 l 358 796 q 339 785 354 790 q 314 781 324 781 l 157 901 l -1 781 z "},"ï":{"ha":340,"x_min":-24,"x_max":350,"o":"m 225 158 q 242 10 225 58 q 178 -15 217 -15 q 133 1 150 -15 q 115 46 115 18 l 114 550 q 97 699 114 650 q 160 724 126 724 q 206 708 189 724 q 222 663 222 692 l 225 158 m 43 814 q -3 833 17 814 q -24 879 -24 853 q -4 925 -24 906 q 43 944 15 944 q 89 925 69 944 q 108 879 108 906 q 89 833 108 853 q 43 814 69 814 m 283 814 q 238 833 257 814 q 219 879 219 853 q 238 925 219 906 q 283 944 257 944 q 331 925 311 944 q 350 879 350 906 q 330 833 350 853 q 283 814 310 814 z "},"ị":{"ha":361,"x_min":101,"x_max":264,"o":"m 176 833 q 124 856 146 833 q 101 908 101 878 q 124 962 101 940 q 176 983 146 983 q 230 962 208 983 q 251 908 251 940 q 230 856 251 878 q 176 833 208 833 m 238 158 q 256 10 238 57 q 192 -15 226 -15 q 147 1 164 -15 q 129 46 129 18 l 128 550 q 110 699 128 646 q 174 724 139 724 q 219 708 201 724 q 236 663 236 692 l 238 158 m 189 -207 q 136 -185 158 -207 q 114 -132 114 -162 q 136 -78 114 -100 q 189 -56 158 -56 q 242 -78 219 -56 q 264 -132 264 -100 q 242 -185 264 -162 q 189 -207 219 -207 z "},"ì":{"ha":340,"x_min":-39,"x_max":242,"o":"m 225 158 q 242 10 225 58 q 178 -15 217 -15 q 133 1 150 -15 q 115 46 115 18 l 114 550 q 97 699 114 650 q 160 724 126 724 q 206 708 189 724 q 222 663 222 692 l 225 158 m -39 974 q 11 992 -25 983 q 72 1000 47 1001 l 199 792 q 178 785 194 788 q 149 782 163 782 l -39 974 z "},"ỉ":{"ha":340,"x_min":86,"x_max":265,"o":"m 225 158 q 242 10 225 58 q 178 -15 217 -15 q 133 1 150 -15 q 115 46 115 18 l 114 550 q 97 699 114 650 q 160 724 126 724 q 206 708 189 724 q 222 663 222 692 l 225 158 m 114 803 q 168 827 153 815 q 183 858 183 839 q 154 891 183 882 q 89 900 125 900 l 86 951 q 212 935 158 954 q 265 864 265 915 q 233 800 265 825 q 125 764 200 775 l 114 803 z "},"ī":{"ha":340,"x_min":-24,"x_max":344,"o":"m 225 158 q 242 10 225 58 q 178 -15 217 -15 q 133 1 150 -15 q 115 46 115 18 l 114 550 q 97 699 114 650 q 160 724 126 724 q 206 708 189 724 q 222 663 222 692 l 225 158 m 339 893 q 344 864 344 874 q 339 833 344 853 l -18 833 q -24 864 -24 846 q -18 893 -24 881 l 339 893 z "},"į":{"ha":361,"x_min":49,"x_max":331,"o":"m 176 833 q 124 856 146 833 q 101 908 101 878 q 124 962 101 940 q 176 983 146 983 q 230 962 208 983 q 251 908 251 940 q 230 856 251 878 q 176 833 208 833 m 315 -110 q 331 -133 331 -118 q 329 -144 331 -140 q 271 -210 313 -185 q 175 -236 229 -236 q 87 -210 125 -236 q 49 -131 49 -183 q 146 1 49 -49 q 129 46 129 21 l 128 550 q 110 699 128 646 q 174 724 139 724 q 219 708 201 724 q 236 663 236 692 l 238 158 q 256 10 238 57 q 200 -15 231 -12 q 148 -62 165 -37 q 131 -117 131 -86 q 147 -166 131 -147 q 199 -185 164 -185 q 269 -162 239 -185 q 315 -110 300 -140 z "},"ĩ":{"ha":340,"x_min":-40,"x_max":356,"o":"m 225 158 q 242 10 225 58 q 178 -15 217 -15 q 133 1 150 -15 q 115 46 115 18 l 114 550 q 97 699 114 650 q 160 724 126 724 q 206 708 189 724 q 222 663 222 692 l 225 158 m 356 926 q 318 840 347 872 q 244 807 289 807 q 202 815 221 807 q 156 842 183 824 q 114 865 132 857 q 75 874 96 874 q 23 858 44 874 q -8 814 1 842 l -11 814 q -40 826 -28 814 q 2 915 -32 886 q 81 944 36 944 q 126 935 106 944 q 171 910 146 926 q 215 885 199 893 q 254 878 232 878 q 298 893 283 878 q 325 939 313 908 q 356 926 343 939 z "},"j":{"ha":361,"x_min":-111,"x_max":257,"o":"m 183 851 q 131 873 153 851 q 110 925 110 894 q 131 977 110 956 q 183 999 153 999 q 235 977 214 999 q 257 925 257 956 q 235 873 257 894 q 183 851 214 851 m 39 -322 q -73 -292 -35 -322 q -111 -211 -111 -262 q -95 -165 -111 -185 q -49 -144 -79 -144 q -14 -164 -25 -144 q -25 -211 -25 -185 q -6 -260 -25 -246 q 40 -274 14 -274 q 115 -218 97 -274 q 133 -54 133 -162 l 135 549 q 118 699 135 649 q 181 724 146 724 q 226 707 208 724 q 243 661 243 690 l 244 -74 q 198 -251 244 -181 q 39 -322 151 -322 z "},"ȷ":{"ha":347,"x_min":-111,"x_max":244,"o":"m 39 -322 q -73 -292 -35 -322 q -111 -211 -111 -262 q -95 -165 -111 -185 q -49 -144 -79 -144 q -14 -164 -25 -144 q -25 -211 -25 -185 q -6 -260 -25 -246 q 40 -274 14 -274 q 115 -218 97 -274 q 133 -54 133 -162 l 135 549 q 118 699 135 649 q 181 724 146 724 q 226 707 208 724 q 243 661 243 690 l 244 -74 q 198 -251 244 -181 q 39 -322 151 -322 z "},"ĵ":{"ha":347,"x_min":-111,"x_max":381,"o":"m 39 -322 q -73 -292 -35 -322 q -111 -211 -111 -262 q -95 -165 -111 -185 q -49 -144 -79 -144 q -14 -164 -25 -144 q -25 -211 -25 -185 q -6 -260 -25 -246 q 40 -274 14 -274 q 115 -218 97 -274 q 133 -54 133 -162 l 135 549 q 118 699 135 649 q 181 724 146 724 q 226 707 208 724 q 243 661 243 690 l 244 -74 q 198 -251 244 -181 q 39 -322 151 -322 m 21 781 q -5 785 11 781 q -24 796 -21 790 l 143 986 q 178 990 156 990 q 214 986 201 990 l 381 796 q 361 785 376 790 q 336 781 346 781 l 179 901 l 21 781 z "},"k":{"ha":758,"x_min":114,"x_max":719,"o":"m 704 97 q 719 57 719 81 q 692 6 719 26 q 626 -15 664 -15 q 563 6 592 -15 q 518 65 535 26 l 399 301 q 224 249 319 272 q 226 83 224 122 q 243 10 229 44 q 215 -8 229 -1 q 176 -15 200 -15 q 128 2 142 -15 q 115 51 115 19 l 114 953 q 131 998 114 982 q 178 1014 149 1014 q 242 989 217 1014 q 229 904 232 942 q 225 808 226 867 l 224 771 l 222 517 q 326 667 254 611 q 497 724 399 724 q 624 681 579 724 q 669 565 669 638 q 615 426 669 486 q 476 328 561 367 q 528 274 500 318 l 610 126 q 637 90 626 100 q 665 79 647 79 q 704 97 689 79 m 224 299 q 465 402 372 342 q 557 558 557 463 q 531 634 557 610 q 460 658 504 658 q 337 612 390 658 q 253 484 283 565 q 224 299 224 403 z "},"ķ":{"ha":758,"x_min":114,"x_max":719,"o":"m 704 97 q 719 57 719 81 q 692 6 719 26 q 626 -15 664 -15 q 563 6 592 -15 q 518 65 535 26 l 399 301 q 224 249 319 272 q 226 83 224 122 q 243 10 229 44 q 215 -8 229 -1 q 176 -15 200 -15 q 128 2 142 -15 q 115 51 115 19 l 114 953 q 131 998 114 982 q 178 1014 149 1014 q 242 989 217 1014 q 229 904 232 942 q 225 808 226 867 l 224 771 l 222 517 q 326 667 254 611 q 497 724 399 724 q 624 681 579 724 q 669 565 669 638 q 615 426 669 486 q 476 328 561 367 q 528 274 500 318 l 610 126 q 637 90 626 100 q 665 79 647 79 q 704 97 689 79 m 224 299 q 465 402 372 342 q 557 558 557 463 q 531 634 557 610 q 460 658 504 658 q 337 612 390 658 q 253 484 283 565 q 224 299 224 403 m 371 -317 q 329 -292 347 -311 q 372 -199 372 -242 q 354 -147 372 -162 q 308 -122 336 -131 q 330 -71 308 -94 q 386 -47 351 -47 q 442 -70 419 -47 q 465 -143 465 -93 q 371 -317 465 -235 z "},"ĸ":{"ha":803,"x_min":103,"x_max":749,"o":"m 740 88 q 749 53 749 72 q 726 3 749 22 q 667 -15 703 -15 q 590 13 624 -15 q 544 86 557 40 l 511 206 q 452 300 492 267 q 319 333 413 333 l 233 333 l 233 158 q 250 10 233 58 q 186 -15 225 -15 q 139 1 157 -15 q 121 46 121 18 l 121 549 q 103 699 121 644 q 169 724 136 724 q 216 707 199 724 q 233 661 233 690 l 233 385 l 315 389 q 447 429 392 396 q 530 510 501 463 q 558 610 558 558 q 551 667 558 639 q 536 706 544 694 q 586 724 558 724 q 642 694 617 724 q 668 613 668 665 q 613 468 668 533 q 464 374 558 403 q 556 328 519 365 q 611 232 593 292 l 638 142 q 700 71 658 71 l 704 71 q 740 88 726 71 z "},"l":{"ha":375,"x_min":111,"x_max":342,"o":"m 243 -14 q 146 26 181 -14 q 111 140 111 67 l 111 953 q 129 998 111 982 q 176 1014 147 1014 q 240 989 211 1014 q 226 896 229 953 q 222 718 222 839 l 222 146 q 235 91 222 110 q 275 72 249 72 q 305 80 290 72 q 326 101 319 88 q 342 58 342 81 q 313 6 342 26 q 243 -14 285 -14 z "},"ĺ":{"ha":375,"x_min":111,"x_max":342,"o":"m 243 -14 q 146 26 181 -14 q 111 140 111 67 l 111 953 q 129 998 111 982 q 176 1014 147 1014 q 240 989 211 1014 q 226 896 229 953 q 222 718 222 839 l 222 146 q 235 91 222 110 q 275 72 249 72 q 305 80 290 72 q 326 101 319 88 q 342 58 342 81 q 313 6 342 26 q 243 -14 285 -14 z "},"ľ":{"ha":453,"x_min":111,"x_max":421,"o":"m 315 1026 q 333 882 333 967 q 331 818 333 838 l 385 818 q 419 1026 421 925 q 368 1033 400 1033 q 315 1026 336 1033 m 243 -14 q 146 26 181 -14 q 111 140 111 67 l 111 953 q 129 998 111 982 q 176 1014 147 1014 q 240 989 211 1014 q 226 896 229 953 q 222 718 222 839 l 222 146 q 235 91 222 110 q 275 72 249 72 q 305 80 290 72 q 326 101 319 88 q 342 58 342 81 q 313 6 342 26 q 243 -14 285 -14 z "},"ļ":{"ha":375,"x_min":111,"x_max":342,"o":"m 243 -14 q 146 26 181 -14 q 111 140 111 67 l 111 953 q 129 998 111 982 q 176 1014 147 1014 q 240 989 211 1014 q 226 896 229 953 q 222 718 222 839 l 222 146 q 235 91 222 110 q 275 72 249 72 q 305 80 290 72 q 326 101 319 88 q 342 58 342 81 q 313 6 342 26 q 243 -14 285 -14 m 221 -317 q 179 -292 197 -311 q 222 -199 222 -242 q 204 -147 222 -162 q 158 -122 186 -131 q 180 -71 158 -94 q 236 -47 201 -47 q 292 -70 269 -47 q 315 -143 315 -93 q 221 -317 315 -235 z "},"ŀ":{"ha":472,"x_min":111,"x_max":481,"o":"m 243 -14 q 146 26 181 -14 q 111 140 111 67 l 111 953 q 129 998 111 982 q 176 1014 147 1014 q 240 989 211 1014 q 226 896 229 953 q 222 718 222 839 l 222 146 q 235 91 222 110 q 275 72 249 72 q 305 80 290 72 q 326 101 319 88 q 342 58 342 81 q 313 6 342 26 q 243 -14 285 -14 m 406 396 q 353 418 375 396 q 331 471 331 440 q 353 524 331 501 q 406 546 375 546 q 458 524 436 546 q 481 471 481 501 q 459 418 481 440 q 406 396 438 396 z "},"ḷ":{"ha":375,"x_min":111,"x_max":342,"o":"m 243 -14 q 146 26 181 -14 q 111 140 111 67 l 111 953 q 129 998 111 982 q 176 1014 147 1014 q 240 989 211 1014 q 226 896 229 953 q 222 718 222 839 l 222 146 q 235 91 222 110 q 275 72 249 72 q 305 80 290 72 q 326 101 319 88 q 342 58 342 81 q 313 6 342 26 q 243 -14 285 -14 m 231 -207 q 178 -185 200 -207 q 156 -132 156 -162 q 178 -78 156 -100 q 231 -56 200 -56 q 283 -78 261 -56 q 306 -132 306 -100 q 283 -185 306 -162 q 231 -207 261 -207 z "},"ḹ":{"ha":375,"x_min":6,"x_max":374,"o":"m 243 -14 q 146 26 181 -14 q 111 140 111 67 l 111 953 q 129 998 111 982 q 176 1014 147 1014 q 240 989 211 1014 q 226 896 229 953 q 222 718 222 839 l 222 146 q 235 91 222 110 q 275 72 249 72 q 305 80 290 72 q 326 101 319 88 q 342 58 342 81 q 313 6 342 26 q 243 -14 285 -14 m 231 -207 q 178 -185 200 -207 q 156 -132 156 -162 q 178 -78 156 -100 q 231 -56 200 -56 q 283 -78 261 -56 q 306 -132 306 -100 q 283 -185 306 -162 q 231 -207 261 -207 m 368 1171 q 374 1142 374 1151 q 368 1111 374 1131 l 11 1111 q 6 1142 6 1124 q 11 1171 6 1158 l 368 1171 z "},"ḻ":{"ha":375,"x_min":51,"x_max":419,"o":"m 243 -14 q 146 26 181 -14 q 111 140 111 67 l 111 953 q 129 998 111 982 q 176 1014 147 1014 q 240 989 211 1014 q 226 896 229 953 q 222 718 222 839 l 222 146 q 235 91 222 110 q 275 72 249 72 q 305 80 290 72 q 326 101 319 88 q 342 58 342 81 q 313 6 342 26 q 243 -14 285 -14 m 415 -92 q 419 -119 419 -107 q 415 -147 419 -135 l 57 -147 q 51 -119 51 -136 q 57 -92 51 -104 l 415 -92 z "},"ł":{"ha":375,"x_min":-7,"x_max":356,"o":"m 275 72 q 305 80 290 72 q 326 101 319 88 q 342 58 342 81 q 313 6 342 26 q 243 -14 285 -14 q 146 26 181 -14 q 111 140 111 67 l 111 315 l 35 213 l -7 242 l 111 400 l 111 953 q 129 998 111 982 q 176 1014 147 1014 q 240 989 211 1014 q 226 896 229 953 q 222 718 222 839 l 222 550 l 314 674 l 356 644 l 222 465 l 222 146 q 235 91 222 110 q 275 72 249 72 z "},"m":{"ha":1211,"x_min":36,"x_max":1122,"o":"m 1104 158 q 1122 10 1104 63 q 1058 -15 1092 -15 q 1013 1 1031 -15 q 994 46 994 18 l 994 421 q 965 601 994 540 q 863 663 936 663 q 776 631 818 663 q 706 528 735 599 q 676 353 678 458 l 678 158 q 694 10 678 58 q 632 -15 667 -15 q 588 1 604 -15 q 571 46 571 18 l 569 421 q 539 603 569 544 q 433 663 508 663 q 347 628 388 663 q 279 519 306 594 q 253 326 253 443 q 256 99 253 151 q 272 10 258 46 q 208 -15 243 -15 q 162 3 179 -15 q 144 51 144 21 l 143 563 q 131 617 143 599 q 94 636 118 636 q 69 628 82 636 q 51 607 57 621 q 36 650 36 626 q 61 702 36 682 q 122 722 86 722 q 210 683 179 722 q 242 568 242 643 l 242 546 q 328 676 269 629 q 465 724 386 724 q 667 543 635 724 q 751 676 692 628 q 893 724 811 724 q 1053 651 1001 724 q 1104 435 1104 578 l 1104 158 z "},"ṃ":{"ha":1211,"x_min":36,"x_max":1122,"o":"m 1104 158 q 1122 10 1104 63 q 1058 -15 1092 -15 q 1013 1 1031 -15 q 994 46 994 18 l 994 421 q 965 601 994 540 q 863 663 936 663 q 776 631 818 663 q 706 528 735 599 q 676 353 678 458 l 678 158 q 694 10 678 58 q 632 -15 667 -15 q 588 1 604 -15 q 571 46 571 18 l 569 421 q 539 603 569 544 q 433 663 508 663 q 347 628 388 663 q 279 519 306 594 q 253 326 253 443 q 256 99 253 151 q 272 10 258 46 q 208 -15 243 -15 q 162 3 179 -15 q 144 51 144 21 l 143 563 q 131 617 143 599 q 94 636 118 636 q 69 628 82 636 q 51 607 57 621 q 36 650 36 626 q 61 702 36 682 q 122 722 86 722 q 210 683 179 722 q 242 568 242 643 l 242 546 q 328 676 269 629 q 465 724 386 724 q 667 543 635 724 q 751 676 692 628 q 893 724 811 724 q 1053 651 1001 724 q 1104 435 1104 578 l 1104 158 m 639 -207 q 586 -185 608 -207 q 564 -132 564 -162 q 586 -78 564 -100 q 639 -56 608 -56 q 692 -78 669 -56 q 714 -132 714 -100 q 692 -185 714 -162 q 639 -207 669 -207 z "},"n":{"ha":797,"x_min":36,"x_max":708,"o":"m 690 158 q 708 10 693 53 q 644 -15 681 -15 q 597 1 615 -15 q 579 46 579 18 l 579 421 q 545 600 578 542 q 435 658 513 658 q 341 625 386 658 q 267 519 296 592 q 238 335 238 447 q 240 101 238 156 q 257 10 243 47 q 193 -15 228 -15 q 146 3 164 -15 q 128 51 128 21 l 128 564 q 117 619 126 603 q 89 636 108 636 q 53 614 63 636 q 36 658 36 638 q 58 705 36 688 q 119 722 81 722 q 200 686 172 722 q 228 579 228 650 l 228 551 q 319 678 257 633 q 467 724 382 724 q 690 435 690 724 l 690 158 z "},"ń":{"ha":797,"x_min":36,"x_max":708,"o":"m 690 158 q 708 10 693 53 q 644 -15 681 -15 q 597 1 615 -15 q 579 46 579 18 l 579 421 q 545 600 578 542 q 435 658 513 658 q 341 625 386 658 q 267 519 296 592 q 238 335 238 447 q 240 101 238 156 q 257 10 243 47 q 193 -15 228 -15 q 146 3 164 -15 q 128 51 128 21 l 128 564 q 117 619 126 603 q 89 636 108 636 q 53 614 63 636 q 36 658 36 638 q 58 705 36 688 q 119 722 81 722 q 200 686 172 722 q 228 579 228 650 l 228 551 q 319 678 257 633 q 467 724 382 724 q 690 435 690 724 l 690 158 m 418 782 q 388 785 404 782 q 368 792 372 788 l 494 1000 q 556 992 519 1001 q 604 974 592 983 l 418 782 z "},"ŉ":{"ha":936,"x_min":11,"x_max":811,"o":"m 35 629 l 88 629 l 115 840 q 65 847 99 847 q 11 840 32 847 l 35 629 m 793 158 q 811 10 796 53 q 747 -15 783 -15 q 700 1 718 -15 q 682 46 682 18 l 682 421 q 648 600 681 542 q 538 658 615 658 q 444 625 489 658 q 369 519 399 592 q 340 335 340 447 q 343 101 340 156 q 360 10 346 47 q 296 -15 331 -15 q 249 3 267 -15 q 231 51 231 21 l 231 564 q 220 619 229 603 q 192 636 211 636 q 156 614 165 636 q 139 658 139 638 q 161 705 139 688 q 222 722 183 722 q 303 686 275 722 q 331 579 331 650 l 331 551 q 422 678 360 633 q 569 724 485 724 q 793 435 793 724 l 793 158 z "},"ň":{"ha":797,"x_min":36,"x_max":708,"o":"m 690 158 q 708 10 693 53 q 644 -15 681 -15 q 597 1 615 -15 q 579 46 579 18 l 579 421 q 545 600 578 542 q 435 658 513 658 q 341 625 386 658 q 267 519 296 592 q 238 335 238 447 q 240 101 238 156 q 257 10 243 47 q 193 -15 228 -15 q 146 3 164 -15 q 128 51 128 21 l 128 564 q 117 619 126 603 q 89 636 108 636 q 53 614 63 636 q 36 658 36 638 q 58 705 36 688 q 119 722 81 722 q 200 686 172 722 q 228 579 228 650 l 228 551 q 319 678 257 633 q 467 724 382 724 q 690 435 690 724 l 690 158 m 411 875 l 568 996 q 592 991 576 996 q 613 981 608 986 l 446 789 q 410 786 429 786 q 375 789 392 786 l 208 981 q 227 991 211 986 q 253 996 243 996 l 411 875 z "},"ņ":{"ha":797,"x_min":36,"x_max":708,"o":"m 690 158 q 708 10 693 53 q 644 -15 681 -15 q 597 1 615 -15 q 579 46 579 18 l 579 421 q 545 600 578 542 q 435 658 513 658 q 341 625 386 658 q 267 519 296 592 q 238 335 238 447 q 240 101 238 156 q 257 10 243 47 q 193 -15 228 -15 q 146 3 164 -15 q 128 51 128 21 l 128 564 q 117 619 126 603 q 89 636 108 636 q 53 614 63 636 q 36 658 36 638 q 58 705 36 688 q 119 722 81 722 q 200 686 172 722 q 228 579 228 650 l 228 551 q 319 678 257 633 q 467 724 382 724 q 690 435 690 724 l 690 158 m 404 -317 q 363 -292 381 -311 q 406 -199 406 -242 q 388 -147 406 -162 q 342 -122 369 -131 q 363 -71 342 -94 q 419 -47 385 -47 q 476 -70 453 -47 q 499 -143 499 -93 q 404 -317 499 -235 z "},"ṅ":{"ha":797,"x_min":36,"x_max":708,"o":"m 690 158 q 708 10 693 53 q 644 -15 681 -15 q 597 1 615 -15 q 579 46 579 18 l 579 421 q 545 600 578 542 q 435 658 513 658 q 341 625 386 658 q 267 519 296 592 q 238 335 238 447 q 240 101 238 156 q 257 10 243 47 q 193 -15 228 -15 q 146 3 164 -15 q 128 51 128 21 l 128 564 q 117 619 126 603 q 89 636 108 636 q 53 614 63 636 q 36 658 36 638 q 58 705 36 688 q 119 722 81 722 q 200 686 172 722 q 228 579 228 650 l 228 551 q 319 678 257 633 q 467 724 382 724 q 690 435 690 724 l 690 158 m 410 796 q 360 817 381 796 q 339 868 339 838 q 360 917 339 896 q 410 939 381 939 q 460 917 439 939 q 481 868 481 896 q 460 817 481 838 q 410 796 439 796 z "},"ṇ":{"ha":797,"x_min":36,"x_max":708,"o":"m 690 158 q 708 10 693 53 q 644 -15 681 -15 q 597 1 615 -15 q 579 46 579 18 l 579 421 q 545 600 578 542 q 435 658 513 658 q 341 625 386 658 q 267 519 296 592 q 238 335 238 447 q 240 101 238 156 q 257 10 243 47 q 193 -15 228 -15 q 146 3 164 -15 q 128 51 128 21 l 128 564 q 117 619 126 603 q 89 636 108 636 q 53 614 63 636 q 36 658 36 638 q 58 705 36 688 q 119 722 81 722 q 200 686 172 722 q 228 579 228 650 l 228 551 q 319 678 257 633 q 467 724 382 724 q 690 435 690 724 l 690 158 m 414 -207 q 361 -185 383 -207 q 339 -132 339 -162 q 361 -78 339 -100 q 414 -56 383 -56 q 467 -78 444 -56 q 489 -132 489 -100 q 467 -185 489 -162 q 414 -207 444 -207 z "},"ṉ":{"ha":797,"x_min":36,"x_max":708,"o":"m 690 158 q 708 10 693 53 q 644 -15 681 -15 q 597 1 615 -15 q 579 46 579 18 l 579 421 q 545 600 578 542 q 435 658 513 658 q 341 625 386 658 q 267 519 296 592 q 238 335 238 447 q 240 101 238 156 q 257 10 243 47 q 193 -15 228 -15 q 146 3 164 -15 q 128 51 128 21 l 128 564 q 117 619 126 603 q 89 636 108 636 q 53 614 63 636 q 36 658 36 638 q 58 705 36 688 q 119 722 81 722 q 200 686 172 722 q 228 579 228 650 l 228 551 q 319 678 257 633 q 467 724 382 724 q 690 435 690 724 l 690 158 m 599 -92 q 603 -119 603 -107 q 599 -147 603 -135 l 240 -147 q 235 -119 235 -136 q 240 -92 235 -104 l 599 -92 z "},"ñ":{"ha":797,"x_min":36,"x_max":708,"o":"m 690 158 q 708 10 693 53 q 644 -15 681 -15 q 597 1 615 -15 q 579 46 579 18 l 579 421 q 545 600 578 542 q 435 658 513 658 q 341 625 386 658 q 267 519 296 592 q 238 335 238 447 q 240 101 238 156 q 257 10 243 47 q 193 -15 228 -15 q 146 3 164 -15 q 128 51 128 21 l 128 564 q 117 619 126 603 q 89 636 108 636 q 53 614 63 636 q 36 658 36 638 q 58 705 36 688 q 119 722 81 722 q 200 686 172 722 q 228 579 228 650 l 228 551 q 319 678 257 633 q 467 724 382 724 q 690 435 690 724 l 690 158 m 607 926 q 569 840 599 872 q 496 807 540 807 q 453 815 472 807 q 407 842 435 824 q 365 865 383 857 q 326 874 347 874 q 274 858 296 874 q 243 814 253 842 l 240 814 q 211 826 224 814 q 253 915 219 886 q 332 944 288 944 q 377 935 357 944 q 422 910 397 926 q 467 885 450 893 q 506 878 483 878 q 549 893 535 878 q 576 939 564 908 q 607 926 594 939 z "},"o":{"ha":760,"x_min":61,"x_max":699,"o":"m 379 -18 q 145 80 229 -18 q 61 353 61 178 q 145 626 61 528 q 379 724 229 724 q 615 626 531 724 q 699 353 699 528 q 615 80 699 178 q 379 -18 531 -18 m 379 32 q 528 115 476 32 q 579 353 579 197 q 528 590 579 508 q 379 672 476 672 q 231 590 282 672 q 179 353 179 508 q 231 115 179 197 q 379 32 282 32 z "},"ó":{"ha":760,"x_min":61,"x_max":699,"o":"m 379 -18 q 145 80 229 -18 q 61 353 61 178 q 145 626 61 528 q 379 724 229 724 q 615 626 531 724 q 699 353 699 528 q 615 80 699 178 q 379 -18 531 -18 m 379 32 q 528 115 476 32 q 579 353 579 197 q 528 590 579 508 q 379 672 476 672 q 231 590 282 672 q 179 353 179 508 q 231 115 179 197 q 379 32 282 32 m 386 782 q 356 785 372 782 q 336 792 340 788 l 463 1000 q 524 992 488 1001 q 572 974 560 983 l 386 782 z "},"ǒ":{"ha":760,"x_min":61,"x_max":699,"o":"m 379 -18 q 145 80 229 -18 q 61 353 61 178 q 145 626 61 528 q 379 724 229 724 q 615 626 531 724 q 699 353 699 528 q 615 80 699 178 q 379 -18 531 -18 m 379 32 q 528 115 476 32 q 579 353 579 197 q 528 590 579 508 q 379 672 476 672 q 231 590 282 672 q 179 353 179 508 q 231 115 179 197 q 379 32 282 32 m 381 875 l 538 996 q 562 991 546 996 q 582 981 578 986 l 415 789 q 379 786 399 786 q 344 789 361 786 l 178 981 q 197 991 181 986 q 222 996 213 996 l 381 875 z "},"ô":{"ha":760,"x_min":61,"x_max":699,"o":"m 379 -18 q 145 80 229 -18 q 61 353 61 178 q 145 626 61 528 q 379 724 229 724 q 615 626 531 724 q 699 353 699 528 q 615 80 699 178 q 379 -18 531 -18 m 379 32 q 528 115 476 32 q 579 353 579 197 q 528 590 579 508 q 379 672 476 672 q 231 590 282 672 q 179 353 179 508 q 231 115 179 197 q 379 32 282 32 m 219 781 q 194 785 210 781 q 175 796 178 790 l 342 986 q 376 990 354 990 q 413 986 400 990 l 579 796 q 560 785 575 790 q 535 781 544 781 l 378 901 l 219 781 z "}}}
